/* XPM */
static char *result[] = {
/* columns rows colors chars-per-pixel */
"63 63 188 2 ",
"   c #1B0C00",
".  c #1C0E0B",
"X  c #0E1609",
"o  c #1A1302",
"O  c #1C1800",
"+  c #11170B",
"@  c #1C130B",
"#  c #1A0E18",
"$  c #1B1414",
"%  c #270704",
"&  c #2E0700",
"*  c #2A0D02",
"=  c #220E0E",
"-  c #2A0D0E",
";  c #320B03",
":  c #30060A",
">  c #320C0B",
",  c #231304",
"<  c #2B1303",
"1  c #24140C",
"2  c #2B110B",
"3  c #251A0A",
"4  c #30150C",
"5  c #240614",
"6  c #250C13",
"7  c #2A0C14",
"8  c #290719",
"9  c #2C0F1C",
"0  c #330C13",
"q  c #3A0D14",
"w  c #241312",
"e  c #2C1314",
"r  c #251810",
"t  c #23151B",
"y  c #251919",
"u  c #341213",
"i  c #3A1213",
"p  c #34141B",
"a  c #29210C",
"s  c #25221B",
"d  c #2C0921",
"f  c #281020",
"g  c #2C1628",
"h  c #351F22",
"j  c #2B272E",
"k  c #177600",
"l  c #1C7201",
"z  c #18750B",
"x  c #226C00",
"c  c #306B01",
"v  c #257304",
"b  c #286917",
"n  c #06792B",
"m  c #027D2C",
"M  c #037C33",
"N  c #0B7D33",
"B  c #017E39",
"V  c #157F37",
"C  c #257133",
"Z  c #0C7D45",
"A  c #167C45",
"S  c #287740",
"D  c #AB170D",
"F  c #A9171E",
"G  c #BE1115",
"H  c #B81727",
"J  c #B2172E",
"K  c #AA1731",
"L  c #B51737",
"P  c #E73758",
"I  c #FD355E",
"U  c #F93E5B",
"Y  c #F12D6F",
"T  c #EB396B",
"R  c #F23562",
"E  c #FF3265",
"W  c #FC3965",
"Q  c #F4356B",
"!  c #FC366B",
"~  c #F23E6A",
"^  c #FB3A6B",
"/  c #ED3F70",
"(  c #F23772",
")  c #FB3973",
"_  c #FF3578",
"`  c #FA4169",
"'  c #F94670",
"]  c #1B9D05",
"[  c #00801F",
"{  c #008A1E",
"}  c #248C04",
"|  c #2C8C03",
" . c #348F03",
".. c #2D9302",
"X. c #2A9800",
"o. c #2C950B",
"O. c #319603",
"+. c #379605",
"@. c #22A001",
"#. c #2EBF08",
"$. c #33BD00",
"%. c #35BE0E",
"&. c #028526",
"*. c #018825",
"=. c #01852E",
"-. c #0C8528",
";. c #0A822E",
":. c #008B2C",
">. c #009727",
",. c #00912A",
"<. c #018635",
"1. c #0B8434",
"2. c #018A34",
"3. c #0C8934",
"4. c #028539",
"5. c #0B843C",
"6. c #028B3B",
"7. c #0A8C3D",
"8. c #148334",
"9. c #10863B",
"0. c #15853B",
"q. c #009033",
"w. c #00923B",
"e. c #08903E",
"r. c #009A3D",
"t. c #43BC03",
"y. c #49BA00",
"u. c #42BB14",
"i. c #2EC500",
"p. c #2CC50A",
"a. c #3BC302",
"s. c #39C903",
"d. c #26C511",
"f. c #36C312",
"g. c #42C005",
"h. c #44C31A",
"j. c #4EFD00",
"k. c #55FF13",
"l. c #038344",
"z. c #0C8341",
"x. c #018D45",
"c. c #0B8B41",
"v. c #0B854C",
"b. c #018F4B",
"n. c #118649",
"m. c #029144",
"M. c #089340",
"N. c #00BD54",
"B. c #058D65",
"V. c #029268",
"C. c #088D78",
"Z. c #04C767",
"A. c #05C474",
"S. c #FDAC00",
"D. c #EAB600",
"F. c #EDBC00",
"G. c #F2B400",
"H. c #FDB402",
"J. c #F1BB00",
"K. c #FCBB01",
"L. c #FAB50E",
"P. c #FBB515",
"I. c #FFBF14",
"U. c #F1C200",
"Y. c #0159DF",
"T. c #056BCD",
"R. c #006CD3",
"E. c #0263DA",
"W. c #0168E9",
"Q. c #0071E5",
"!. c #0363F8",
"~. c #6FF3AA",
"^. c #7FF7B7",
"/. c #75FFB4",
"(. c #78FFB8",
"). c #2D9BE6",
"_. c #3D9DFD",
"`. c #28A8FC",
"'. c #39A4F9",
"]. c #409AF0",
"[. c #49BBFA",
"{. c #4BC2EA",
"}. c #64C7FF",
"|. c #80BFC8",
" X c #F29CD9",
".X c #E9AAC5",
"XX c #EEA0D4",
"oX c #EC98E3",
/* pixels */
"<.<.<.<.<.<.<.<.<.<.<.<.<.<.<.<.<.<.<.6.<.<.<.<.<.<.<.<.<.<.<.<.<.<.<.<.<.<.<.<.<.<.<.<.<.<.<.<.<.<.<.<.<.<.<.<.<.<.<.<.<.<.<.",
"<.<.<.<.<.<.<.<.<.<.<.<.<.<.<.<.<.<.<.<.<.<.<.<.<.<.6.<.<.<.<.<.<.4.<.<.<.<.<.6.<.<.<.<.<.<.<.<.<.<.<.<.<.<.<.<.<.<.<.<.<.<.<.",
"4.4.4.6.=.=.<.<.5.4.<.<.<.<.<.<.<.<.<.<.<.<.<.<.<.<.<.<.<.<.<.<.<.<.<.<.<.<.<.<.<.<.<.<.<.<.<.<.<.<.<.<.<.<.<.<.<.<.<.4.6.<.<.",
"4.4.4.<.=.<.<.4.4.1.<.<.<.<.<.<.<.<.<.<.<.<.<.<.<.<.<.<.<.<.<.<.<.<.<.4.<.<.<.<.<.<.<.<.<.<.<.<.<.<.<.<.<.<.<.<.<.<.<.<.<.<.<.",
"4.4.4.<.=.=.<.<.4.4.2.<.<.<.<.<.<.<.<.5.7.N V l.4.:.2.1.1.w.w.n 6.6.4.1.2.:.;.&.<.<.<.<.<.<.<.<.<.<.<.<.<.<.<.<.<.=.2.<.4.<.<.",
"4.4.6.6.=.<.<.<.5.4.2.<.<.<.<.2.<.<.<.5.z.N N 4.l.2.:.N N w.6.1.x.6.1.B <.<.=.&.<.<.<.<.<.<.<.<.<.<.<.<.<.6.<.<.<.<.<.<.<.<.<.",
"4.4.<.4.=.<.<.<.5.4.<.<.<.<.=.[ *.-.3.:.&.6.w.,.,.B 4.4.6.& & 0 $ # 1.7.:.*.6.w.6.6.r.r.5.8.<.<.6.<.<.<.<.<.<.<.<.<.<.<.6.<.<.",
"B 4.6.<.=.=.<.6.4.4.<.<.<.<.=.m [ -.-.:.:.x.x.,.,.B B 4.6.& & 9 $ $ 7.3.:.:.q.:.w.2.r.r.1.5.<.<.<.<.<.<.<.<.<.<.<.<.<.4.<.<.<.",
"4.4.<.<.=.=.<.<.<.<.<.<.<.4.4.M 4.6.6.2.2.M 4.5.5.<.4.t 9 .X.XW F F 5 e Z Z m m A V n n 2.w.6.6.<.<.<.<.<.<.<.<.2.<.<.<.<.<.<.",
"4.4.4.4.=.=.4.<.<.<.<.<.<.4.4.<.4.6.6.6.q.4.M 5.5.1.1.9 t .X.XW F F w w Z l.m m V V n m w.w.2.4.=.=.<.<.<.6.<.<.2.<.<.<.6.<.<.",
"4.4.4.<.=.=.6.<.<.<.<.w.2.&.m b.b.=.=.B B :.2.- 7 . . d 8 e e - 7 0 > - X + v.v.4.1.w.w.m n 9.1.2.2.<.<.<.<.<.<.<.<.<.<.<.<.<.",
"4.4.<.6.<.=.<.<.<.<.<.<.=.V N { { B 1.7 7 > : v x @.@.+.+.| | ] O.O.....l x 2 < # 8 n N e.7.n n 5.7.2.2.<.<.<.<.<.<.<.<.<.<.<.",
"4.4.6.<.=.<.4.<.<.<.<.<.<.N N { { <.N 6 7 : : x l X.X.+.+.| | ] ..O...| x x < * t t M n e.7.n N 7.7.2.<.<.<.<.<.<.<.<.<.<.<.<.",
"4.4.4.<.=.=.<.<.<.<.<.<.<.n.z.B B a a  . .h.h.i.i.t.t.i.$.%.%.$.#.$.o... .| O.O.l l ,   2.2.3.4.n m <.<.<.<.<.1.<.<.<.<.<.<.<.",
"4.4.4.6.=.<.<.<.<.<.<.6.4.n.A 4.4.3 a  .+.h.u.i.i.$.t.i.i.%.%.g.$.$.o.| |  .O.O.l l , o 2.2.<.4.m m <.<.<.<.<.<.1.2.<.<.<.<.<.",
"4.B <.4.=.=.<.<.4.4.2.2.2.5.5., 3 } | p.p.j.j.j.j.k.k.f.a.a.a.t.t.t.$.$.X.X.} } O. .C C   o 0.9.6.2.1.N <.<.<.<.<.<.<.<.<.<.<.",
"4.4.6.<.=.=.<.6.4.5.2.<.<.Z N 3 , } } p.p.j.j.j.j.k.k.s.f.a.a.g.$.g.$.$.O.X.| } O. .C C     5.9.<.<.N 1.<.<.<.<.<.<.<.<.<.<.<.",
"4.4.<.4.=.<.<.<.4.<.<.6.4.B B O O g.g.$.$.U U ( ( ^ ^ ( ( R W R ! ! ! ! ! ! I I X.X.k k = 6 6.6.&.&.2.2.M.<.<.<.<.<.<.<.4.<.<.",
"4.4.<.4.=.=.<.<.5.4.<.4.7.B B O O t.g.a.$.U U ( ( ^ ^ ( / W R ~ ! ^ W ! ! W I I X.X.k k . 6 6.6.m m 2.q.c.4.<.<.<.<.<.<.4.<.<.",
"4.4.6.<.=.<.4.<.5.4.<.:.<.>.>.d d u.u.a.a./ / - - - - H.H.U.U.K.H.H.@ @ < 2 Q Q } } c c - - 6.4.8.8.m m 6.<.<.<.2.=.<.6.<.<.<.",
"4.B 4.<.<.=.<.<.4.4.2.:.<.>.>.9 d u.u.a.g./ / 1 - 2 - H.H.U.U.K.H.H.@ $ < 2 Q Q } } c c - - 6.<.8.0.m m 6.<.<.<.<.<.<.<.<.<.<.",
"4.4.6.4.=.=.<.<.4.5.<.5.z.m m 0 0 p.p.a.a.9 9 L.L.G.J.7 8 G.G.H.y t F.D.L.L.9 0 o.} l v > - M =.7.7.<.<.4.<.<.<.<.<.<.<.6.<.<.",
"4.4.<.4.=.=.4.<.4.4.<.5.z.&.&.0 0 #.#.a.a.9 9 L.L.J.G.8 8 L.G.H.t t D.F.L.L.p p o.o.v v > > 4.M 7.e.<.6.4.<.<.<.2.<.<.<.<.<.<.",
"4.4.<.6.=.<.<.<.4.1.<.4.<.3.3.7 9 s.s.t.t., 1 J.F.K.K.w 6 I.U.S.. = P.P.J.J.& ; } } z z o O <.:.4.<.<.<.4.<.<.<.<.<.<.<.4.<.<.",
"4.4.<.4.=.=.<.<.4.5.=.<.<.3.3.w w s.s.t.t.@ 1 F.J.K.K.1 - I.I.S.= = P.P.J.G.& ; | | z z O o <.:.4.<.4.<.4.<.<.<.<.<.<.<.6.<.<.",
"4.4.6.<.<.=.<.<.4.5.2.6.6.l.l.X X } X.y.t.) ) G.H.K.K.J.J.F.F.K.U.U.K.K.G.G.! ! O.O.b b ; ; 3.3.m.m.n n 5.<.<.<.<.<.=.<.<.<.<.",
"B 4.<.4.=.=.6.<.4.4.<.6.6.l.4.X X } } g.t.) ) H.G.K.K.J.F.F.F.L.U.U.K.K.G.G.Q ! O.O.b b ; ; 3.5.x.x.n n 9.<.<.<.<.<.<.<.<.<.<.",
"4.4.4.4.=.<.<.<.5.<.<.A A 1.3.2.:.h h | O.$.$.` ~ Y Y ) ^ ! ! I U ` P P _ _ t t o @ , < b.b.=.=.B M r.r.V <.<.<.<.<.<.6.4.<.<.",
"4.4.<.6.=.=.<.<.4.4.2.A A 3.-.2.2.h h ....$.$.^ ' Y Y ) ) E ! I ` ` P P _ _ t t @ @ < , x.x.<.=.B B r.r.V <.<.<.<.<.<.<.4.<.<.",
"4.4.4.4.=.<.<.<.5.4.<.-.&.4.4.N n 4.4.> > 8 8 v v o.o.y.t.f.f.%.d.d.X.O.- - W W  X XK K 2 , 1.;.n.n.=.;.<.<.<.<.<.<.<.4.4.<.<.",
"4.4.6.<.=.=.<.4.5.4.<.&.=.4.4.n n 4.B 0 0 8 8 v v o.o.y.y.f.f.a.d.d...O.2 - ^ W  X XK K 2 1 ;.1.n.n.=.;.;.<.<.<.<.<.<.<.<.<.<.",
"4.4.<.6.=.<.<.<.4.4.<.4.6.:.,.l.l.< < - 4 7 e + + > * < , $ $ ; 7 p ; ; # w ^ ~ Q Q ^ ^ > 2 =.=.4.4.q.2.2.<.<.<.<.<.<.<.6.<.<.",
"4.4.<.4.=.=.<.4.4.4.<.5.5.<.;.# # XXXX^.^.(.(.Y.E._._.[.[.'.'.'.R.E.Q.Q.$ $ G G W W L L X o 5.5.<.<.&.m 6.<.<.<.<.<.<.<.<.<.<.",
"4.B <.4.=.=.<.<.5.4.<.5.z.1.<.# # XXXX^.^.(.(.E.E._._.[.[.'.).'.E.E.Q.Q.$ $ G G W I L K o o 5.c.<.<.m m <.<.<.<.<.<.<.<.6.<.<.",
"4.4.6.<.=.<.<.<.4.4.2.&.&.l.l.p p I I ^ ) @ 6 R.T.|.}.}.}.{.{.).`.`.!.!.E.W.2 2 9 f o o S S 6.6.=.<.9.9.6.<.=.<.<.<.<.<.<.<.<.",
"4.4.6.4.=.=.6.4.4.5.2.&.&.l.l.p p I I ^ ^ 1 @ R.T.|.|.}.}.{.{.).`.`.!.!.W.W.3 4 f f o o S S m.6.<.<.3.9.<.:.=.<.<.<.<.<.4.<.<.",
"4.4.6.4.=.=.<.<.5.4.2.m.x.-.n { *.7 7 . . i i g 0 % 6 6 5 J.J.H.j j j j h s 9 d =.=.M M m.M.&.=.7.q.;.m <.=.<.<.<.<.<.<.4.<.<.",
"4.4.<.4.<.=.<.<.4.4.<.m.x.-.[ { *.7 e . . i i g g 6 = - 5 K.K.H.j j j j s s d 9 =.=.M B M.m.&.m 6.6.=.<.<.=.<.<.2.<.<.<.<.<.<.",
"B 4.<.4.=.=.<.6.4.5.2.-.=.4.5.<.4.m.x.*.*.5 8 (.(.^./.V.V.1 1 ].'.'.Q.R.T.T.4 u ,.,.M.M.<.<.<.<.2.<.<.=.<.M m <.<.<.=.<.6.<.<.",
"4.4.<.4.=.=.<.<.4.4.=.=.*.5.5.4.4.b.x.*.&.5 8 (.(./.^.V.V., , ].'.].R.R.T.T.u 4 ,.,.M.e.=.2.<.<.<.2.=.2.4.=.<.<.<.<.<.<.<.<.<.",
"4.4.4.6.=.=.<.<.5.<.<.*.*.v.v.<.M ;.1.:.:.< < Z.A.~.~.V.V.r , `.E.E.R.T.W.W.5 6 4.4.m m 1.1.<.1.=.<.<.2.<.<.<.<.<.<.<.6.<.<.<.",
"4.4.<.<.<.=.6.4.5.4.<.*.*.v.v.M <.3.n 2.=.< ; A.Z.~.~.V.V.1 1 `.E.R.R.T.!.W.- 8 5.N m m 1.1.4.3.<.:.6.6.<.1.<.<.<.<.<.<.6.<.<.",
"4.4.<.4.=.=.<.<.4.4.2.3.<.Z Z =.=.*.*.3.3.u u P I ' ' D D h g Y.A.A.Z.Z.V.B.t $ 4.6.7.e.=.<.=.m 3.4.M <.=.<.<.<.<.<.<.4.<.<.<.",
"4.4.6.4.=.=.<.<.4.5.<.<.4.Z Z =.=.:.:.3.3.0 i P P ' ' D D g g Y.A.A.Z.Z.B.B.t $ <.<.e.e.<.<.&.m <.2.<.N m 6.6.<.<.<.<.<.4.<.<.",
"4.4.4.<.=.=.<.6.5.4.<.4.4.<.<.&.*.w.M.=.<.5 5 J J T T H H 8 6 o (./.N.N.C.C.< 3 <.;.=.=.<.2.6.6.<.<.<.<.6.=.<.<.<.<.<.<.4.<.<.",
"4.4.4.4.=.<.<.<.4.<.<.<.4.4.<.&.&.w.m.2.;.5 5 J J T T H H 6 6 o /./.N.N.C.C., , n ;.m &.<.<.6.6.<.<.<.<.e.<.<.<.<.<.<.<.6.<.<.",
"4.4.<.4.<.<.<.<.<.<.=.,.,.A Z <.2.;.N 4.4.6.6.9 0 < < 7 7 :.:.4 oXoXE E F H $ r 4.1.5.5.<.B 3.4.<.M 6.<.2.<.<.<.<.<.<.<.<.<.<.",
"4.4.<.6.<.<.<.<.<.<.<.,.,.z.Z =.<.;.n 4.l.6.6.0 0 * * w 6 :.&.4 oXoXE E F F $ r 4.4.5.5.M 1.4.<.4.<.<.<.2.<.<.<.<.<.<.<.<.<.<.",
"<.<.<.<.<.<.<.<.<.<.<.<.<.<.<.6.<.5.9.4.<.2.=.:.:.8.3.n N 6.6.o ~ ` ! ! L L ; * 4.B <.<.<.<.<.<.<.<.<.<.<.<.<.<.6.<.<.<.<.<.<.",
"<.<.<.<.<.4.<.<.<.<.=.<.<.<.2.<.6.V 5.<.4.2.2.:.:.8.8.N N 6.6.o ` T ! ! L L < * 4.1.<.<.<.<.<.<.<.<.<.<.<.<.<.<.<.<.<.<.<.<.<.",
"<.<.<.<.<.<.<.<.<.<.5.N 1.6.6.7.4.=.<.9.5.<.<.N N <.<.6.6.M <.c.o * P R J J * ; w.w.<.<.<.<.<.<.4.<.B 4.4.<.<.<.<.<.<.<.<.<.<.",
"<.<.<.<.<.<.<.<.<.<.l.1.N <.<.4.5.<.M 5.9.<.6.1.N <.<.4.6.M M z., % R R J J * < w.w.M 4.4.4.<.B <.<.<.<.<.<.<.<.<.<.<.<.<.<.<.",
"<.<.<.<.<.<.<.<.<.<.<.;.;.:.2.;.=.m m <.<.5.7.4.B 3 a 2 2   % w w w 7 2 @ @ B B 4.l.2.2.2.2.2.2.2.2.2.<.<.<.<.<.<.<.<.<.<.<.<.",
"<.<.<.<.<.<.<.6.<.<.<.6.6.6.<.6.7.4.4.l.4.r r 9 0 7 7 : - y y 6 9 e 6 - - - ; > z.l.4.4.4.B 1.B 4.B 4.1.<.<.<.<.<.<.<.<.<.<.<.",
"<.<.<.<.<.<.<.<.<.<.<.4.4.4.4.6.6.4.4.4.4.1 r u e 5 5 - - y y 6 7 9 6 7 - - > > l.l.B 4.B 1.4.4.B 1.4.B <.<.<.<.<.<.<.<.<.<.<.",
"<.<.<.<.<.<.<.<.<.<.<.<.<.w.w.m M c.7., 3 % % w 6 t t w w - - p : % e w i i , < , , <.<.<.<.<.<.<.<.<.<.<.<.<.<.<.<.<.6.<.<.<.",
"6.<.<.<.<.<.6.<.<.<.<.<.<.w.w.M M 5.7., , % % w w y t @ 1 - 6 0 : : w t i q < 2 , o <.<.<.<.<.<.<.2.<.<.<.<.<.<.<.<.<.<.<.<.<.",
"<.<.<.<.<.<.<.<.<.<.<.<.6.<.<.<.4.<.<.6.w.< < < 2 - 2 e e @ = > $ @ 1 1 - % o o A A <.<.=.<.2.2.<.<.<.<.<.=.2.<.:.<.<.<.<.<.<.",
"<.<.<.<.<.<.<.<.<.<.<.<.<.<.<.<.<.<.<.6.6.4 4 3 < - 2 w e 1 1 > @ r r 1 * % O , A n.=.2.:.2.2.=.=.2.<.<.<.<.<.2.<.<.<.<.4.<.<.",
"<.<.<.<.<.<.<.<.<.<.<.<.<.<.<.<.<.<.<.2.<.<.2.c.c.N M 2.2.<.<.4.4.<.2.<.6.6.<.<.2.:.<.<.1.<.<.<.<.<.<.<.2.<.=.<.<.<.<.5.5.<.<.",
"<.<.6.<.<.<.<.<.<.<.<.<.<.<.<.<.<.<.<.<.<.<.<.c.c.M M <.2.<.<.4.1.4.2.2.6.6.2.<.q.,.<.<.<.2.<.<.<.<.<.2.<.<.<.<.<.<.<.5.c.<.<.",
"<.<.<.<.<.<.<.<.<.<.<.<.<.<.<.<.<.<.<.<.<.<.<.<.<.<.<.<.<.<.<.<.<.<.<.<.<.<.<.<.<.<.<.<.<.<.<.<.<.<.<.<.<.<.<.<.<.<.<.<.<.<.<.",
"<.<.<.<.<.<.<.<.<.<.<.6.<.<.<.<.<.<.<.<.<.<.<.<.<.4.<.<.<.<.<.<.<.<.<.<.2.<.<.<.<.<.<.<.<.<.<.<.<.<.<.<.<.<.<.<.<.<.<.<.<.<.<."
};
