/* XPM */
static char *result[] = {
/* columns rows colors chars-per-pixel */
"63 63 182 2 ",
"   c #1C0E04",
".  c #0F1D06",
"X  c #171506",
"o  c #1B1A03",
"O  c #1D140F",
"+  c #1D1908",
"@  c #190B14",
"#  c #1E1313",
"$  c #2C0707",
"%  c #270C04",
"&  c #2E0C03",
"*  c #230C0C",
"=  c #2C0E0C",
"-  c #300A07",
";  c #330D0C",
":  c #241503",
">  c #2B1605",
",  c #261A02",
"<  c #24120B",
"1  c #2A130C",
"2  c #221B0D",
"3  c #29180E",
"4  c #311308",
"5  c #2C0417",
"6  c #250E15",
"7  c #2A0B12",
"8  c #250C19",
"9  c #2D0D1E",
"0  c #350B13",
"q  c #330D14",
"w  c #241312",
"e  c #2D1514",
"r  c #2D111C",
"t  c #351112",
"y  c #331318",
"u  c #272B1A",
"i  c #290F23",
"p  c #261423",
"a  c #1D2323",
"s  c #2D282F",
"d  c #31262A",
"f  c #292534",
"g  c #450209",
"h  c #166C01",
"j  c #1B6E00",
"k  c #1D7200",
"l  c #236E01",
"z  c #266D0A",
"x  c #217203",
"c  c #2C7608",
"v  c #007F25",
"b  c #027C2C",
"n  c #037E34",
"m  c #017D3D",
"M  c #0B7D3B",
"N  c #10783D",
"B  c #007E40",
"V  c #0E7E43",
"C  c #177F43",
"Z  c #9E1A18",
"A  c #992111",
"S  c #A92018",
"D  c #9D1637",
"F  c #A41727",
"G  c #B31429",
"H  c #B8122A",
"J  c #A91D3A",
"K  c #C61A32",
"L  c #FF375B",
"P  c #FB3A59",
"I  c #FB2E66",
"U  c #EB3A68",
"Y  c #FB3663",
"T  c #F53B65",
"R  c #F83866",
"E  c #FD356B",
"W  c #F53B6B",
"Q  c #FD3A6A",
"!  c #F43475",
"~  c #FC3373",
"^  c #F83B74",
"/  c #FF3679",
"(  c #F1406D",
")  c #FA466D",
"_  c #00901E",
"`  c #268B00",
"'  c #2C8E01",
"]  c #2B8C0A",
"[  c #3D8700",
"{  c #328E07",
"}  c #249400",
"|  c #2D9301",
" . c #259C00",
".. c #339200",
"X. c #359708",
"o. c #32950F",
"O. c #318C17",
"+. c #339710",
"@. c #2BBA00",
"#. c #35BD01",
"$. c #3BBC02",
"%. c #35BC09",
"&. c #018426",
"*. c #008920",
"=. c #02842C",
"-. c #0A822D",
";. c #018B2D",
":. c #14872C",
">. c #00912A",
",. c #018635",
"<. c #0C8235",
"1. c #018A34",
"2. c #0C8B35",
"3. c #01853A",
"4. c #0B843B",
"5. c #028B3B",
"6. c #0C8B3E",
"7. c #148A36",
"8. c #11853A",
"9. c #009233",
"0. c #00923B",
"q. c #44BB05",
"w. c #35C400",
"e. c #3CC400",
"r. c #39C706",
"t. c #35C40A",
"y. c #34CA13",
"u. c #41C200",
"i. c #4AFD07",
"p. c #51FE10",
"a. c #038542",
"s. c #0E8142",
"d. c #018C45",
"f. c #098C43",
"g. c #00854A",
"h. c #039240",
"j. c #049049",
"k. c #008D5A",
"l. c #018C6A",
"z. c #02946D",
"x. c #009676",
"c. c #00C349",
"v. c #02C150",
"b. c #01C458",
"n. c #00CD5F",
"m. c #0CC661",
"M. c #00C475",
"N. c #F4AE00",
"B. c #E1B700",
"V. c #EEB400",
"C. c #ECBF00",
"Z. c #F1B101",
"A. c #FEB502",
"S. c #F5BB01",
"D. c #FBB900",
"F. c #0465D7",
"G. c #0469D6",
"H. c #0075D5",
"J. c #185EE2",
"K. c #016AE4",
"L. c #0A6BE5",
"P. c #006AEC",
"I. c #076AF3",
"U. c #78FFB1",
"Y. c #72F7BE",
"T. c #2C98F9",
"R. c #329DFF",
"E. c #1BA2FE",
"W. c #2FACEF",
"Q. c #25A9FC",
"!. c #33A3F7",
"~. c #43A0F0",
"^. c #5AB0F9",
"/. c #52C5F4",
"(. c #5AC2FD",
"). c #60CAF2",
"_. c #F39EBD",
"`. c #F1A8BC",
"'. c #81FFB3",
"]. c #83BCD7",
"[. c #E4A2D2",
"{. c #F5A3E1",
/* pixels */
",.,.,.,.,.,.,.,.,.,.,.5.,.,.,.,.,.,.,.1.,.,.1.,.,.,.,.,.,.,.,.,.,.,.,.,.,.,.,.,.,.,.,.,.,.,.,.,.,.,.,.,.,.,.,.,.,.,.,.,.,.,.,.",
",.,.,.,.,.,.,.,.,.,.,.,.,.,.,.,.,.,.,.5.,.,.5.,.,.,.,.,.,.,.,.,.,.,.,.,.5.,.,.,.,.,.,.,.,.,.,.,.5.,.,.,.,.,.,.,.,.,.,.,.,.,.,.",
"3.3.,.,.,.,.,.,.,.,.,.,.,.,.,.,.,.,.,.,.,.,.,.,.,.,.5.,.,.,.,.,.,.,.,.,.,.,.,.,.,.,.,.,.,.,.,.,.,.,.,.,.5.1.,.,.,.,.,.,.,.,.,.",
"3.3.,.,.,.,.,.,.,.,.,.,.,.,.,.,.,.,.,.,.,.,.,.,.,.,.,.,.5.,.,.,.,.,.,.,.,.,.,.,.,.,.5.,.,.,.,.,.,.,.,.,.,.,.,.,.,.,.,.,.,.,.,.",
"3.3.,.,.,.,.,.,.,.,.,.,.,.,.,.,.,.,.,.,.,.,.,.,.,.,.,.,.,.,.,.,.,.,.,.5.,.,.,.,.,.,.,.,.,.,.,.,.,.,.5.,.,.,.,.,.,.,.,.3.5.,.,.",
"3.5.,.,.,.,.,.,.,.,.,.,.,.,.,.,.,.,.,.,.,.5.,.,.,.,.,.,.,.,.,.,.,.,.,.,.,.,.,.,.,.,.,.,.,.,.,.,.,.,.,.,.,.,.,.,.,.,.,.3.3.,.,.",
"3.,.,.,.,.,.,.5.,.,.,.,.,.,.,.,.,.,.,.,.,.,.,.,.,.,.,.3.,.5.5.3.3.3.,.1.,.,.,.3.,.,.,.,.,.5.,.,.,.,.,.,.,.,.,.,.,.,.,.3.3.,.,.",
"3.3.,.,.,.,.,.,.,.,.5.,.,.,.,.,.,.,.,.,.,.,.,.,.,.,.,.3.3.5.5.3.,.3.2.,.,.,.,.,.,.,.,.,.,.,.,.,.,.,.,.,.,.,.,.,.,.=.,.,.3.,.,.",
"3.,.,.,.,.,.,.,.,.,.5.,.1.5.,.,.,.,.,.,.,.,.,.,.,.5.5.1.2.;.,.2.=.=.6.6.n ,.,.,.,.,.,.,.,.,.,.,.,.,.,.,.,.,.,.,.,.1.,.,.,.,.,.",
"3.3.,.,.,.,.,.,.,.,.,.,.,.,.,.,.,.,.,.,.,.,.,.,.,.5.5.2.4.=.=.2.b =.6.6.n n ,.,.,.,.,.,.,.,.,.,.,.,.,.,.,.,.,.,.,.,.,.,.,.,.,.",
"3.3.,.,.,.,.,.,.,.,.,.,.,.,.,.,.,.,.,.,.,.,.,.5.5.n n ,.,.,.,.,.4.2.n b 3.5.,.,.,.,.,.,.,.1.,.,.,.,.,.,.,.,.,.,.,.=.=.,.,.,.,.",
"3.5.,.,.,.,.,.,.,.,.,.,.,.,.,.,.,.,.,.,.,.,.,.b =.5.5.j.j.- $ 4 > > n n 9.9.,.,.,.,.,.,.,.5.,.,.,.,.,.,.,.,.,.,.,.,.,.3.3.,.,.",
"3.,.,.,.,.,.,.,.,.,.,.,.5.,.,.,.,.,.,.,.,.,.,.=.b 5.5.j.j.- - ; , > ,.,.9.9.,.,.,.,.,.5.,.,.,.,.,.,.,.,.,.,.,.,.,.,.,.,.3.,.,.",
"3.3.,.,.,.,.,.,.,.,.,.,.,.,.,.,.,.5.,.,.,.1.,.f.5.N V     `.`.~ D D 4 4 ,.3.,.,.,.,.,.,.,.,.,.,.,.5.,.,.,.,.,.,.,.,.,.,.3.,.,.",
"3.,.,.,.,.,.5.,.,.,.,.,.,.,.,.,.,.,.,.,.,.,.,.5.5.N M     `.`.~ D D 4 4 3.,.,.,.,.,.,.,.,.,.5.,.,.,.,.,.,.,.1.,.,.=.,.3.3.,.,.",
"3.3.,.,.,.,.,.,.,.,.,.,.,.,.,.,.,.,.,.,.,.,.,.w w * 7 e e = * < y e % * 7 = ,.,.,.,.,.,.,.,.,.,.,.,.,.,.,.,.5.,.,.,.,.,.3.,.,.",
"3.3.,.5.,.,.,.,.,.,.,.,.,.,.,.1.,.,.,.,.5.,.,.w w = = y e * = w 7 e $ * = w ,.,.,.,.,.,.,.,.,.,.,.,.,.,.,.,.,.,.,.=.,.,.3.,.,.",
",.3.,.,.,.,.,.,.,.,.,.,.,.3.,.-.;.3.3.w w 5 7 k l X...' | ] ] | } } ....l l 6 8 y q 3.3.*.;.&.-.,.,.,.,.,.5.,.,.,.,.,.3.3.,.,.",
"3.3.,.,.,.,.,.,.,.,.,.,.,.n ,.-.;.3.3.w w 8 7 k x ..X.' ' o.] | } } ..' l j 8 8 7 y d.3.;.;.;.&.,.,.,.,.,.,.,.,.,.,.,.,.3.,.,.",
"3.3.,.,.,.,.,.,.,.,.,.=.,.5.1.1.1.7 7 { ' w.w.w.w.%.%.$.e.w.w.r.q.q.+.+.] ] | } k j : o g.g.1.1.,.,.,.,.,.,.,.,.,.,.,.3.3.,.,.",
"5.3.,.,.,.,.,.,.,.,.,.,.,.1.5.1.1.= 7 ' { w.w.w.w.%.t.r.e.w.w.e.q.q.{ +.` ] ' ' j j + o g.g.,.1.,.,.,.,.,.,.,.,.,.,.,.,.,.,.,.",
",.3.,.,.,.,.,.,.,.,.,.C C 3.3.$ $ o.+.w.w.p.p.i.i.i.i.e.r.t.t.t.$.$.#.#. . .o.o.` ` z z ; = 5.1.,.n ,.,.,.,.,.,.,.=.,.3.3.,.,.",
"3.3.,.,.,.,.,.,.,.,.,.C 8.,.5.* % +.O.w.w.p.p.i.i.i.i.r.e.t.t.%.$.$.#.@. . .o.o.` } z z = ; 5.,.n n ,.3.,.,.,.,.,.=.=.3.3.,.,.",
",.,.,.,.,.,.,.,.1.,.*.1.1.1.1.8 # @.@.t.t.L L W ( Y Y T ) I I E ) ) E ~ ! ! U T +.X.j l & & ,.=.3.5.1.9.,.,.,.,.,.,.,.3.3.,.,.",
",.,.,.,.,.,.,.,.,.,.*.1.9.1.,.p p @.@.t.t.L L ( ( P Y R W Y I E ) ) E E ! ! U U +.X.z x & & =.,.3.3.1.9.,.,.,.,.,.,.=.3.3.,.,.",
"3.3.,.,.,.,.,.,.3.,.s.a.m ,.,.= 7 y.y.u.u.W W 8 8 q t V.V.D.S.S.B.B.1 1 # w E Y [ [ j h p p 5.5.,.<.,.2.,.,.,.,.,.,.,.,.3.,.,.",
"3.3.,.,.,.,.,.,.,.,.s.B 3.,.,.= = y.y.u.u.W W 8 8 t t Z.V.D.D.S.B.B.1 e # 6 E Q [ [ h h p r 5.5.<.<.,.,.,.3.,.,.,.,.,.3.3.,.,.",
",.3.,.,.,.,.,.,.,.,.3.3.3.&.&.= 1 q.q.#.$.7 7 D.S.N.N.9 r A.A.A.9 i Z.N.A.D.2 2 } } c c 8 w b b 7.7.&.&.,.n ,.,.,.=.,.,.3.,.,.",
"3.3.,.,.,.,.,.,.,.,.3.4.4.&.&.1 1 q.q.%.#.7 7 D.D.N.N.i 9 A.A.A.i i A.Z.A.A.2 2 } } c c w 8 v v 7.7.&.&.,.3.,.,.,.=.,.3.3.,.,.",
"3.,.,.,.,.5.,.,.,.,.,.=.=.;.2.7 7 u.u.t.t.y q S.S.C.C.: : Z.Z.Z.w 2 S.V.A.A.$ 5 | { k h % % 0.0.=.=.;.>.,.<.,.,.,.,.,.,.3.,.,.",
",.3.,.=.,.,.,.,.,.,.n ,.,.;.1.7 7 e.e.t.t.q y S.D.C.C.: 2 Z.Z.Z.w w S.S.A.A.5 5 { { j j % % 0.0.=.=.;.;.,.M n ,.,.,.,.3.3.,.,.",
"3.3.,.1.,.,.,.,.,.,.;.>.1.a.a.6 w ....r.w.R W Z.A.A.A.A.A.S.S.S.Z.D.S.A.S.A.W W ' ' c c 1 * a.a.g.a.=.,.,.,.3.,.,.,.=.3.3.,.,.",
"3.3.,.,.,.,.,.,.,.,.7.1.,.;.;.3.3.+ + O.O.e.e.^ ) ^ ~ Y E T T ! R Q W W ~ ~ ' | x x , : 5.5.M M -.-.8.8.,.,.n ,.,.,.,.,.,.,.,.",
"3.,.,.=.,.,.,.,.,.,.7.,.1.&.;.3.3.+ + O.O.e.e.^ ^ ~ ~ Y Y T T ! R Q W W ~ I ..| x x , : 5.0.V M b -.8.8.,.<.3.,.,.,.,.3.3.,.,.",
"3.3.,.=.,.,.,.,.,.,.a.,.,.n ,.8.8.8.8.w w < % k k ....w.e.$.e.e.w.w.} } z z i i q = b b d.d.1.5.n n ;.9.,.n ,.,.,.,.,.,.3.,.,.",
"3.,.,.,.,.,.,.,.,.,.a.,.-.,.=.8.8.4.4.7 e % : j k | | $.%.q.e.w.w.w.} } z z 5 i = ; b v d.f.1.2.M ,.1.>.,.,.,.,.,.=.,.3.3.,.,.",
",.,.,.,.,.,.1.,.,.,.;.C s.f.a.3.3.B B s.4.7 7 q t @ @ t y <   p $ $ 1 = + . p i g.g.:.2.3.4.,.=.a.3.5.1.,.,.,.,.,.,.,.,.3.,.,.",
",.,.=.,.,.,.,.,.,.,.>.V C a.a.3.3.m B M f.e e 0 t @ @ y t < + p $ $ 7 = o + p p g.a.2.2.,.3.=.n 3.3.1.1.,.M ,.,.,.=.,.,.3.,.,.",
",.,.,.,.,.,.,.,.,.3.n 9.1.&.=.2.7.9.1.  % U.U.P.P.W.W././.T.T.R.G.L.F.K.I.P.c.c., , m 3.=.=.M 4.,.=.3.4.,.,.3.,.,.,.,.3.3.,.,.",
",.,.,.=.,.,.,.,.,.,.,.0.9.v &.2.2.2.9.    U.U.P.P.W.W././.T.T.T.L.L.F.F.I.I.c.c., , m 3.=.=.8.N ,.,.3.n ,.,.,.,.,.,.=.3.3.,.,.",
",.,.,.,.,.,.,.,.,.,.d.d.5.-.-.=.&.o X 9 r 7 * R.R.].].^./.(.^.~.E.E.I.I.G.G.: : M.M.9 9 3.n 5.6.&.*.f.j.2.,.,.,.,.,.,.3.3.,.,.",
",.,.=.=.,.,.,.,.,.,.j.5.5.&.b &.&.X o r i * * R.!.].]././.(.(.~.E.Q.I.I.G.G.: : M.M.9 9 ,.,.0.6.*.*.f.f.,.3.,.,.,.=.,.3.3.,.,.",
",.,.,.,.,.,.,.,.,.,.;.B m 5.6.1 3 [.[.! ^ H H 7 7 f f u u S.A.S.d d s s d a 0 5 E E E Q O O 1.,.1.,.-.-.,.,.4.,.1.1.,.3.3.,.,.",
",.,.,.1.,.,.,.,.,.,.;.B m 6.6.3 3 [.[.~ ^ H H 0 q f f u u S.A.D.d d s s a a 5 0 ~ ~ Q Q O + ,.,.=.1.-.<.,.,.n ,.1.,.,.3.,.,.,.",
",.,.,.,.,.,.,.5.,.,.n >.>.<.b     / / ~ ~ S S < w ^.^./.).(.(.T.T.T.K.K.H.H.3 3 Y Y H G % * 3.3.3.f.&.&.,.,.,.1.1.,.,.3.3.,.,.",
",.,.=.,.,.,.,.,.,.,.n >.>.b ,.    / / ~ ~ S S 3 3 ^.^.).).(.).T.T.!.K.K.H.H.3 3 Y Y G G $ $ 3.6.3.,.&.&.,.,.,.1.1.,.,.3.3.,.,.",
",.,.,.,.1.1.,.,.,.,.2.,.,.5.3.s.V < < 1 1 * < K.G.K.L.T.T.Q.Q.!.G.G.P.K.J.J.O # 7 1 r w 1.,.4.M ,.=.5.5.1.,.,.1.,.,.,.3.3.1.,.",
",.,.,.,.1.,.,.,.,.,.1.,.,.3.5.s.V < < : < < 3 K.K.K.K.T.T.Q.Q.R.G.G.P.K.J.J.O O 7 7 w e ;.;.<.<.=.,.5.5.;.,.,.1.1.,.,.,.3.5.,.",
",.,.,.,.,.,.,.5.,.1.9.v v 5.5.n n ,.,.s.f.O * v.v.b.b.z.z.G.F.L.j.k.m.m.l.l.8 * f.a.,.M n n 5.5.v v 9.9.M 1.1.1.,.,.,.,.,.,.,.",
",.,.,.,.,.,.,.,.,.,.9.v v 5.6.n n <.,.f.f.    v.v.b.b.z.z.F.F.L.k.k.m.m.l.l.  * f.f.,.,.n M 6.5.v v 9.>.M 1.1.,.,.,.,.,.,.,.,.",
",.,.,.,.,.,.,.,.,.,.1.1.1.,.,.n n ,.3.5.,.; ; Y.Y.n.n.l.l.e e 8 x.x.'.'.b.b.; t 5.3.5.,.,.n ,.,.1.,.=.,.n 4.,.,.1.5.,.,.,.,.,.",
",.,.,.,.,.,.,.,.,.,.,.1.2.,.,.n ,.3.,.3.3.; ; Y.Y.n.n.l.l.w e 5 x.x.'.'.v.b.; ; 3.5.,.,.n n ,.,.1.2.1.1.n 3.,.,.,.,.,.,.,.,.,.",
",.,.,.,.,.,.,.,.,.,.1.,.<.&.=.;.>.,.,.: > F F {.{.I E Z Z + < : G F _.[.Y Y F F : : ,.,.>.;.-.&.,.,.1.,.,.;.;.,.,.,.,.,.,.,.,.",
",.,.,.,.,.,.,.,.<.,.,.a.3.8.<.,.5.< < ; 0 J J L T P P K K = = & F F T U E ~ J J q t < < 5.3.<.<.3.a.3.m ,.1.1.3.,.,.,.,.5.,.,.",
",.,.,.,.,.,.1.,.,.4.,.3.a.M <.5.5.< < 0 q J J P Y P P K K $ $ & F F U U ~ E J J q 0 < < 5.,.<.8.m 3.B m ,.1.1.,.,.,.,.,.,.,.,.",
",.,.,.,.;.1.,.,.=.=.,.5.5.<.<.,.,.e e * @ g g A A G G @ @ = 1 t w w , , # < g g * * 1 e 5.3.<.8.5.5.5.5.-.1.;.,.,.,.,.,.,.,.,.",
",.,.,.,.1.;.,.,.;.=.,.5.5.<.<.5.5.e e * * g g A A G G @ @ = 1 t 6 w > : # # g g * * e e 3.3.<.<.5.3.5.a.=.1.;.,.,.,.,.,.,.,.,.",
"5.,.,.,.,.,.,.,.,.,.,.,.,.<.<.,.,.V V X X . . t 0 i i 2 # ; ; 8 w 1 $ 5 i 9 . . X X V V ,.3.<.-.,.=.1.1.=.,.1.1.5.,.,.,.,.,.,.",
",.,.,.,.,.,.,.,.,.,.,.,.,.-.n ,.,.V V X X . . t t i i # 2 0 ; 8 = = 7 $ 9 9 . . X X V V ,.,.<.n ,.=.1.1.;.,.,.,.,.,.,.,.,.,.,.",
",.,.,.,.,.,.,.,.,.,.,.5.,.5.4.3.3.b n 0.d.3.a.b b a.a.5.1._ *.:.,.3.0.0.&.=.3.a.h.h.b n n ,.2.5.;.;.=.=.5.,.,.,.,.,.,.,.,.,.,.",
",.,.1.5.,.,.,.,.,.,.,.,.,.5.5.,.,.n n 5.h.3.3.n b a.a.<.1._ _ :.,.M 0.0.&.&.3.a.h.h.n b ,.3.3.5.1.1.b =.1.,.,.,.,.,.,.,.,.5.,.",
",.,.,.,.,.,.,.,.,.,.,.,.,.,.,.,.,.,.,.,.3.,.,.,.3.,.,.,.,.,.,.,.,.,.,.,.,.,.,.,.,.,.,.,.,.,.,.,.,.,.,.,.,.,.,.,.,.,.,.,.,.,.,.",
",.,.,.,.,.,.,.,.,.,.,.,.,.,.,.,.,.,.,.,.,.,.,.,.,.,.,.,.,.,.,.,.,.,.,.,.,.,.,.,.,.,.,.,.,.,.,.,.,.,.,.,.,.,.,.,.,.,.,.,.,.,.,."
};
