/* XPM */
static char *result[] = {
/* columns rows colors chars-per-pixel */
"63 63 177 2 ",
"   c #1B0C0C",
".  c #1D1402",
"X  c #1E120B",
"o  c #1C1E09",
"O  c #1A0D14",
"+  c #1A1414",
"@  c #240200",
"#  c #2F0600",
"$  c #230E02",
"%  c #2B0D03",
"&  c #24070D",
"*  c #260E0F",
"=  c #2C0D0B",
"-  c #350C0C",
";  c #241203",
":  c #2B1402",
">  c #241B07",
",  c #25130C",
"<  c #2B150B",
"1  c #34130C",
"2  c #230917",
"3  c #2C0E13",
"4  c #2E051B",
"5  c #2C0C1B",
"6  c #330B14",
"7  c #330D1A",
"8  c #251315",
"9  c #2B1314",
"0  c #241A14",
"q  c #2A111B",
"w  c #2C1C1D",
"e  c #311315",
"r  c #371813",
"t  c #39131D",
"y  c #1D2106",
"u  c #260C24",
"i  c #2B1323",
"p  c #3C162B",
"a  c #1B2825",
"s  c #272725",
"d  c #372825",
"f  c #136F02",
"g  c #1B7503",
"h  c #276A03",
"j  c #277000",
"k  c #2A7405",
"l  c #247800",
"z  c #007527",
"x  c #087E26",
"c  c #047C29",
"v  c #027C2D",
"b  c #007434",
"n  c #0C7634",
"m  c #037D34",
"M  c #0B7C35",
"N  c #037E3B",
"B  c #0D7F3B",
"V  c #167A36",
"C  c #266926",
"Z  c #067C44",
"A  c #097D46",
"S  c #147B42",
"D  c #A6180A",
"F  c #B1170F",
"G  c #A21A1C",
"H  c #BB171E",
"J  c #991A2F",
"K  c #B40D21",
"L  c #AC1426",
"P  c #AA1833",
"I  c #FD2F5F",
"U  c #EE355C",
"Y  c #F7375B",
"T  c #FB2E66",
"R  c #EE3D6D",
"E  c #FB3363",
"W  c #F33C65",
"Q  c #FD3B66",
"!  c #F7356A",
"~  c #FE336C",
"^  c #F8396B",
"/  c #FC2F70",
"(  c #F63474",
")  c #F83972",
"_  c #FD426F",
"`  c #148E00",
"'  c #008E1E",
"]  c #2B8E00",
"[  c #2A8E0A",
"{  c #328E01",
"}  c #249400",
"|  c #2B9302",
" . c #2D9C00",
".. c #25940A",
"X. c #319406",
"o. c #28BE00",
"O. c #3CBC01",
"+. c #31BF09",
"@. c #078425",
"#. c #028B25",
"$. c #01842D",
"%. c #00892D",
"&. c #009527",
"*. c #00912D",
"=. c #018635",
"-. c #0A8334",
";. c #008A33",
":. c #0A8835",
">. c #02843B",
",. c #0B853A",
"<. c #018C3B",
"1. c #0B8A3C",
"2. c #009134",
"3. c #00913B",
"4. c #0A923C",
"5. c #46BD06",
"6. c #47BD12",
"7. c #2DC803",
"8. c #34C402",
"9. c #3CC300",
"0. c #38C807",
"q. c #44C700",
"w. c #49C200",
"e. c #41FF00",
"r. c #4DFF06",
"t. c #018443",
"y. c #0C8343",
"u. c #008C42",
"i. c #05854C",
"p. c #038A49",
"a. c #108141",
"s. c #029143",
"d. c #009A41",
"f. c #00965A",
"g. c #0C8F67",
"h. c #009567",
"j. c #11BC60",
"k. c #03C45C",
"l. c #00C271",
"z. c #F2AE0B",
"x. c #E7BC00",
"c. c #EFB900",
"v. c #F4B402",
"b. c #FBB300",
"n. c #F3BC04",
"m. c #FDBB01",
"M. c #FFB109",
"N. c #FEB808",
"B. c #FFB511",
"V. c #F8BA1B",
"C. c #EFC500",
"Z. c #E4CA00",
"A. c #0B68DF",
"S. c #055EE2",
"D. c #026CE1",
"F. c #0567E8",
"G. c #FF3281",
"H. c #6EFEB8",
"J. c #73FCB4",
"K. c #7CF8BC",
"L. c #379AEB",
"P. c #289AFA",
"I. c #29A7EF",
"U. c #24B1E6",
"Y. c #36A4F3",
"T. c #3FAAFF",
"R. c #40BDEB",
"E. c #4FBDFF",
"W. c #5CBFFF",
"Q. c #78FCC2",
"!. c #4CC2FF",
"~. c #5BCCFF",
"^. c #DFACBD",
"/. c #80B4DB",
"(. c #E19BD1",
"). c #F0A7C4",
"_. c #F7A0D5",
/* pixels */
"=.=.=.=.=.=.=.=.=.=.=.=.=.=.=.=.=.=.=.=.=.=.=.;.<.=.=.=.=.=.=.=.=.=.=.=.=.=.=.=.=.=.=.=.=.=.=.=.=.=.=.=.=.=.=.=.=.=.=.=.=.=.=.",
"=.=.=.=.=.=.=.=.=.=.=.=.=.=.=.=.=.=.=.=.=.=.=.=.=.=.=.=.=.=.=.=.=.=.=.=.=.=.=.=.=.=.=.=.=.=.=.=.=.=.=.=.=.=.=.=.=.=.=.=.=.=.=.",
"=.=.=.=.=.=.=.=.=.=.=.=.=.=.=.<.=.=.=.=.=.=.=.=.=.=.=.=.=.=.=.=.=.=.=.=.=.;.=.=.=.=.=.=.=.=.=.=.;.=.=.=.=.=.=.=.=.=.=.<.=.=.=.",
"=.=.=.=.=.=.=.=.=.=.=.=.=.=.=.;.=.=.=.=.=.=.=.=.=.=.=.=.=.=.=.=.=.=.=.=.=.=.=.=.=.=.=.=.=.=.=.=.<.=.=.=.=.=.=.=.=.=.=.=.=.=.=.",
"=.=.=.=.=.=.=.=.=.=.=.=.=.=.=.=.=.=.=.=.=.<.;.=.<.;.=.M -.;.2.%.#.%.:.=.<.=.=.=.=.=.=.=.=.=.=.=.=.=.=.=.=.;.:.=.=.=.=.=.=.=.=.",
"=.=.=.=.=.=.=.=.=.=.=.=.=.=.=.=.=.=.=.<.=.;.<.=.=.<.;.m m ;.2.%.$.#.:.:.=.=.=.>.=.=.=.=.=.=.=.=.=.=.=.=.=.=.;.=.=.=.=.=.=.=.=.",
"=.=.=.=.=.=.=.=.<.=.=.=.=.=.=.=.=.=.=.=.;.$.v <.<.=.:.m m <.3.1.$.;.%.%.=.>.a.a.;.;.=.;.=.=.=.=.=.=.=.=.=.=.=.=.=.=.=.=.=.=.=.",
"=.=.=.=.=.<.=.=.=.=.=.=.=.=.=.=.=.=.=.;.=.=.m 3.3.:.:.v v <.<.1.;.;.%.%.=.=.A y.<.;.=.;.=.=.=.=.=.=.=.=.=.=.=.=.=.=.=.=.=.=.=.",
"=.=.=.=.=.=.=.=.=.=.=.=.=.=.=.=.=.m m ,.,.M M -.m B B *.&.@.@.M A A <.<.=.;.m >.-.M -.-.=.<.;.;.=.=.=.=.=.=.=.<.=.%.%.=.=.=.=.",
"=.=.;.=.=.=.>.>.=.=.=.=.=.=.=.=.=.$.m ,.-.M -.-.M B B &.*.@.@.=.Z Z u.u.<.;.=.=.-.-.,.-.=.=.;.;.=.=.=.=.=.=.=.=.=.%.%.=.=.=.=.",
"=.=.=.=.=.=.=.=.=.=.=.=.=.=.=.-.-.=.>.3.<.=.=.=.:.;.;.u.<.& $ 8 r 0 =.=.;.=.,.:.$.$.-.m ,.:.<.=.;.;.=.=.=.=.=.=.=.$.%.=.<.=.=.",
"=.=.=.=.=.:.=.=.=.=.=.=.=.2.3.;.<.m m >.>.<.=.$.$.=.$.2 O _._./ L L % % =.=.#.%.d.3.<.1.B M -.-.=.=.;.=.=.=.=.=.=.%.;.=.>.=.=.",
"=.=.=.=.=.:.=.=.=.=.=.=.=.3.;.=.=.m m >.t.<.<.$.$.=.=.+ q _._.~ L L : % =.=.%.#.d.d.1.<.M M -.-.=.=.=.=.=.=.=.=.=.;.%.=.=.=.=.",
"=.=.=.=.:.:.=.=.=.=.=.=.=.;.;.;.=.M N s.s.:.<.: : & * w i , = % < 0 5 6 3 3 A y.n n >.,.>.>.m v =.=.=.=.=.=.=.=.=.%.=.=.=.=.=.",
"=.=.<.=.=.-.=.=.=.=.=.=.=.;.;.;.=.M M s.d.<.<.: : & & i w % = : , , 4 7 3 3 A a.M n t.1.=.=.v v =.=.=.=.=.=.=.=.=.%.%.<.=.=.=.",
"=.=.=.=.=.=.=.=.=.=.>.<.;.:.:.=.=.a.y.. . # # C C } } ] ] X.X.[ } } | | f f : , o y n n d.d.;.=.-.-.=.=.=.=.=.=.=.%.$.=.=.=.=.",
"=.=.=.=.=.=.=.=.=.=.=.3.;.:.-.=.=.,.S . . # # C C | } ] ] | X.[ ] } | X.f f < ; o y n n d.d.=.=.-.-.=.=.=.=.=.=.=.%.;.=.>.=.=.",
"=.=.=.=.=.=.=.=.=.=.;.%.%.x x $.-., < ` ` 9.0.q.O.8.9.O.O.8.0.7.5.5.{ { | | [ [ k h , , -.:.=.>.;.=.=.=.=.=.=.=.=.=.%.=.<.=.=.",
"=.=.=.=.=.=.=.=.=.=.;.%.*.x x =.:.< < ` ` 9.9.O.O.9.8.O.5.0.0.7.5.5.{ ] | | [ [ h k , , :.-.>.=.;.;.=.=.=.=.<.=.=.%.%.=.=.=.=.",
";.=.=.=.=.=.=.=.=.=.Z ;.;.t.Z = = [ ..w.w.e.e.r.r.r.r.9.O.+.6.O.O.O.O.O.|  .] | | ] g g & & ,.,.>.>.=.=.=.=.=.=.=.%.=.=.=.=.=.",
"<.=.=.=.=.=.=.=.=.=.t.=.$.t.Z 3 3 ..[ w.5.e.e.r.r.r.r.O.O.6.O.O.O.O.O.+. .| | | | ] g g & & t.1.N >.=.=.=.=.=.=.=.$.%.=.=.=.=.",
"=.=.=.=.=.=.=.=.=.<.%.p.i.' ' 8 8 O.+.q.w.) ^ E I ! E U W W W E _ _ R R ^ ^ R R { ] l l 5 i =.=.<.s.m =.=.=.=.=.=.%.;.=.=.=.=.",
"=.=.=.=.=.=.=.=.=.=.%.p.p.' #.8 + +.O.6.6.( ) E I E ! U U W _ Y _ _ R R Q ^ R R { { l l 5 q =.=.u.s.m =.=.=.=.=.=.%.%.=.<.=.=.",
"=.=.;.;.=.=.=.=.=.=.=.$.v &.&.4 4 0.0.+.7.! ! > < > > B.B.v.v.Z.v.v.6 6 6 6 T T ....h h 6 - ;.;.$.$.%.;.=.=.=.=.=.$.;.=.>.=.=.",
"=.=.%.;.=.=.=.=.=.=.=.$.$.&.&.2 4 0.0.+.8.! ! : > : > M.B.n.v.Z.v.v.6 6 6 3 ~ T ....h h - - ;.$.$.$.;.%.=.=.=.=.=.=.%.=.=.=.=.",
"=.=.=.;.=.=.=.=.=.=.-.V V u.<.q q 7.7.w.w.9 8 v.v.c.v.u u m.m.n.3 = v.b.M.M.8 8 ....h h 6 - %.;.=.$.%.;.:.=.=.<.=.;.%.=.=.=.=.",
"=.=.;.%.=.=.=.=.=.=.M V V <.<.5 q 7.7.w.w.8 8 v.b.v.c.u u m.m.m.= 3 b.v.M.M.8 8 ....h h - - =.;.$.$.;.%.,.=.=.=.=.$.;.=.=.=.=.",
"=.=.;.=.=.=.=.=.=.=.=.*.;.=.;.$ $ 6.6.o.o.5 5 m.n.m.m.= - m.m.z.q 9 V.V.m.m.$ $ { { l l i q =.=.u.<.=.=.=.=.=.=.=.%.=.=.=.=.=.",
"=.=.;.%.=.=.=.=.=.=.=.*.%.=.=.$ $ 6.6.o.o.5 5 n.m.b.m.- = m.b.z.3 q V.V.m.m.$ . { ] l l 5 5 =.=.s.u.-.m N =.=.=.=.%.%.=.=.=.=.",
"=.=.=.=.=.=.=.=.=.=.=.%.%.>.=.O * ] { q.q.( / N.N.C.C.v.v.n.n.m.v.v.x.x.b.v.W _ [ ] g g &   ,.u.>.>.=.=.<.=.=.=.=.%.%.=.=.=.=.",
"=.=.;.;.=.=.=.=.=.=.=.%.%.=.=.* * | | q.q.! ( m.N.C.C.v.v.n.n.C.z.c.x.x.v.v.^ ^ ] [ l g & & ,.,.>.N <.=.<.=.=.=.=.=.;.>.=.=.=.",
"=.=.;.;.=.=.=.=.=.;.;.Z B Z Z *.2.  * { | 0.7.E E I E ( ( ! ~ T _ _ ~ ~ U U [ X.j j , 8 -.:.>.=.;.;.@.-.#.t.>.=.=.%.%.=.=.=.<.",
"=.=.;.%.=.=.=.=.=.=.=.>.>.$.%.=.=.i.A 8 q & & k k  . .O.O.9.9.+.5.O.....f g 5 4 X + u.p.m m ;.;.%.;.=.<.<.=.<.=.=.=.=.=.>.=.=.",
"=.=.=.;.=.=.=.=.=.=.=.>.>.$.:.=.=.A A 8 q & & k k  . .O.O.9.9.8.O.5.....g g 5 4 + X u.u.m m ;.;.%.%.;.;.<.=.=.=.=.=.=.=.=.=.=.",
"=.=.;.$.=.=.=.=.;.;.>.p.p.m $.,.,.' ' %.#.p p $ . u u @ @ t t ; : : 6 3 X X : : 1 = 6 6 1.1.-.$.m m ;.$.-.=.=.=.=.=.=.=.=.=.=.",
"=.=.;.;.=.=.=.=.;.;.Z t.t.m m ,.,.' ' #.#.p p . . u u @ @ p t % % : 6 3   , 1 : = - 6 - 1.1.$.M m m ;.;.,.=.=.=.=.=.=.=.=.=.=.",
"=.=.%.;.=.=.=.=.=.=.=.:.-.B M %.#.w w = & J.H.F.F.L.L.~.~.I.I.P.D.D.D.D.+ + ~ ^ ).).L L ; X <.<.%.:.m m =.:.,.=.=.;.%.=.=.=.=.",
"=.=.=.;.=.=.=.=.=.=.<.-.:.-.,.#.%.i w < = J.J.F.F.L.L.~.~.I.I.P.A.D.D.D.+ + ~ ~ ).).L L . . 3.3.4.;.M m =.=.1.=.=.%.;.=.=.=.=.",
"=.=.;.%.:.-.=.=.=.=.>.$.=.1.1.3 3 (.(.K.K.o > A.F././.E.E.!.!.Y.P.P.D.S.+ i ~ ~ ) ! G.G.; . =.=.N N :.:.3.$.$.=.=.%.$.=.>.=.=.",
"=.=.;.=.-.=.=.=.=.=.>.=.$.y.a.3 3 (.(.Q.K., , F.A././.E.E.!.!.Y.P.P.F.S.i i T / ) ! G.( . ; =.=.N >.:.:.;.=.$.=.=.;.%.=.=.<.=.",
"=.=.%.=.-.=.=.=.=.=.;.$.v N M 0 0 ~ ~ R W 9 q a a d d a a B.M.m.d d s s t t D D ( ( K K r r <.<.%.$.<.3.,.=.=.=.=.%.;.=.=.=.=.",
"=.=.;.;.-.:.=.=.;.=.;.c v N >.o + ~ ~ W W 8 8 a a d d a a B.B.b.d p s s t t D D ( ) K K r r <.<.%.;.3.u.-.$.=.=.=.%.$.=.>.=.=.",
"=.=.$.;.=.:.=.=.;.=.%.=.;.$.=.$.@.< < 5 5 $ % 1 : : = W.W.R.!.U.P.P.A.F.F.F., o ; $ 9 3 2.;.z z S S 2.;.=.1.:.=.=.;.%.=.=.=.=.",
"=.=.;.=.-.$.=.=.;.;.#.;.;.$.=.@.$.9 < 5 5 % % - 1 : % W.W.R.Y.U.P.P.F.F.F.F., X ; : 9 9 2.;.z z S S <.1.v -.:.=.=.$.=.=.=.<.=.",
"=.=.;.=.:.-.=.=.=.=.n p.p.#.&.t.t.i.i.:.:., < K.K.Q.Q.f.f.T.T.I.S.F.A.A.D.D.8 q u.u.x c s.y.4.3.-.1.,.S =.$.=.=.=.=.=.=.=.=.=.",
"=.=.;.%.=.:.=.=.=.<.n p.p.#.#.t.t.i.i.-.:.9 , K.K.K.Q.f.i.E.T.I.F.A.A.A.D.D.q q u.<.x c s.s.2.<.,.-.B B ;.:.=.=.=.=.=.<.=.=.=.",
"=.=.=.=.=.=.=.=.=.;.#.;.<.S S =.=.$.;.%.$.: : l.l.J.J.h.h.S.S.F.k.k.k.k.g.g.% % -.-.=.>.c x =.%.>.=.=.=.1.=.=.=.=.=.=.=.<.=.=.",
"=.=.=.=.=.=.=.=.=.;.#.3.;.V S =.=.:.$.$.%.: : l.l.J.J.h.h.S.S.D.k.k.k.k.g.g.% $ :.-.=.=.x c %.=.=.=.=.=.1.;.=.=.=.=.=.=.>.=.=.",
"$.$.=.=.=.=.=.=.=.=.=.=.=.;.%.-.-.3.<.>.>.o o ~ ~ ^ ^ F F : : i J.H.j.j.f.f.1 - =.<.=.;.-.$.=.=.<.3.>.>.m 1.1.=.=.=.=.:.,.=.=.",
"$.=.=.=.=.=.=.=.=.=.=.=.;.;.$.-.-.<.<.>.N o o E ~ ^ ^ F F : : 5 H.H.j.j.f.f.- - <.=.=.$.v -.=.=.s.s.>.=.m 1.,.=.=.=.=.1.:.=.=.",
":.:.>.=.=.=.=.=.=.=.=.N -.V -.:.;.=.m >.,.% # P P / / P P < < 4 ^.^.~ _ J J < * =.=.1.1.=.$.-.:.n n =.<.<.v m =.=.=.=.=.=.=.=.",
":.=.=.=.=.=.=.=.=.=.=.-.m V V :.=.$.$.=.:.# % P P / / P P < < 4 ^.^.Q Q J J 8 8 =.=.1.1.$.=.,.-.n n ;.<.<.=.=.=.=.=.=.=.=.=.=.",
"=.=.=.=.=.=.<.=.=.=.$.2.;.$.$.;.%.4.1.:.=.=.=.; ; 9 9 O O , , 9 G.( _ Y G G 3 8 <.u.z z 2.*.@.@.%.*.2.;.%.$.$.=.=.=.=.=.=.=.=.",
"=.=.=.=.=.=.=.=.=.=.=.m =.<.<.<.=.b b 1 < 9 9 * * $ $ t t $ ; $ &   Y U H H * = = 3 p.p.:.1.=.=.=.m ,.>.>.=.=.=.=.=.=.=.=.=.=.",
"=.=.=.=.=.=.=.=.=.=.>.=.m <.<.=.<.b b < < 9 9 * * $ % 7 t , ; ; & O Y Y H H , * 3 = p.i.>.,.=.=.=.m >.B =.=.=.=.=.=.=.=.=.=.=.",
"=.=.=.=.=.=.=.=.=.=.=.3.<.m m s.s.. . < <     7 6 9 9     w w 3 8 8 X X $ $ 6 6 % = < ; =.>.;.;.$.-.=.=.=.=.=.=.=.=.=.=.=.=.=.",
"=.=.=.=.=.=.=.=.=.=.=.3.3.m m s.s.. . 9 <     7 7 9 9     w w 6 8 8 X X % $ 6 6 - = < ; =.=.=.=.M -.=.=.<.=.=.=.=.=.=.=.=.=.=.",
"=.=.=.=.=.=.=.=.=.=.=.;.$.m m =.=.y.y.1 - , < * 8 3 * = = * & O 8 8 e e 5 5 8 O > , M n ;.<.;.3.c n -.:.=.=.=.=.=.=.=.=.=.=.=.",
"=.=.=.=.=.=.=.=.=.=.=.;.;.-.m <.=.y.y.- - , , , * 3 3 = = & * O 8 8 e e 5 5 8 + , > M M =.;.2.2.n c =.-.<.;.=.=.=.=.=.=.=.=.=.",
"=.=.=.=.=.=.=.=.=.=.=.=.=.4.4.2.<.v c <.<.N =.y.1.;.;.%.;.<.<.=.%.$.$.v =.=.=.=.=.=.=.>.=.=.=.=.=.=.=.=.=.=.=.=.=.=.=.=.=.=.=.",
"=.=.=.=.;.<.=.=.=.=.=.=.=.4.4.3.;.v m <.<.m m t.t.;.;.%.;.3.3.<.%.#.$.v =.=.=.=.=.=.=.=.=.=.=.=.=.;.=.=.=.=.=.=.=.=.=.=.=.=.=.",
"=.=.=.=.=.=.=.=.=.=.=.=.=.=.=.=.=.=.=.=.=.=.=.=.=.=.=.=.=.=.=.=.=.=.=.=.=.=.=.=.=.=.=.=.=.=.=.<.=.=.=.=.=.=.=.=.=.=.=.=.=.=.=.",
"=.=.=.=.=.=.=.=.=.=.=.=.=.=.=.=.=.=.=.=.=.=.=.=.=.=.=.=.=.=.=.=.=.=.=.=.=.=.=.=.=.=.=.=.=.=.=.=.=.=.=.=.=.=.=.=.=.=.=.=.=.=.=."
};
