/* XPM */
static char *result[] = {
/* columns rows colors chars-per-pixel */
"63 63 185 2 ",
"   c #090F0B",
".  c #180800",
"X  c #14040F",
"o  c #1D0B0B",
"O  c #1E1601",
"+  c #191C00",
"@  c #17140D",
"#  c #1B110E",
"$  c #1E1B0E",
"%  c #1F0715",
"&  c #1F0F19",
"*  c #171214",
"=  c #1C1914",
"-  c #230B03",
";  c #2B0C02",
":  c #250609",
">  c #29030E",
",  c #230D0C",
"<  c #2A0C0C",
"1  c #320A02",
"2  c #33030C",
"3  c #330D0B",
"4  c #241303",
"5  c #2E1305",
"6  c #25110B",
"7  c #28130E",
"8  c #281A0D",
"9  c #321505",
"0  c #33120B",
"q  c #361C0F",
"w  c #230E13",
"e  c #2B0E13",
"r  c #2C0819",
"t  c #2D0D1C",
"y  c #320C13",
"u  c #3C0C1C",
"i  c #221015",
"p  c #2C1114",
"a  c #231D12",
"s  c #221519",
"d  c #2B161C",
"f  c #2B1B1D",
"g  c #331414",
"h  c #321816",
"j  c #3B0820",
"k  c #271223",
"l  c #331625",
"z  c #1F2120",
"x  c #1D2E28",
"c  c #282924",
"v  c #263321",
"b  c #2A2C39",
"n  c #116A00",
"m  c #1C6E00",
"M  c #1C7304",
"N  c #2A6B07",
"B  c #217505",
"V  c #246F1A",
"C  c #077B2C",
"Z  c #0B7B2F",
"A  c #037D34",
"S  c #027B3A",
"D  c #0B7F38",
"F  c #B6141D",
"G  c #AB1325",
"H  c #A91928",
"J  c #B9162C",
"K  c #962134",
"L  c #DF3C5B",
"P  c #FD2B5A",
"I  c #F23F5F",
"U  c #FD3B5B",
"Y  c #FF2F62",
"T  c #F52D6C",
"R  c #EC3965",
"E  c #EF3F6D",
"W  c #FC3663",
"Q  c #F43C64",
"!  c #F73768",
"~  c #FE356B",
"^  c #F73B6A",
"/  c #F23573",
"(  c #FD3274",
")  c #FF3970",
"_  c #F43C78",
"`  c #F74054",
"'  c #F24266",
"]  c #F84272",
"[  c #1C9608",
"{  c #258A00",
"}  c #2C8D03",
"|  c #2F8808",
" . c #328C00",
".. c #388F04",
"X. c #388A0E",
"o. c #259300",
"O. c #2D9301",
"+. c #2B9B00",
"@. c #359302",
"#. c #379403",
"$. c #2FBE00",
"%. c #3AB907",
"&. c #3CBD05",
"*. c #018226",
"=. c #058A24",
"-. c #00842C",
";. c #0D832D",
":. c #028A2C",
">. c #00922C",
",. c #018635",
"<. c #0B8334",
"1. c #008A34",
"2. c #088C32",
"3. c #02843A",
"4. c #0A823C",
"5. c #018A3A",
"6. c #0A8B39",
"7. c #029034",
"8. c #0A9133",
"9. c #00903C",
"0. c #46B800",
"q. c #36C200",
"w. c #3AC300",
"e. c #33CB02",
"r. c #39CF00",
"t. c #33C30A",
"y. c #36C110",
"u. c #3EFD00",
"i. c #48C600",
"p. c #45C70B",
"a. c #40CB0A",
"s. c #48FF00",
"d. c #68FC06",
"f. c #028341",
"g. c #0D8344",
"h. c #038C43",
"j. c #0A854B",
"k. c #078C49",
"l. c #118D44",
"z. c #009545",
"x. c #0B915C",
"c. c #029962",
"v. c #02926D",
"b. c #0DB869",
"n. c #01C254",
"m. c #00C758",
"M. c #01C463",
"N. c #F9AB00",
"B. c #E6BB00",
"V. c #EDBF09",
"C. c #F3B301",
"Z. c #FDB401",
"A. c #F3BD01",
"S. c #FFBB02",
"D. c #FABB0E",
"F. c #FFBE13",
"G. c #E5C300",
"H. c #FCC200",
"J. c #F7C00E",
"K. c #005FDD",
"L. c #006AD0",
"P. c #0065DE",
"I. c #0171D3",
"U. c #0A65EA",
"Y. c #1264ED",
"T. c #0074E0",
"R. c #0668F1",
"E. c #69FDA5",
"W. c #79FFB6",
"Q. c #359FE9",
"!. c #2E97F2",
"~. c #3896F6",
"^. c #3C9DF5",
"/. c #27A3F1",
"(. c #33A1FF",
"). c #3BA1FD",
"_. c #78BADC",
"`. c #52B7FF",
"'. c #5BBDFF",
"]. c #73FEC3",
"[. c #57C1FB",
"{. c #90FDBC",
"}. c #F39AC6",
"|. c #FF9FDA",
" X c #F5AACB",
/* pixels */
",.,.,.,.,.,.,.,.,.,.,.5.,.,.,.,.,.,.,.,.,.,.,.,.,.,.5.,.,.,.,.,.,.,.,.,.,.,.,.,.,.,.,.,.5.,.,.,.,.,.,.,.,.,.,.,.,.,.,.,.,.,.,.",
",.,.,.,.,.,.,.,.,.,.,.,.,.,.,.,.,.,.,.,.,.,.,.,.,.,.,.,.,.,.,.,.,.,.,.,.,.,.,.,.,.,.,.,.1.5.,.,.,.,.,.,.,.,.,.,.,.5.,.,.,.,.,.",
"1.1.,.,.,.,.,.,.,.,.,.,.,.,.,.,.,.<.,.,.,.,.,.,.,.,.,.,.,.,.,.,.,.,.,.5.,.,.,.,.,.,.,.,.-.-.:.-.,.,.,.,.,.,.,.,.,.-.,.,.,.,.,.",
",.1.,.,.,.,.,.,.,.,.,.,.,.,.,.,.,.:.2.,.,.,.,.,.,.,.,.,.,.,.,.,.,.,.,.,.,.,.,.,.,.,.,.,.-.-.:.-.,.,.,.,.5.,.,.,.5.-.,.:.2.,.,.",
",.1.,.,.,.,.,.,.,.,.,.,.,.,.,.,.,.,.,.,.,.,.,.,.,.,.,.,.,.,.,.,.,.,.,.,.,.,.,.,.,.,.,.,.,.,.,.,.,.,.,.,.,.,.,.,.,.,.1.,.,.,.,.",
"1.5.,.,.,.,.,.,.,.,.,.,.,.,.,.,.,.,.,.,.,.,.,.,.,.,.,.,.,.,.5.,.,.,.,.,.,.,.,.,.,.,.,.,.,.,.,.,.,.,.,.,.,.,.,.,.,.1.,.,.,.,.,.",
",.1.,.,.,.,.,.,.5.,.,.,.,.,.,.,.,.,.,.,.,.,.,.,.,.,.,.,.,.,.,.,.,.,.,.,.,.,.,.,.,.,.,.,.,.,.,.,.,.,.,.,.,.,.,.,.,.-.,.,.,.,.,.",
"1.,.,.,.,.,.,.,.,.,.,.,.,.,.,.,.,.,.,.,.,.,.,.,.,.,.,.,.,.,.,.,.,.,.,.,.,.,.,.,.,.,.,.,.5.,.,.,.,.,.,.,.,.,.,.,.5.-.,.2.,.,.,.",
"-.1.,.,.,.,.,.,.,.,.,.,.,.,.,.,.,.,.,.,.,.,.,.,.5.,.,.-.-.5.5.3.f.f.,.,.,.,.,.,.,.,.,.,.,.,.,.,.,.,.,.,.,.,.,.,.,.5.1.,.2.,.,.",
"1.1.,.,.,.,.,.,.,.,.,.,.,.,.5.,.,.,.,.,.,.,.,.,.,.,.,.-.-.5.5.S 3.5.,.,.,.,.,.5.,.,.,.5.,.,.,.,.,.,.,.,.,.,.,.,.,.,.1.,.,.,.,.",
",.1.,.,.,.,.,.,.,.,.,.,.,.,.,.,.,.,.,.,.,.,.,.Z Z 2.8.:.:.; ; e 5 0 3.3.6.4.7.7.*.C *.*.,.,.,.,.,.,.,.,.,.,.,.,.,.1.,.,.,.,.,.",
"1.,.,.,.,.,.,.,.,.,.,.,.,.,.,.,.,.,.,.,.,.g.g.,.,.3.3.w w  X X( H H . - h.h.*.*.>.>.f.f.j.j.,.,.,.,.,.,.,.,.,.,.,.1.-.,.,.,.,.",
"1.,.,.,.,.,.,.,.,.,.,.,.,.,.,.,.,.,.,.,.,.g.g.2.-.3.A w w  X X( H K - - h.h.*.*.>.>.5.f.j.j.,.,.,.,.,.,.,.,.5.,.,.-.,.,.2.,.,.",
"1.-.,.,.,.,.,.,.,.,.,.,.,.,.,.,.,.,.,.A ,.j.g.3 3 @ @ e < w # t j j r t t p f.5.Z Z 5.3.3.5.,.,.,.,.,.,.,.,.,.,.,.1.1.,.,.,.,.",
"1.1.,.,.,.,.,.,.,.,.,.,.5.,.,.,.,.,.,.,.-.g.j.g 0 @ @ e < w i d j j r t i p ,.h.Z Z 3.f.5.5.,.-.,.,.,.,.,.,.,.,.,.,.-.,.,.,.,.",
"1.,.,.,.,.,.,.,.,.,.,.,.,.,.,.,.,.,.,.7 7 5 5 n n @.@.@. .} { O.o.} O.O.m B 4 < e e 4.4.:.-.-.,.,.,.,.,.,.,.,.,.,.,.1.,.,.,.,.",
"1.5.,.,.,.,.,.,.,.,.,.,.,.,.,.,.,.,.,.7 7 5 5 n n @.@.@.@.} } @.o.o.O.O.M M 4 ; p i 4.4.-.2.,.-.,.,.,.,.,.,.,.,.,.,.-.,.,.5.,.",
"1.,.,.,.,.,.,.,.,.,.,.,.,.1.5.f.3.e p } } q.q.e.e.t.t.0.0.y.a.$.y.y. . ...X.} } m m g y f.g.1.,.,.,.,.,.,.,.,.,.,.,.1.,.,.,.,.",
",.1.,.,.,.,.,.,.,.,.,.,.,.5.5.3.f.p e } | q.$.e.e.t.t.0.0.a.a.%.%.y. . .....} } m m u g 4.f.,.5.,.,.,.,.,.,.,.,.,.-.-.5.,.,.,.",
",.,.,.,.,.,.,.,.,.,.,.7.>.A A 4 4 o.o.$.$.d.d.u.u.s.s.q.w.%.%.a.w.$.r.r. . .[ [ O. .m m # @ ;.;.,.,.,.,.,.,.,.,.,.1.,.,.,.,.,.",
",.,.,.,.,.,.,.,.,.,.,.7.2.,.A 5 4 o.o.$.$.d.d.u.u.s.s.w.w.%.%.p.q.&.r.r. . .[ [ O. .B m o # ;.<.,.,.3.3.,.,.,.,.,.,.-.,.,.,.,.",
",.,.,.,.,.,.,.,.,.,.,.,.,.h.5., , q.t.p.p.W ! ~ ~ ~ ~ / / R R E Y Y Q Q ~ ( E E ....m m = = ,.,.,.5.3.3.,.,.,.,.,.1.1.,.,.,.,.",
",.,.,.,.,.,.,.,.,.,.,.,.,.5.5.6 7 &.q.p.p.R I ~ ~ ~ ~ / / R R R Y Y I Q ~ ( E E ....B m = = ,.,.,.,.,.,.,.,.,.,.,.1.,.,.,.,.,.",
",.,.,.,.,.,.,.,.,.,.,.-.,.3.3.e e %.%.w.q.! T o , p t J.D.Z.Z.C.F.F.    o o ) ^ } { V V e p ,.,.,.,.A ,.,.,.,.,.,.-.1.,.,.,.,.",
",.,.,.,.,.,.,.,.,.,.,.A -.3.4.e < %.%.$.q.^ ! , , e p J.J.Z.Z.C.F.F.    o o ) ) } o.V V e e 5.,.,.,.,.A ,.,.,.,.,.1.,.,.,.,.,.",
",.,.,.,.,.,.,.,.,.,.,.-.,.3.3.7 p e.e.0.0.k d A.H.S.S.- - C.C.S.2 2 S.H.S.S.& & X.X.B B ; ; f.f.,.,.3.,.,.,.,.,.,.-.,.,.1.,.,.",
",.,.,.,.,.,.,.,.,.,.,.-.A 4.4.i < e.e.0.0.s d A.A.A.S.- , C.C.Z.2 2 H.H.S.Z.s s X.X.M B ; ; f.f.,.,.3.,.,.,.,.,.,.1.-.,.,.,.,.",
",.,.,.,.,.,.,.,.,.,.,.,.-.h.5.6 7 t.t.i.i.r e C.C.N.N.u u S.S.C.t r S.Z.B.B.y y o.o.M M 4 4 4.g.,.,.3.,.,.,.,.,.,.,.1.,.,.,.,.",
",.,.,.,.,.,.,.,.,.,.,.,.,.5.h., 6 t.t.i.i.i e C.C.N.N.u u S.S.A.t t Z.S.B.B.y y o.o.M M 4 6 4.4.,.,.,.,.,.,.,.,.,.1.,.,.,.,.,.",
",.,.5.,.,.,.,.,.,.,.,.7.2.A ,.4 4 | | q.q.U U D.D.V.V.G.G.C.C.A.B.B.A.A.S.S.T T [ [ M M . : 8.9.,.,.3.,.,.,.,.,.,.1.-.5.,.,.,.",
",.,.,.,.,.,.,.,.,.,.,.>.7.A A 5 4 | | q.q.U I D.D.V.V.G.G.C.C.H.B.B.A.A.S.S.T T [ o.M M . - 7.7.,.,.3.3.,.,.,.,.,.-.,.,.,.,.,.",
",.,.,.,.,.,.,.,.,.,.,.-.-.5.,.f.f.w # +.+.0.&.( ( ! ! Q Q ~ ~ ( W W ^ ^ Q Q @.@.N N h g ,.,.4.A ,.,.3.,.,.,.,.,.,.,.,.,.,.,.,.",
",.,.,.,.,.,.,.,.,.,.,.2.,.A C 7.5.7.2.9 9 , < N N @.@.t.w.0.i.t.i.w.{ { M M 9 3 9 9 S S 4.6.,.-.,.,.3.3.,.,.,.,.,.-.,.1.2.,.,.",
",.,.,.,.,.,.,.,.3.5.,.,.,.C *.5.5.2.2.5 9 , w N N @.#.w.w.0.0.t.w.r.{ { M M 3 3 0 9 S S 6.6.,.A ,.,.,.,.,.,.,.,.,.,.,.,.,.,.,.",
",.,.,.,.,.,.,.,.,.,.,.,.,.5.,.,.,.2 y i w w w O + e e < < i d * : - l l j j + + f.f.f.f.>.>.<.<.,.,.,.3.,.,.,.,.,.,.-.2.,.,.,.",
",.,.,.,.,.,.,.,.,.,.3.,.,.5.,.3.3.r 2 w i w w + + e e < , t k * : , l l j j + + f.f.g.f.>.>.;.;.,.,.A ,.,.,.,.,.,.1.,.,.,.,.,.",
"5.,.,.,.,.,.,.,.,.,.,.2.5.A A 4 4 ^ ^ |.|.J J p p ~.~.[.'.(.(.^.T.T.L.L.U.K.m.m.3 0 k k *.*.*.:.,.,.3.,.,.,.,.,.,.-.-.,.,.,.,.",
",.,.,.,.,.,.,.,.,.,.,.2.2.A S 4 4 ^ ' |.|.J J d p ~.~.[.[.(.(.^.T.T.L.L.K.K.m.m.3 3 k k C *.:.:.,.,.3.,.,.,.,.,.,.1.1.,.6.,.,.",
",.,.,.,.,.,.,.,.,.,.,.5.5.k.k.$ $ I I P P _ E O O _._.[.[.'.'.Q././.U.Y.Y.Y.# # b.b.` ` s s f.k.,.,.,.3.,.,.,.,.,.,.-.,.,.,.,.",
",.,.,.,.,.,.5.,.,.,.,.5.1.g.k.a $ I I P P _ / O O _._.[.[.'.'.^././.Y.Y.Y.Y.o # b.b.` U s s h.g.,.,.3.,.,.,.,.,.,.,.1.1.2.,.,.",
",.,.,.,.,.,.,.,.,.,.3.5.5.S S 1 1 G G ] ] H H ; ; c c v v N.C.H.b b z = x x h d ^ / F F - , ,.5.,.,.,.3.,.,.,.,.,.,.,.2.,.,.5.",
",.,.,.,.,.,.,.,.,.,.3.,.5.A Z 1 2 H J _ ] G H ; ; c c v v Z.C.G.b b z c x x l f ^ / F F : : 3.5.,.,.,.3.,.,.,.,.,.1.-.,.,.,.,.",
",.,.,.,.,.,.,.,.,.5.,.Z Z z.k.h.h.< 5 o o q q R.R.'.'.`.`.[.[.^.Q.Q.t e : : 8 8 4 + 5 ; l.l.S D ,.,.,.,.,.,.,.,.,.,.,.,.,.,.,.",
",.,.,.,.,.,.,.,.,.,.,.Z Z z.z.k.h.5 ; o o q q R.R.`.'.`.`.[.[.^.Q.Q.e r ; : 8 8 4 4 4 4 l.l.D g.,.,.,.,.,.,.,.,.5.-.5.,.,.,.,.",
",.,.<.,.,.,.,.,.3.,.,.-.A ,.,.3.3.:.>.6.2.X X U.U.I.I.!.!.).).).W.W.{.{.v.v.w % 5.2.2.2.-.-.-.:.,.,.,.,.,.,.,.,.,.-.1.,.,.,.,.",
",.,.<.<.,.,.,.,.4.3.,.,.A 3.-.3.4.:.=.6.6.X X U.U.I.I.!.!.).^.).W.W.{.{.v.v.% % 2.2.2.2.-.-.*.:.,.,.,.,.,.,.,.,.,.,.,.,.,.,.,.",
",.,.,.,.,.,.,.,.,.,.,.2.2.,.,.,.-.,.,.3.S h h n.n.n.n.c.c.P.P., M.M.E.E.v.v.h 0 S S 4.4.;.<.5.,.,.,.,.,.,.,.,.,.,.1.-.5.,.,.,.",
",.,.,.,.,.,.,.,.3.5.1.5.2.1.,.;.,.5.,.S 3.h h n.n.m.n.c.c.P.P.7 M.M.E.E.v.v.0 h S S 4.4.;.2.5.5.,.,.,.,.,.5.,.,.,.-.,.,.,.,.,.",
",.,.,.,.,.,.,.,.,.,.,.,.,.,.,.,.,.C *.h.h.p < ].].M.M.x.x.t t 4 ) ) T Y K K 1 9 A 3.,.,.5.5.A ,.=.=.,.,.,.,.,.,.,.,.,.,.,.5.,.",
",.,.,.,.,.,.,.,.,.,.,.,.,.,.,.,.,.*.*.h.h.e p ].].M.M.x.x.t t . ) ) ~ ~ K K 1 1 3.3.,.5.9.h.,.3.=.=.,.,.,.,.,.,.,.,.,.,.,.,.,.",
"1.,.,.,.,.,.,.,.,.,.,.,.3.,.,.,.,.5.5.Z ;.8 7 }.}.^ Q F F 4 4 l H G W U H J 4 4 5.h.,.4.4.D <.4.A C ,.,.,.,.5.,.,.,.,.,.,.,.,.",
",.,.,.,.,.,.,.,.,.,.,.3.,.3.A 3.3.,.5.;.Z 7 7 }.}.^ ^ J F , 6 l G G W U J J 4 4 5.5.<.3.3.,.4.<.-.,.,.,.,.,.,.,.,.,.,.,.,.,.,.",
",.,.,.,.5.1.,.,.,.,.,.1.1.1.1.1.1.,.1.A -.# 6 _ _ ' ' G G 3 3 @ = = , o 5 < h.j.5.S -.1.*.;.=.=.-.-.,.,.,.,.,.,.,.,.,.,.,.,.,.",
",.,.,.,.,.,.,.,.,.,.,.3.3.3.A 3.3.;.,.a a 2 y ! W L L k f r > 0 , , e g 7 < i < < 3 k.k.3.,.7.7.9.9.,.,.,.,.,.,.,.,.,.,.,.,.,.",
",.,.,.,.,.5.,.,.,.,.,.4.A 3.4.3.A ;.A 8 8 y 2 ~ W L L f f > > 0 , , g p 7 e < p 7 3 h.h.,.A 5.5.9.9.,.,.,.,.,.,.,.,.,.,.,.,.,.",
",.,.,.,.,.,.,.,.,.,.,.,.,.,.,.,.5.@ a 3 y < < e e j u w d y y w e 3 7 , # # 3 2 a = . . 3.3.<.4.2.:.,.,.,.2.5.,.,.,.,.,.,.,.,.",
",.,.,.,.,.,.,.,.,.,.,.5.,.,.,.,.,.$ $ 2 y < < e 2 u u w r e y e < g < 7 a o 2 2 a = . . ,.3.4.D 2.2.,.,.,.5.2.,.,.,.,.,.,.,.,.",
",.,.,.1.1.-.,.,.,.,.,.,.-.,.2.1.,.5.f.6 6 < < d d % % ; ; 5 0 s i i s s > > h g , < g.g.6.5.,.,.,.,.,.,.,.,.,.,.,.,.,.,.,.,.,.",
",.,.-.1.5.,.,.,.,.,.,.-.:.,.1.-.1.f.f.6 7 < < d d o o ; ; 5 5 & i i s s > > g d ; 5 g.g.5.6.,.,.,.,.,.,.,.,.,.,.,.,.,.,.,.,.,.",
",.,.,.,.,.,.,.,.,.,.,.,.,.,.,.,.,.=.=.4.D 5.,.-.:.5.2.2.2.>.>.,.,.,.,.,.,.,.3.,.,.,.,.,.5.5.,.,.,.,.,.,.,.,.,.,.,.,.,.,.,.,.,.",
",.,.,.,.,.,.,.,.2.,.,.-.,.,.,.,.,.=.=.<.D ,.,.-.-.7.2.2.7.>.>.-.,.,.,.,.,.,.,.,.,.,.,.,.5.5.,.,.,.,.,.5.,.,.,.,.5.,.,.,.,.,.,.",
",.,.,.,.,.,.,.,.,.,.,.,.,.,.,.,.,.,.,.,.,.,.,.,.,.,.,.,.,.5.,.,.,.,.,.,.,.,.,.,.,.,.,.,.,.5.,.,.,.,.,.,.,.,.,.,.,.,.,.,.,.,.,.",
",.,.,.,.,.,.,.,.,.,.,.,.,.,.,.,.,.,.,.,.,.,.,.,.,.,.,.,.,.,.,.,.,.,.,.,.,.,.,.,.,.,.,.,.,.,.,.,.,.,.,.,.,.,.,.,.,.,.,.,.,.,.,."
};
