/* XPM */
static char *result[] = {
/* columns rows colors chars-per-pixel */
"63 63 180 2 ",
"   c #1B0B04",
".  c #160A0E",
"X  c #1B1302",
"o  c #161807",
"O  c #1C130D",
"+  c #1B0F11",
"@  c #190D1B",
"#  c #1E1414",
"$  c #181917",
"%  c #2D0506",
"&  c #250D04",
"*  c #290C04",
"=  c #24070B",
"-  c #2C050D",
";  c #250C0C",
":  c #2B0B0B",
">  c #340704",
",  c #340D0D",
"<  c #241304",
"1  c #291306",
"2  c #251807",
"3  c #24120B",
"4  c #331304",
"5  c #33150D",
"6  c #2A0514",
"7  c #220D15",
"8  c #2A0D12",
"9  c #26091B",
"0  c #290B1A",
"q  c #320612",
"w  c #340D14",
"e  c #320718",
"r  c #330A1C",
"t  c #241214",
"y  c #2B1114",
"u  c #251810",
"i  c #2A131C",
"p  c #341511",
"a  c #371419",
"s  c #17321F",
"d  c #20251F",
"f  c #1F0C2A",
"g  c #241222",
"h  c #301B22",
"j  c #2B272A",
"k  c #302521",
"l  c #1C6F00",
"z  c #1A7500",
"x  c #226F00",
"c  c #286F00",
"v  c #206C08",
"b  c #277404",
"n  c #30720E",
"m  c #276911",
"M  c #007F26",
"N  c #017C2C",
"B  c #0B7A28",
"V  c #107D2E",
"C  c #0B7733",
"Z  c #037D33",
"A  c #0C7B32",
"S  c #07783A",
"D  c #117D3A",
"F  c #B4141D",
"G  c #B8171C",
"H  c #AA1927",
"J  c #B11721",
"K  c #B30E30",
"L  c #B41335",
"P  c #C21F3E",
"I  c #EB375A",
"U  c #EC3A5D",
"Y  c #F63457",
"T  c #F4345D",
"R  c #FE345D",
"E  c #FF3A5F",
"W  c #EA3D69",
"Q  c #F43363",
"!  c #F53A66",
"~  c #FC3C63",
"^  c #FE366E",
"/  c #FD3C6A",
"(  c #EB3874",
")  c #FC3A73",
"_  c #F93C7A",
"`  c #F14366",
"'  c #FF436C",
"]  c #00831D",
"[  c #1D9112",
"{  c #238F01",
"}  c #2A8E00",
"|  c #2A8E0A",
" . c #318D01",
".. c #259303",
"X. c #2B9301",
"o. c #369506",
"O. c #348816",
"+. c #269110",
"@. c #3DBD01",
"#. c #008423",
"$. c #038B24",
"%. c #01842D",
"&. c #08832E",
"*. c #018A2C",
"=. c #098C2F",
"-. c #00902B",
";. c #018635",
":. c #0A8234",
">. c #008A34",
",. c #0A8A36",
"<. c #038339",
"1. c #0B843A",
"2. c #018B3A",
"3. c #098A3B",
"4. c #138938",
"5. c #009032",
"6. c #00903B",
"7. c #08933A",
"8. c #429000",
"9. c #47B904",
"0. c #2BC603",
"q. c #23CA00",
"w. c #32C301",
"e. c #3CC200",
"r. c #3CC902",
"t. c #39C30A",
"y. c #39C117",
"u. c #3AFF00",
"i. c #44C304",
"p. c #4CFB05",
"a. c #028443",
"s. c #0A8541",
"d. c #018C43",
"f. c #0D8C44",
"g. c #0A834B",
"h. c #018C4B",
"j. c #138447",
"k. c #009545",
"l. c #008F50",
"z. c #158650",
"x. c #0C8E6C",
"c. c #00966F",
"v. c #008C72",
"b. c #07C357",
"n. c #09C367",
"m. c #F5AB00",
"M. c #FAAF01",
"N. c #EEBF00",
"B. c #F5B600",
"V. c #FDB401",
"C. c #F4BB01",
"Z. c #FCBD01",
"A. c #FFB30B",
"S. c #EBBA15",
"D. c #FAC408",
"F. c #006CD6",
"G. c #0367DB",
"H. c #0065E7",
"J. c #0769E7",
"K. c #006FEE",
"L. c #0860F6",
"P. c #056CF7",
"I. c #76F7AA",
"U. c #74FFB4",
"Y. c #339CE8",
"T. c #3A9BFC",
"R. c #2CA7F1",
"E. c #38A5FA",
"W. c #41A5FF",
"Q. c #54BCFE",
"!. c #3CC2DF",
"~. c #71FFC4",
"^. c #4EC3EE",
"/. c #63C3FF",
"(. c #E6A5BB",
"). c #88AFD8",
"_. c #D7ACC8",
"`. c #EDA6D2",
"'. c #E1A3F6",
"]. c #83FAC4",
/* pixels */
";.;.;.;.;.;.;.;.;.;.;.;.;.;.;.;.;.;.;.;.;.;.;.2.;.;.;.;.;.;.;.;.;.;.;.;.;.;.;.;.;.;.;.;.;.;.;.;.;.;.;.;.;.;.;.;.;.,.1.1.:.;.;.",
";.;.;.;.;.;.;.;.;.2.;.;.;.;.;.;.;.;.;.;.;.;.;.;.;.;.;.;.;.;.;.2.;.;.;.;.;.;.;.;.;.;.;.2.;.;.;.;.;.;.;.;.;.;.;.;.;.2.1.,.:.;.;.",
";.;.>.%.;.;.;.;.;.;.;.;.;.<.;.;.;.;.;.;.;.;.;.;.;.;.;.;.;.;.;.;.;.;.;.;.2.;.;.;.;.;.;.;.;.2.;.;.;.;.;.;.;.;.;.;.;.;.;.>.;.;.;.",
";.;.>.;.2.;.;.;.;.;.;.;.;.2.;.;.;.;.;.;.;.;.;.;.;.;.;.;.;.;.;.;.;.;.;.;.;.;.;.;.;.;.;.;.;.;.;.;.2.<.;.;.;.;.;.;.;.;.;.>.;.;.;.",
";.>.>.%.;.;.;.;.;.;.;.;.;.;.;.;.;.2.;.>.>.>.>.2.;.&.:.*.>.2.;.>.1.4.A A M M $.$.;.;.;.;.;.;.;.;.;.;.;.;.;.;.;.;.;.;.;.;.>.;.;.",
";.;.;.;.;.;.;.;.;.;.;.;.;.;.;.;.;.;.;.>.*.>.;.;.;.:.&.*.*.2.;.>.1.1.:.:.] #.$.&.;.;.;.;.;.;.;.;.;.;.;.;.2.<.;.;.;.;.;.;.;.;.;.",
";.>.>.>.;.;.;.;.;.;.;.;.;.;.;.;.;.<.2.3.3.N N %.&.7.7.>.;.,.,.%.%.=.&.$.<.2.a.a.a.a.;.;.;.;.;.;.2.;.;.;.;.;.;.;.;.;.;.>.>.;.;.",
">.:.;.;.;.;.;.;.;.;.;.;.;.;.;.;.;.2.<.s.3.;.;.N Z 7.7.>.>.,.,.*.$.=.%.&.2.<.a.a.S <.;.;.;.;.;.;.;.;.;.;.;.;.;.;.;.;.;.>.;.;.;.",
";.>.;.%.;.;.;.;.;.;.;.;.;.;.;.&.:.>.2.A A ,.<.2.2.;.Z C C ;.%.g.a.a.;.;.>.5.2.<.6.>.] ] ;.;.;.;.;.;.;.;.;.;.;.;.;.;.;.;.>.;.;.",
">.:.;.>.;.;.;.;.;.;.;.;.;.;.;.;.;.2.>.N Z ;.:.2.2.N ;.A C %.%.g.a.a.;.2.5.>.;.;.>.>.] ] ;.;.;.2.;.;.;.;.;.;.;.;.2.;.;.;.;.;.;.",
">.;.*.;.;.;.;.;.;.;.<.;.;.&.B >.,.5.>.D D 2.2.>.*.,.,.*.-.0 0 7 1 u 1.1.N Z Z <.d.2.j.j.;.;.;.;.;.;.;.;.;.;.;.;.;.;.;.;.>.;.;.",
";.>.%.;.;.;.;.;.;.;.;.;.2.a.a.d.d.;.;.V V 3.,.<.<.a.a.: : `.`.~ G G & & h.h.;.>.$.-.V A ;.;.;.;.;.;.<.2.;.;.;.;.;.;.;.;.>.;.;.",
";.:.;.;.;.;.;.;.;.;.;.;.;.a.g.d.d.%.;.V A 3.3.<.<.a.a.: : `.`.~ G G 1 * h.h.;.2.$.-.V V ;.;.;.;.;.;.;.;.;.;.;.;.2.;.;.;.>.;.;.",
">.>.*.;.;.;.<.<.;.;.<.;.;.2.2.5.>.>.>.;.>.;.;.5 p = ; i i 0 9 o $ o : - y y ;.<.>.,.;.;.;.;.;.;.;.;.;.;.;.;.;.;.;.;.;.;.;.;.;.",
";.;.>.>.;.;.<.<.;.;.;.;.;.2.<.>.>.>.;.>.>.2.2.p 5 ; ; i i 0 0 o O $ 6 : y y ;.2.;.:.2.;.;.;.;.;.;.;.;.;.;.;.;.;.;.;.;.;.;.;.;.",
":.>.;.%.;.;.<.<.;.;.<.;.;.:.&.C C h.d.< < < < m m ....X.} } | o.} X.X.X.v v 4 > 3 7 2.2.;.;.;.;.;.;.;.;.2.<.;.;.;.;.;.;.;.;.;.",
">.;.;.;.;.;.<.<.;.;.;.;.;.&.&.C C d.h.< < < < v m | ..X.X.} } o.} } X.X.v v 4 > 7 3 2.2.;.;.;.;.;.;.;.;.;.;.;.;.;.;.;.>.;.;.2.",
";.>.%.*.;.;.1.<.;.;.Z ;.;.2.;.<.<.< < | | i.i.w.w.r.r.9.9.9.9.0.e.e.X.X. . .[ [ z z r r s.s.;.2.%.%.;.<.;.;.;.;.;.;.;.;.;.;.;.",
";.:.;.;.;.;.<.<.;.;.;.;.;.;.;.<.<.< < | +.i.i.w.w.r.r.9.9.9.9.q.e.e.X.|  . .+.[ z z 0 r <.s.;.2.%.%.;.;.;.;.;.;.2.;.;.;.;.;.;.",
">.>.;.;.;.;.<.S ;.;.;.;.;.;.%.g g  . .@.@.p.p.p.p.u.u.y.y.e.e.i.t.t.w.w.X.X.8.8...{ c c < < <.Z 5.>.2.2.s.;.;.;.;.;.;.;.;.;.;.",
";.>.;.;.;.;.<.<.;.;.2.<.;.&.%.g g  .X.@.@.p.p.p.p.u.u.@.y.e.w.i.t.w.w.w.} } 8.8.{ { c c 2 < A Z 5.5.;.;.2.;.;.;.;.;.;.;.;.;.;.",
":.>.>.%.;.;.<.<.;.;.<.;.;.;.<.3 # r.t.e.e.( ( ^ ) ' ' I U _ _ W Q Q ~ ~ ^ ^ T I o. .x x 3 ; 2.d.;.;.A A :.;.;.;.;.;.;.;.;.;.;.",
";.>.;.*.;.;.<.<.;.;.;.;.;.,.;.t O r.r.e.t.( ( ^ ^ ) ' I I _ _ U Q Q ~ ~ ^ ^ I T  .o.x l ; 3 d.d.%.;.N C <.;.;.;.;.;.;.;.;.;.;.",
";.;.;.;.;.<.<.Z ;.;.;.;.;.>.>.6 6 i.e.@.e./ ) 7 9     Z.Z.M.M.V.D.D.6 6 @ @ ' ' X...z z 3 : 3.<.%.%.2.6.;.;.*.2.;.;.;.;.;.;.;.",
";.,.>.;.;.;.;.<.;.;.;.;.;.;.>.6 6 i.e.@.@./ / 7 7     Z.Z.V.M.V.D.D.7 0 @ @ ' ' ....z z ; 8 <.s.%.;.6.2.>.%.%.;.;.;.;.>.;.;.;.",
"%.;.%.;.;.;.;.;.>.>.;.;.;.s.3.p 5 q.q.@.i.8 8 Z.Z.C.C.7 0 C.C.C.3 < B.B.C.C.. . O.O.n n 8 8 s.<.%.N >.6.;.%.*.;.;.;.;.>.>.;.;.",
">.>.>.>.;.;.;.;.>.>.;.;.;.s.s.p p q.q.i.@.8 8 Z.Z.B.C.7 t C.C.D.; ; B.B.C.Z.. . O.O.n n y : ,.<.;.N 2.2.;.*.%.;.;.;.;.;.;.;.;.",
";.:.;.%.;.;.;.;.>.>.<.;.;.:.:.    0.q.i.r.q q S.S.A.A.i i V.V.C.=   Z.Z.D.D.y i } } l l 3 3 d.d.%.;.A A <.>.>.;.;.;.;.;.>.;.;.",
";.;.;.;.;.;.;.;.>.>.;.;.;.:.A     0.0.r.i.w , S.S.A.A.i i V.V.Z.+ = C.Z.D.D.p 8 } } l l ; 3 d.3.;.;.A C :.>.>.;.;.;.;.;.2.;.;.",
">.>.%.>.;.;.;.;.>.>.;.;.;.5.5.; : o.o.0.0.T R V.V.V.B.C.Z.B.B.A.A.C.V.Z.m.m.^ ^ ....n v < < Z Z 5.>.;.2.2.;.*.;.;.;.;.;.;.;.;.",
";.:.;.>.;.;.;.;.>.>.<.;.;.5.5.: : o.o.0.0.T R B.V.V.A.C.C.B.B.B.C.C.V.V.m.m.^ ^ ....b m & < Z Z 5.5.2.;.3.*.%.;.2.;.;.;.;.;.;.",
">.>.;.;.;.;.;.;.;.;.;.;.;.2.;.s.1.: 5 X.{ t.t.( ( _ ' Q Q ` ! ^ ! ( U U ^ ^ | | { z 0 0 3.a.>.>.%.%.;.;.1.>.>.;.;.;.;.;.;.;.;.",
";.;.>.;.;.;.<.<.;.;.<.;.;.a.s.>.>.1.1.% % y y c c +.+.e.w.@.0.t.w.w. . .b b u t 1 1 :.;.;.>.N N >.,.2.2.;.;.;.3.3.;.;.;.;.;.;.",
":.>.>.%.;.;.<.<.>.>.;.;.;.s.a.*.>.1.1.- % 8 8 c c +.+.w.0.@.@.t.e.e. . .b b u t 1 & Z <.2.7.N N ;.:.6.>.Z 2.<.3.3.;.;.;.;.;.;.",
";.;.;.%.;.;.<.<.>.>.;.;.;.#.#.2.2.;.*.3.7.7 7 + + ; 3 a a 8 7 4     : 3 , q y 7 f f 5 5 <.;.2.2.;.;.;.;.;.s.<.;.;.;.;.;.;.;.;.",
";.>.;.>.;.;.Z 1.>.>.;.;.;.#.#.2.2.*.$.7.3.7 @ 7 7 & * a a y 7 4     1 1 8 , t t f f 5 , ;.;.2.>.;.:.;.;.2.3.1.<.<.;.;.;.;.;.;.",
">.:.>.;.;.;.Z <.>.;.;.;.;.1.1.2.2.q q * & ~.~.J.G.W.W.!.!.Y.R.R.K.K.K.P., - Y Y _._.F F < < Z S >.>.2.;.1.D :.Z ;.;.;.;.;.;.;.",
";.>.%.;.;.;.<.<.>.;.<.;.;.1.1.2.2., q * 1 ~.~.G.G.W.W.!.!.Y.Y.R.K.K.L.L., , Y T _._.F F < < Z Z 6.>.,.,.1.:.1.N N ;.;.;.;.;.;.",
";.;.*.>.;.;.<.<.>.>.;.;.;.%.&.6 6 '.'.I.I.o O J.J.).)././.Q.Q.T.T.T.G.G.  X ) ' Q ^ E E u u g.f.2.;.*.*.*.4.4.;.;.;.;.;.2.;.;.",
",.;.;.%.;.;.<.<.>.>.;.;.;.$.&.q 6 '.'.I.I.O $ H.J.).)././.Q./.T.T.T.G.G.X X ) ) ^ ^ ~ ~ o o f.g.2.;.;.%.;.4.4.;.;.;.;.;.;.;.;.",
";.;.;.;.<.;.<.<.>.>.<.;.;.<.<.3 3 / ~ ~ / 5 5 h j k k d d N.C.V.s s j j = = J J W ! K K = % S S 2.;.2.7.%.A 1.;.>.>.2.;.;.;.;.",
";.;.;.;.;.;.1.<.>.>.;.;.;.2.;.3 1 / ^ / / p p k j k k d d N.D.B.s s j j : - G F ! ! L L % % S S <.:.7.2.%.A :.;.;.2.;.;.;.;.;.",
";.;.;.;.;.;.<.Z >.>.;.;.;.*.*.;.;.7 t   o e e O   h h ^.^.Q.Q.E.E.E.H.H.J.J.= + 3 < $ $ h.d.k.k.C B :.:.;.1.1.:.2.;.;.;.;.;.;.",
";.,.;.;.;.;.<.1.>.*.;.;.;.*.#.;.;.7 7 X X e e . . h i ^.^.Q.^.E.E.E.H.J.J.J.+ 7 2 2 $ @ d.d.k.k.V V :.:.>.3.1.2.;.>.;.;.;.;.2.",
";.,.;.;.;.;.<.Z >.>.;.;.;.2.>.g.g.3.s.#.#., 8 U.U.I.I.c.c.R.R.Y.F.F.F.F.H.H.3 y B B ,.,.Z <.;.;.&.;.:.1.<.2.;.;.;.:.&.;.;.;.;.",
">.;.;.;.;.;.<.<.>.;.<.;.;.;.2.g.g.3.a.] ] , , U.U.I.I.c.c.R.R.Y.F.F.F.F.H.H.y : B #.4.,.<.<.;.;.;.;.1.1.<.;.;.;.;.:.:.;.;.;.;.",
";.;.;.;.;.;.<.<.>.>.;.;.;.#.$.a.a.&.&.1.1.t # b.b.U.U.x.x.L.L.H.b.b.n.n.v.v.X 2 s.g.;.%.;.&.>.>.>.>.%.Z ;.d.2.2.;.>.>.;.;.;.;.",
";.;.;.;.;.;.<.<.>.>.;.;.;.*.#.a.2.&.%.A <.# # b.b.U.U.x.x.L.L.K.b.b.n.n.v.c.2 X g.g.%.%.;.;.;.>.>.>.;.;.2.2.2.;.;.%.;.;.;.;.;.",
";.;.;.;.>.>.6.6.*.%.;.$.$.;.2.;.Z 2.2.a.a.+ + ) ^ ~ ~ J J t 3 r ].].n.n.h.l.1 , 3.2.>.*.;.;.;.;.;.<.;.;.;.;.;.;.;.;.;.;.;.;.;.",
";.;.;.;.>.*.6.6.%.;.%.$.$.2.;.Z Z 2.2.d.h.O # ^ ^ ~ ~ J J 3 t r ].].n.n.l.l.: * 1.2.*.;.;.;.;.;.;.;.;.;.;.;.;.;.;.;.;.;.;.;.;.",
";.;.;.;.;.;.<.<.a.3.g.&.<.:.;.&.&.,.4.>.>.1 < L L Y Y H H * * 6 (.(.` U P P X 2 ;.Z 2.3.;.;.;.;.;.<.<.<.;.;.<.;.;.<.;.;.;.;.;.",
";.;.;.2.<.;.S s.1.<.j.;.;.:.&.&.&.4.4.*.;.1 1 L K R R H H * > 8 (.(.U W P P X X Z S 2.2.<.;.<.;.;.Z ;.;.Z ;.<.;.<.<.;.;.;.;.;.",
";.;.;.;.;.>.%.%.<.;.<.%.%.<.<.2.2.%.M N M D s.O 3 O O y u y t u / ' U U L K , : h.h.#.%.>.>.>.>.>.>.>.>.;.;.>.>.;.;.>.;.;.;.;.",
";.<.2.;.>.6.;.<.;.,.s.2.2.d.2.Z ;.d.2.4 4 O O w a t t = - : 8 * q q W ( H H X X 3 5 ;.;.<.<.Z <.<.<.Z <.<.<.;.<.<.Z ;.;.2.;.;.",
";.;.2.2.>.>.3.:.;.;.s.6.6.d.2.<.Z d.2.4 4 o O w w t t - - : : : q q ( ` H H X X 3 3 ;.;.Z <.<.<.Z <.<.<.<.<.Z Z <.<.<.;.;.;.;.",
";.;.;.;.*.*.>.>.>.*.;.>.*.;.;.D C o o 3 3 # t 8 7 = = p p y y + i i 6 e 3 < a i e e < 1 ;.;.;.;.;.;.;.<.;.;.<.2.;.;.;.;.;.;.;.",
";.;.<.<.;.%.>.;.>.5.;.*.>.;.;.C C o o   3 t # 7 ; = - p 5 t i + g r e e 2 2 i a r a & < ;.;.;.;.<.;.;.;.;.>.;.>.;.;.;.;.;.;.;.",
";.;.;.;.2.<.;.;.5.2.Z ;.;.5.>.1.D z.z.- - # # 8 t u u & & + + p > > 1 1 O u 6 6 8 8 2.2.;.>.>.;.>.;.>.>.;.>.;.;.;.%.>.;.;.;.;.",
";.;.;.;.2.<.2.2.2.>.Z %.;.>.>.D D z.z.- : # # y 8 3 u * * + # p > > 1 1 3 O 7 6 6 8 <.2.>.%.;.>.;.>.;.%.>.;.>.;.;.;.>.;.;.;.;.",
";.;.;.;.1.s.;.;.;.;.;.;.;.5.-.M #.;.;.f.f.N Z 2.>.;.;.1.1.#.$.2.<.;.-.*.=.=.%.%.5.>.*.;.;.%.;.;.;.;.;.;.;.;.;.;.;.;.;.;.2.;.;.",
";.;.;.;.s.s.;.;.;.;.;.;.;.5.-.%.M ;.;.f.f.%.Z >.2.>.;.1.1.] $.2.Z <.-.-.,.=.%.*.5.>.>.-.;.>.;.;.%.;.;.;.;.;.;.;.;.;.;.;.;.;.;.",
";.;.;.;.;.;.;.;.;.;.;.;.;.;.;.;.;.;.;.;.;.;.;.;.;.;.;.;.;.;.;.;.;.;.;.;.;.;.;.;.;.;.;.;.;.;.;.;.;.;.;.;.;.;.;.;.;.;.;.;.;.;.;.",
";.;.;.;.;.;.;.;.;.;.;.;.;.;.;.;.;.;.;.;.;.;.;.;.;.;.;.;.;.;.;.;.;.;.;.;.;.;.;.;.;.;.;.;.;.;.;.;.;.;.;.;.;.;.;.;.;.;.;.;.;.;.;."
};
