/* XPM */
static char *result[] = {
/* columns rows colors chars-per-pixel */
"63 63 184 2 ",
"   c #1D0B03",
".  c #1F0D09",
"X  c #121301",
"o  c #1C1401",
"O  c #101906",
"+  c #191904",
"@  c #1B130C",
"#  c #1A180C",
"$  c #1E0A15",
"%  c #1C0C1D",
"&  c #161516",
"*  c #270700",
"=  c #2A0607",
"-  c #2C0D04",
";  c #240C0B",
":  c #2B0D0B",
">  c #340D03",
",  c #3A0B07",
"<  c #320D0D",
"1  c #251404",
"2  c #2D1203",
"3  c #24130D",
"4  c #2D110B",
"5  c #2B180A",
"6  c #321505",
"7  c #33120C",
"8  c #260716",
"9  c #2C0414",
"0  c #240D13",
"q  c #2A0B12",
"w  c #240C1B",
"e  c #2B0C1B",
"r  c #350B12",
"t  c #360E1A",
"y  c #261015",
"u  c #2B1313",
"i  c #201911",
"p  c #281B1B",
"a  c #371418",
"s  c #311919",
"d  c #32241B",
"f  c #2C0B23",
"g  c #3A0426",
"h  c #211322",
"j  c #2B2927",
"k  c #1B6200",
"l  c #137A00",
"z  c #226C09",
"x  c #2D6B0B",
"c  c #237203",
"v  c #206C14",
"b  c #007F22",
"n  c #007D2B",
"m  c #057E32",
"M  c #037D3D",
"N  c #0C7F3C",
"B  c #147935",
"V  c #127C3B",
"C  c #233F40",
"Z  c #A9150B",
"A  c #AC1715",
"S  c #B01815",
"D  c #B31D1D",
"F  c #BF2219",
"G  c #AA1427",
"H  c #B21825",
"J  c #A82125",
"K  c #A8213F",
"L  c #C0192A",
"P  c #EB325C",
"I  c #F63053",
"U  c #F7385D",
"Y  c #FE3B5D",
"T  c #F32F68",
"R  c #E63967",
"E  c #ED3E65",
"W  c #F43664",
"Q  c #F4356C",
"!  c #F53A69",
"~  c #FF3D6B",
"^  c #F22E70",
"/  c #FF2F73",
"(  c #FA3572",
")  c #FB3C71",
"_  c #FA3A7D",
"`  c #FA4D7A",
"'  c #1E9B00",
"]  c #258D02",
"[  c #2D8D01",
"{  c #368A00",
"}  c #229304",
"|  c #2A9402",
" . c #2B9903",
".. c #2A940D",
"X. c #369609",
"o. c #2F9315",
"O. c #39B400",
"+. c #31BC00",
"@. c #3BBF00",
"#. c #058526",
"$. c #028B24",
"%. c #00832D",
"&. c #018B2D",
"*. c #009321",
"=. c #018635",
"-. c #0B8335",
";. c #018A34",
":. c #098B37",
">. c #03823A",
",. c #0B843B",
"<. c #008B3A",
"1. c #088C38",
"2. c #138534",
"3. c #128738",
"4. c #009236",
"5. c #02903B",
"6. c #42B807",
"7. c #2CC300",
"8. c #20CF04",
"9. c #35C301",
"0. c #3AC300",
"q. c #3AC306",
"w. c #35C515",
"e. c #39C711",
"r. c #40C000",
"t. c #47C407",
"y. c #49C512",
"u. c #46FF06",
"i. c #4AFD04",
"p. c #51FF00",
"a. c #088743",
"s. c #048A45",
"d. c #108C44",
"f. c #069344",
"g. c #00BA5F",
"h. c #008967",
"j. c #00866E",
"k. c #008D69",
"l. c #088B6B",
"z. c #0E9B67",
"x. c #0FC348",
"c. c #00CC49",
"v. c #13C055",
"b. c #00CF65",
"n. c #03C870",
"m. c #EEB502",
"M. c #E5B805",
"N. c #EBB907",
"B. c #F6B503",
"V. c #FEB502",
"C. c #F3BB02",
"Z. c #FCBB00",
"A. c #FCB60A",
"S. c #FBBA18",
"D. c #F0C000",
"F. c #FFC500",
"G. c #055DD3",
"H. c #016BD5",
"J. c #006BDB",
"K. c #0066E7",
"L. c #0469E7",
"P. c #0066EE",
"I. c #0B72E9",
"U. c #0067F3",
"Y. c #70FFB4",
"T. c #78F8B7",
"R. c #319AED",
"E. c #2B97FF",
"W. c #389DFF",
"Q. c #27A5EF",
"!. c #2CA0F2",
"~. c #33A2F5",
"^. c #31A3FF",
"/. c #42A2EF",
"(. c #4ABCFA",
"). c #53BBF1",
"_. c #7FF6CC",
"`. c #57C6F3",
"'. c #5FC5FD",
"]. c #F8A4BE",
"[. c #8BB6EB",
"{. c #EAA0DB",
"}. c #F8A5DB",
"|. c #F4A5E7",
/* pixels */
";.;.;.=.;.;.;.;.=.=.=.;.;.;.;.=.=.=.=.=.=.=.=.=.=.=.=.=.=.=.=.=.=.=.=.=.=.=.=.=.=.=.=.=.<.a.;.=.;.;.=.;.;.%.;.;.=.;.;.;.;.=.=.",
";.;.;.;.=.%.;.;.=.=.;.;.;.;.;.=.=.=.=.=.=.=.=.=.=.=.=.=.=.=.=.=.=.=.=.=.=.=.=.=.=.=.=.=.<.s.=.;.;.%.;.;.=.;.=.;.=.<.;.;.;.=.=.",
"=.=.=.=.=.=.=.=.=.=.=.=.;.=.=.=.=.=.=.=.=.=.=.=.=.=.=.=.<.=.=.=.=.=.=.=.=.=.=.=.=.=.=.=.=.=.=.=.=.=.=.=.=.=.=.=.=.=.=.=.=.=.=.",
"=.=.=.=.=.=.=.=.=.=.=.=.=.=.=.=.=.=.=.=.=.=.=.=.=.=.=.=.=.=.=.=.=.=.=.=.=.=.=.=.=.=.=.=.=.<.=.=.=.=.=.=.=.=.=.=.=.=.=.=.=.=.=.",
"=.=.=.=.=.=.=.=.=.=.=.=.=.=.=.=.=.=.=.=.=.=.=.=.=.=.=.=.=.=.=.=.=.=.=.=.=.=.=.=.=.=.=.=.=.=.=.=.=.=.=.=.=.=.=.=.=.=.=.=.=.=.=.",
"=.=.=.=.=.=.=.=.=.=.=.=.=.=.=.=.=.=.=.=.=.=.=.=.=.=.=.=.=.=.=.=.=.=.=.=.=.=.=.=.=.=.=.=.=.=.=.=.=.=.=.=.=.=.=.=.=.=.=.=.=.=.=.",
"=.=.=.=.=.=.=.=.=.=.=.=.=.=.=.=.=.=.=.=.=.=.=.=.=.=.=.=.=.=.=.<.=.=.=.=.=.=.;.=.=.=.=.=.=.=.=.=.=.=.=.=.=.=.=.=.=.=.=.=.=.=.=.",
"=.=.=.=.=.=.=.=.<.=.=.=.=.=.=.=.=.=.=.=.=.=.=.=.=.=.=.=.=.=.=.;.=.;.=.=.=.=.;.;.=.=.=.=.=.=.=.=.=.=.=.=.=.=.=.=.<.=.=.=.=.=.=.",
"=.=.=.=.=.=.=.=.=.=.=.=.=.=.=.=.=.=.=.=.=.4.=.%.;.%.n m n =.;.>.n =.=.:.%.%.=.:.%.%.=.<.=.=.;.=.=.=.=.=.=.=.=.=.=.=.=.=.=.=.=.",
"=.=.=.=.=.=.=.=.=.=.=.<.=.=.=.=.=.=.=.;.=.;.1.%.%.=.=.%.%.=.;.=.%.=.=.=.%.n :.1.=.=.=.=.=.=.=.=.=.=.=.=.=.=.=.=.=.=.=.=.=.=.=.",
"=.=.=.=.=.=.=.=.=.=.=.=.=.=.=.=.=.m =.4.4.-.-.;.;.m =.s.f.,.V ,.f.f.m >.,.:.=.=.n n 3.3.=.=.=.=.=.=.=.=.=.=.=.=.=.=.=.=.=.=.=.",
"=.=.=.=.=.=.=.=.=.=.=.=.=.=.=.<.<.m -.<.;.=.;.>.>.=.<.s.s.= = 2 X X V V =.=.=.=.-.=.5.;.=.=.=.=.=.=.=.=.=.=.=.<.=.=.=.=.=.=.=.",
"=.=.=.=.=.=.=.=.=.=.=.=.=.=.=.=.=.m m 1.=.=.=.=.m <.<.s.s.: = 2 X X V V =.<.=.=.=.-.5.5.=.=.=.;.=.=.=.=.=.=.=.=.=.=.=.=.=.=.=.",
"=.=.=.=.=.=.=.=.=.=.=.=.=.=.=.B B <.<.%.=.-.:.,.a.s.s.@ @ ].}.W K K + o a.a.m m 5.5.&.;.-.N =.>.=.=.=.=.=.=.=.=.=.=.<.=.=.=.=.",
"=.=.=.=.=.=.=.=.=.=.=.=.=.=.<.V B <.<.%.%.-.-.-.N s.s.@ @ ].].I K K + + d.a.m m 5.5.;.;.,.,.=.=.=.=.=.=.=.=.=.=.=.=.=.=.=.=.=.",
"=.=.=.=.=.=.=.=.=.=.=.=.=.=.=.=.=.<.;.;.=.4.<., , : : y y w w r . ; , > o o ,.V <.=.m m <.<.=.=.=.=.=.=.=.=.=.=.=.=.=.=.=.=.=.",
"=.=.=.=.=.=.=.=.=.=.=.=.=.=.=.=.=.<.5.;.=.;.<., > 4 = y y w w a . ; < < o o V V <.;.=.m =.=.=.=.=.=.=.=.=.=.=.=.>.<.=.=.=.=.=.",
"=.=.=.=.=.=.=.=.=.=.=.=.=.=.=.:.1.>.M 5 5 * * c c X.o.] ] | | | } } ' } x x : y 1 1 =.%.a.>.=.=.=.=.=.=.=.=.=.=.=.=.=.=.=.=.=.",
"=.=.=.=.=.=.=.=.=.=.=.=.=.=.=.;.<.M >.5 5 * - c c X.o.] ] | | ..} | } } x x 4 0 1 1 =.m a.,.=.=.=.=.=.=.=.=.=.=.=.=.=.=.=.=.=.",
"=.=.=.=.=.=.=.=.=.=.=.=.=.=.=.%.=.& & }  .0.0.6.6.9.9.@.@.e.e.@.0.r.[ { [ [ o.o.c c 3 ; <.=.=.=.=.=.=.=.=.=.=.<.=.=.=.=.=.=.=.",
"=.=.=.=.=.<.=.=.=.=.=.=.=.=.=.=.m & % ..} q.0.6.@.9.9.@.@.e.e.@.0.0.{ [ { [ o.o.c k 3 @ <.<.=.=.=.=.=.=.=.=.=.=.=.=.=.=.=.=.=.",
"=.=.=.=.=.=.=.=.=.=.=.=.=.=.=., r X.X.+.+.i.i.p.p.u.u.r.6.0.0.q.0.0.7.7. .X.[ [ } } z z 1 1 =.=.=.=.=.=.=.=.=.=.=.=.=.=.=.=.=.",
"=.=.<.=.=.=.=.=.=.=.=.=.=.=.=., , X.X.+.+.i.i.p.p.u.u.r.r.0.0.q.9.0.7.7.X.X.[ [ } } z c 1 1 =.=.=.<.=.=.=.=.=.=.=.=.=.=.=.=.=.",
"=.=.=.=.=.=.=.=.=.=.=.=.=.=.=.    0.q.q.q.( ( W W ( ! ! ! W W _ I I ` ` T W ! Q  .| c c < r =.=.=.=.=.=.=.=.=.=.=.=.=.=.=.=.=.",
"=.=.=.=.=.=.=.=.=.=.=.=.<.=.=.  o q.0.6.q.( ( U U Q ! ! ! ! ! _ I I ` ` ^ T Q Q  . .c c r r =.=.=.=.=.=.=.=.=.=.=.=.=.=.=.=.<.",
"=.=.=.=.=.=.=.=.=.=.=.=.=.=.;.p p 6.6.8.8.Q Q : ; e e V.V.Z.C.B.A.B.9 9 r q ^ ^  . .z v e e =.=.=.=.=.=.=.=.=.=.=.=.=.=.=.=.=.",
"=.=.=.=.=.=.=.=.=.=.=.=.=.=.=.p p 6.6.8.8.( ( : : e t V.Z.C.Z.B.B.A.9 9 r 9 ^ ^  . .k k e f =.=.=.=.=.=.=.=.=.=.=.=.=.=.=.=.=.",
"=.=.=.=.=.=.=.=.=.=.=.=.=.=.=.q q 0.r.t.t.= = Z.Z.N.N.7 7 M.D.N.u q A.N.F.F., , | | l l 4 q =.=.=.=.=.=.=.=.=.=.=.=.=.=.=.=.=.",
"=.=.=.=.=.=.=.<.=.=.=.=.=.=.=.q q 9.0.t.t.> = Z.V.N.N.7 r M.D.D.q : C.C.F.F., , [ [ l l : u =.=.=.=.=.=.=.=.=.=.=.=.=.=.=.=.=.",
"=.=.=.=.=.=.=.=.=.=.=.=.=.=.=.f t +.9.O.@.a , V.V.m.m.4 4 B.B.C.r r m.m.M.M.e y | | c c o X =.=.=.=.=.=.=.=.=.=.<.=.=.=.=.=.=.",
"=.=.=.=.=.=.=.=.=.=.=.=.<.=.=.t s 9.9.O.O.a a V.V.m.m.4 4 B.B.Z.r r m.m.M.M.u u | | c z o + =.=.=.=.=.=.=.=.=.<.=.=.=.=.=.=.=.",
"=.=.=.=.=.=.=.=.=.=.=.=.=.=.=.8 e ' ' t.r.R R S.S.N.N.V.V.A.A.C.A.A.N.B.V.A.! W { { v v t e =.=.=.=.=.=.=.=.=.=.=.=.=.=.=.=.=.",
"=.=.=.=.=.=.<.=.=.=.=.=.=.=.=.&.$.f f ] ] y.y.Q Q ` R I Y T W Q ` E U U W W o...l l 8 q =.%.=.=.=.=.=.=.=.=.=.=.=.=.=.=.=.=.=.",
"=.=.=.=.=.=.=.=.=.=.=.=.=.=.=.*.$.f f ] } y.y.Q Q R R U Y E W Q P P Y Y W W ....c l 8 e -.%.=.=.=.=.=.=.=.=.=.=.=.=.=.=.=.=.=.",
"=.=.=.=.=.=.=.=.=.=.=.=.=.=.=.a.a.m :.2 2 @ @ k z  . .6.6.w.w.@.y.y.| | x x : < % % f.a.$.#.=.=.=.=.=.=.=.=.=.<.=.=.=.=.=.=.=.",
"=.=.=.=.=.=.=.=.=.=.=.=.=.=.=.a.3.m =.6 6 @ @ k k  . .t.6.w.w.@.y.y.[ [ x x < < % w s.a.#.#.=.=.=.=.=.=.=.=.=.=.=.=.=.=.=.=.=.",
"=.<.=.=.=.=.=.=.=.=.=.=.=.=.=.M m &.&.=.;.2 - s a 3 4 % % > > 7 8 w $ & 8 8 q 0 &.&.%.&.<.<.=.=.=.=.=.=.=.=.=.=.=.=.=.=.=.=.=.",
"=.=.=.=.=.=.=.=.=.=.=.=.=.=.;.>.=.&.&.=.;.: : a s 3 q w % > > 5 0 8 & & 8 8 ; 0 $.$.&.%.a.s.=.=.=.=.=.=.=.=.=.=.=.=.=.=.=.=.=.",
"=.=.=.=.=.=.=.=.=.=.=.=.;.=.;.>.=.:.;.& & Y.T.H.G.R.R.'.).!.Q.^.H.H.H.H.I.I.v.v.e 8 f.5.%.%.=.=.=.=.=.=.=.=.=.=.=.=.=.=.=.=.<.",
"=.=.=.=.=.=.=.=.=.=.=.;.>.=.;.=.=.;.1.& & T.Y.G.H.R.R.'.'.!.Q.^.H.H.H.H.I.I.v.v.e 8 5.s.%.n =.=.=.=.=.=.=.<.=.=.=.=.=.=.=.=.=.",
"=.=.=.=.=.=.=.=.=.=.=.=.=.=.=.>.>.w e T.T.: i K.I.[.[.^.(.`.`.W.~.~.G.G.J.L.O O > > ; ; ,.:.=.=.=.=.=.=.=.=.=.=.=.=.=.=.=.=.=.",
"=.=.=.=.=.=.=.=.=.=.=.=.=.=.=.a.<.q w T.T.i i K.L.[.[.`.(.`.`.W.R.E.G.G.I.L.O O 6 > ; ; =.:.=.=.=.=.=.=.=.=.=.=.=.=.=.=.=.=.=.",
"=.=.=.=.=.=.=.=.=.=.=.=.=.=.=.@ 3 Y Y ) / > > d d j j j j V.V.C.j j C C = 9 {.{./ / H H . @ =.=.=.=.<.=.=.=.=.=.=.=.=.=.=.=.=.",
"=.=.=.=.=.=.=.=.=.=.=.=.=.=.=.@ # Y Y ) ) > > d j j j j j A.V.C.j d C C = = {.{./ / H H @ @ =.=.=.=.=.=.=.=.=.=.=.=.=.=.=.=.=.",
"=.=.=.=.=.=.=.=.=.=.=.=.=.=.=.q q W W A A w w H.H.`.).`.'.).)./.E.E.J.J.2 6 _ _ U P G G u y =.=.=.=.=.=.=.=.=.=.=.=.=.<.>.=.=.",
"=.=.=.=.=.=.=.=.=.=.=.=.=.=.;.q q W ! A A w f H.H.`.).'.'.).)./.E.E.J.J.6 2 _ _ U ` G G p u =.=.=.=.=.=.=.=.=.=.=.=.=.=.=.=.=.",
"=.=.=.=.=.=.=.=.=.=.=.=.=.=.=.<.a.< r u u @ # P.K.L.K.!.!.^.~.!.P.L.U.U.< < 3 ; + o 7 7 m =.=.=.=.=.=.=.=.=.=.=.=.=.=.=.=.=.=.",
"=.=.=.=.=.=.=.=.=.=.=.=.=.=.;.s.<.r < u a # # P.P.K.J.!.!.~.~.!.L.P.U.U.< < ; 1 . . < 7 m >.=.=.=.=.=.=.=.=.=.=.=.=.=.=.=.=.=.",
"=.=.=.=.=.=.=.=.=.=.=.=.=.=.=.>.=.:.1.;.<.9 9 c.c.b.b.h.h.J.J.J.z.z.g.g.k.k.6 6 &.;.M M ;.;.=.=.=.=.=.=.=.=.=.=.=.=.=.=.=.=.=.",
"=.=.=.=.=.=.=.=.=.=.=.=.=.=.;.>.:.;.;.<.<.9 = c.c.b.b.h.h.J.J.J.z.z.g.g.k.k.6 6 &.&.M M ;.4.=.=.=.=.=.=.=.=.=.=.=.=.=.=.=.=.=.",
"<.=.=.=.=.>.=.>.=.=.=.=.>.>.=.=.;.b b %.=.f f _._.x.x.l.l.y y $ j.j.T.Y.n.n.q 3 %.n f.<.-.m ;.m =.m >.=.=.>.>.=.M =.=.=.=.=.=.",
">.>.=.>.>.m =.=.>.m =.=.=.=.=.<.;.#.b =.=.t f _._.x.x.l.l.y y 0 j.j.Y.Y.n.n.: 0 %.%.<.f.%.-.=.=.=.=.=.>.=.=.=.=.=.=.=.=.=.=.=.",
";.;.;.;.;.;.;.;.;.;.;.;.;.;.;.%.%.=.<.2 6 Z Z |.|.^ ^ S S 0 0 < L L }.}.R R A A a t <.;.$.$.;.;.;.=.;.;.=.;.;.;.;.;.;.;.;.=.=.",
"=.M =.>.=.M m =.>.>.=.M =.>.>.=.=.h h < < J J ( ( ) ` S D q q y S A P P ~ ~ H H $ $ e e =.,.=.M >.m =.M M =.>.m =.M m M >.=.=.",
"m M >.>.=.,.>.M ,.m >.,.M =.,.>.<.h h < 7 J J Q Q ) ) F D q 0 y S S I P ~ ~ H H 0 $ e e >.>.,.=.>.=.M =.=.,.>.M ,.=.>.-.>.=.=.",
"=.=.=.=.=.=.=.=.=.=.=.=.=.=.=.2.3.9 = - 2 w w o + X X r r i 3 t O & F D G G y 4 + + w q %.=.:.=.=.=.=.=.=.=.=.;.=.=.=.=.=.=.=.",
"=.=.=.=.=.=.=.=.=.;.=.=.=.=.=.2.3.= 9 - - w w o + X X r r 3 1 t & & F F G G : u + + w y =.=.=.=.=.=.=.=.=.=.=.=.=.=.=.=.;.=.=.",
";.;.;.=.;.&.=.=.;.=.=.;.=.;.;.%.%.d.d.o o 2 4 p p g g 3 3 $ w 8 e e .   1 3 * - 4 7 a.>.#.#.=.%.=.;.;.=.%.;.=.;.;.;.;.;.=.=.=.",
"=.;.;.;.;.=.;.%.=.&.%.;.;.%.%.%.%.d.d.o 1 2 - p p g g 3 3 w 8 e e e     1 1 : 1 7 7 M a.#.#.&.=.;.%.;.;.%.;.;.%.;.%.;.=.;.=.=.",
"=.%.=.;.%.=.=.=.=.=.=.=.=.;.;.s.s.;.=.n n &.;.=.=.-.-.m %.1.1.*.>.a.<.<.2.2.=.>.,.M n m &.&.=.=.=.=.=.;.=.=.=.=.=.:.=.%.=.=.=.",
"%.=.=.=.=.%.:.=.%.=.:.=.%.=.;.>.<.=.5.n n &.&.M M -.m n =.:.:.*.,.M <.<.2.2.>.>.M M m m &.&.=.;.=.%.=.=.=.:.%.=.=.=.=.%.;.=.=.",
"=.=.=.=.=.=.=.=.=.=.=.=.=.=.=.=.=.=.=.=.=.;.=.=.=.;.=.=.=.=.=.=.=.=.=.=.=.=.=.=.=.=.=.=.=.=.=.=.=.=.=.=.=.=.=.=.=.=.=.=.=.=.=.",
"=.=.=.=.=.=.=.=.=.=.=.=.=.=.=.=.=.=.=.=.=.=.=.=.=.=.=.=.=.=.=.=.=.=.=.=.=.=.=.=.=.<.=.=.=.=.=.=.=.=.=.=.=.=.=.=.=.=.=.=.=.=.=."
};
