/* XPM */
static char *result[] = {
/* columns rows colors chars-per-pixel */
"63 63 195 2 ",
"   c #1F0E00",
".  c #1A0A0B",
"X  c #1D1300",
"o  c #15150C",
"O  c #1C120C",
"+  c #1D1316",
"@  c #1F1F13",
"#  c #2F0600",
"$  c #220F03",
"%  c #290D04",
"&  c #2A0608",
"*  c #250C0E",
"=  c #2B0E0C",
"-  c #350C06",
";  c #310D09",
":  c #380B08",
">  c #251203",
",  c #291303",
"<  c #2F1A07",
"1  c #25130D",
"2  c #2A140C",
"3  c #251B09",
"4  c #2D190D",
"5  c #33140F",
"6  c #2C0614",
"7  c #220B13",
"8  c #2A0C14",
"9  c #260E1A",
"0  c #2C0A1A",
"q  c #310613",
"w  c #300C14",
"e  c #380618",
"r  c #360B19",
"t  c #221212",
"y  c #2C1216",
"u  c #2C1618",
"i  c #271819",
"p  c #281819",
"a  c #311216",
"s  c #32161A",
"d  c #1D2106",
"f  c #1E2118",
"g  c #18281E",
"h  c #262614",
"j  c #2A0921",
"k  c #2C0C24",
"l  c #371923",
"z  c #282224",
"x  c #3C2833",
"c  c #1A6700",
"v  c #176A02",
"b  c #186D00",
"n  c #127500",
"m  c #1B7501",
"M  c #226D06",
"N  c #306D06",
"B  c #237108",
"V  c #007D2C",
"C  c #0A792B",
"Z  c #0C7634",
"A  c #037E35",
"S  c #0A7B35",
"D  c #007C3B",
"F  c #0D7E3E",
"G  c #137D35",
"H  c #147C39",
"J  c #266926",
"K  c #037E47",
"L  c #127B50",
"P  c #B3190F",
"I  c #B80D28",
"U  c #AB1929",
"Y  c #B31628",
"T  c #BD173F",
"R  c #E73A57",
"E  c #F13B55",
"W  c #F13B5D",
"Q  c #FF3A59",
"!  c #F92D64",
"~  c #EA3B68",
"^  c #F63365",
"/  c #FE3365",
"(  c #F93C67",
")  c #F43768",
"_  c #F6366B",
"`  c #F23E6B",
"'  c #FA396D",
"]  c #F53B71",
"[  c #F93578",
"{  c #FF397B",
"}  c #ED4360",
"|  c #F1406A",
" . c #ED4173",
".. c #F14374",
"X. c #1D9404",
"o. c #1B9800",
"O. c #2C8700",
"+. c #238D03",
"@. c #2C8E06",
"#. c #318C05",
"$. c #3A8C03",
"%. c #279302",
"&. c #2B9403",
"*. c #229800",
"=. c #2E9D03",
"-. c #329305",
";. c #309900",
":. c #35900F",
">. c #2D9011",
",. c #2EBE0E",
"<. c #34BE00",
"1. c #3BBF02",
"2. c #36BB08",
"3. c #068423",
"4. c #008B27",
"5. c #01842D",
"6. c #0A862F",
"7. c #00892D",
"8. c #11832E",
"9. c #00912F",
"0. c #018635",
"q. c #0B8235",
"w. c #008933",
"e. c #088834",
"r. c #02843A",
"t. c #0B843B",
"y. c #028B3B",
"u. c #098B3C",
"i. c #10853E",
"p. c #009533",
"a. c #189039",
"s. c #47BF00",
"d. c #43BE0D",
"f. c #52B800",
"g. c #42BE12",
"h. c #2EC700",
"j. c #33C304",
"k. c #3DC101",
"l. c #35CA00",
"z. c #30C60D",
"x. c #41C000",
"c. c #45C108",
"v. c #40FF00",
"b. c #4BFF00",
"n. c #52FB02",
"m. c #028544",
"M. c #098343",
"N. c #088647",
"B. c #008A45",
"V. c #058C4C",
"C. c #108141",
"Z. c #009342",
"A. c #009A41",
"S. c #009453",
"D. c #009664",
"F. c #009568",
"G. c #068E76",
"H. c #00C757",
"J. c #00C65D",
"K. c #0AC162",
"L. c #0EC374",
"P. c #FEAD0D",
"I. c #EAB603",
"U. c #ECBC00",
"Y. c #FAB403",
"T. c #F2BB00",
"R. c #FDBA03",
"E. c #FFB30A",
"W. c #F8B80C",
"Q. c #F6BE11",
"!. c #F7C001",
"~. c #0B64DD",
"^. c #085EF1",
"/. c #0066E1",
"(. c #056EE3",
"). c #0166EA",
"_. c #0072E3",
"`. c #6CFFB8",
"'. c #73FBB9",
"]. c #359FED",
"[. c #279EF6",
"{. c #349EF6",
"}. c #3196FF",
"|. c #2DAEE7",
" X c #35A6E8",
".X c #29A6FB",
"XX c #49B4FA",
"oX c #55B6FB",
"OX c #4BC4F7",
"+X c #59C8FF",
"@X c #64C8FF",
"#X c #F7A1BD",
"$X c #80F2B6",
"%X c #96BADA",
"&X c #FBA1D5",
/* pixels */
"0.0.0.0.0.0.0.0.0.0.0.0.0.0.0.w.w.0.0.0.0.7.9.0.0.0.0.0.0.0.0.0.0.0.0.0.0.0.0.0.0.0.0.0.y.w.w.0.0.0.0.0.0.0.0.0.0.0.0.0.0.0.0.",
"0.0.0.0.0.0.0.0.0.0.0.0.0.w.w.y.w.0.0.0.0.7.7.e.0.0.0.0.0.0.0.0.0.0.0.0.0.0.0.0.0.0.0.0.0.0.0.0.0.0.0.0.0.0.0.0.0.0.w.r.w.0.0.",
"0.0.0.0.0.0.0.0.0.0.0.y.0.0.0.0.0.0.0.0.0.0.0.0.0.0.0.0.0.0.0.0.0.0.0.0.0.0.0.0.0.0.0.0.0.0.0.0.0.0.0.0.0.0.0.0.0.0.0.0.0.0.0.",
"0.0.0.0.0.0.0.0.0.0.0.0.0.0.0.0.0.0.0.0.0.0.0.0.0.0.0.0.0.0.0.0.0.0.0.0.0.0.0.0.0.0.0.0.0.0.0.0.0.0.0.0.0.0.0.0.0.0.0.w.0.0.0.",
"0.r.7.w.r.r.0.0.0.0.0.0.0.0.0.0.0.0.0.0.0.0.0.0.0.0.0.0.0.0.0.0.0.0.w.7.0.0.0.0.0.0.0.0.0.0.0.0.0.0.0.0.0.r.r.e.q.7.w.r.0.0.0.",
"0.0.7.7.r.r.0.0.0.0.0.0.0.0.0.0.0.0.0.0.0.0.0.0.0.0.0.0.0.0.0.0.0.0.7.7.0.0.0.0.0.0.0.y.0.0.0.0.0.0.0.0.0.r.r.w.0.w.w.w.0.0.0.",
"0.0.7.7.0.0.0.0.0.0.0.0.0.0.0.0.0.0.0.0.0.0.0.0.0.0.0.0.0.0.0.0.0.0.0.0.0.0.0.0.0.0.0.0.0.0.0.0.w.r.0.0.w.r.r.0.e.w.w.0.0.0.0.",
"y.0.7.w.0.0.0.0.0.0.0.0.0.0.0.0.0.0.0.0.0.0.0.0.0.0.0.0.0.0.w.y.0.0.0.0.0.0.0.0.0.0.0.0.0.0.0.0.0.0.0.0.0.r.r.e.0.w.w.0.0.0.0.",
"r.0.w.7.0.0.0.y.0.0.0.0.0.0.0.0.0.0.0.q.q.B.m.V V w.0.F F e.e.0.w.w.w.0.0.0.0.0.0.0.0.0.0.0.0.0.0.0.0.0.0.r.r.q.q.w.5.0.0.0.0.",
"r.0.7.7.0.0.0.0.0.0.0.0.0.0.0.0.0.0.0.q.S m.B.V V 5.0.F F 0.y.y.w.w.0.0.0.0.0.0.0.0.0.0.0.0.0.0.0.w.0.0.0.r.r.5.w.w.w.0.0.0.0.",
"0.0.0.0.0.0.0.0.0.0.0.0.0.0.0.0.0.q.r.5.5.e.e.m.m.0.0.p.p.* % 0 4 s 7.4.e.e.0.0.y.y.0.0.0.0.5.5.w.r.0.0.0.0.w.q.q.w.w.0.0.0.0.",
"0.r.0.0.0.0.0.0.0.0.0.0.0.0.0.0.0.r.e.A.A.4.4.4.4.7.7.1 7 &X&X_ I I w w 4.5.y.y.r.r.A r.0.0.0.0.0.0.0.0.w.0.0.0.w.w.w.0.0.0.0.",
"0.0.0.0.0.0.0.0.0.0.0.0.0.0.0.0.0.r.y.A.p.9.4.4.4.w.7.* 7 &X&X' I I w q 4.7.y.y.r.r.A A w.0.r.w.0.0.0.0.w.0.0.0.0.w.w.0.0.0.0.",
"r.y.0.0.0.0.0.0.0.0.0.y.0.0.0.0.0.u.M.Z Z t.t.r r e q h 4 X X 6 k s = = , , 0.r.A.S.D S 0.w.7.w.0.0.0.0.w.r.r.w.0.0.0.0.0.0.0.",
"r.0.0.0.0.0.0.0.0.0.0.0.0.0.0.0.0.r.y.Z Z t.M.e e q q i @ > X * s s % 2 > , e.y.Z.A.S S 0.0.7.w.0.0.0.0.w.r.r.r.0.0.0.0.0.0.0.",
"0.0.0.0.0.0.0.0.0.0.0.0.0.w.w.A.A.Z Z @ d 1 t v v =.=.+.+.-.$.%.@.@.o.o.J J # % X X L M.0.0.e.e.0.0.r.r.0.r.r.5.q.5.w.0.0.0.0.",
"0.0.0.0.0.0.0.0.0.0.0.0.0.w.0.A.A.Z Z d d t 4 v v ;.=.+.+.-.-.%.@.@.o.o.J J # # X X M.C.0.q.e.e.0.w.r.r.w.0.r.q.q.w.0.0.0.0.0.",
"0.0.7.7.0.0.0.0.0.0.0.y.y.7.y.0.0.q 6 &.&.k.k.j.k.j.j.f.f.j.j.h.s.s.>.>.+.+.#.&.B B t 8 8.q.5.0.0.0.8.8.0.r.r.w.w.w.5.0.0.0.0.",
"y.r.7.w.0.0.0.0.0.0.0.y.y.w.w.0.0.q q &.&.k.1.k.k.z.j.f.f.z.z.h.s.s.>.>.+.@.@.@.B b y 8 q.q.6.5.0.0.8.8.0.r.0.q.q.w.w.0.0.0.0.",
"0.r.7.7.0.0.0.0.0.0.0.0.0.w.7.= 2 &.-.j.<.n.n.v.v.b.b.2.2.x.x.x.1.j.,.,.;.;.@.O.=.=.c c 1 1 B.B.0.0.e.5.0.r.r.q.0.5.w.w.0.0.0.",
"0.0.w.w.0.0.0.0.0.0.0.0.0.w.7.= = -.&.<.<.n.b.v.v.b.b.<.2.k.k.x.<.<.,.,.=.=.O.O.=.=.v c 1 1 B.Z.0.r.6.5.0.r.r.0.0.w.w.q.w.0.0.",
"0.0.7.7.0.0.0.0.0.0.0.0.0.5.w.u u 1.1.k.s./ / E E ~ ~ [ ' / / } } } Q Q ` ' _ _ @.@.B B 9 9 3.3.0.0.m.y.0.r.0.q.e.w.w.w.0.0.0.",
"0.0.7.7.0.0.0.0.0.0.0.0.0.w.0.u u 1.1.s.k./ / E E ~ ~ [ [ / ! W } } Q Q ` ` _ _ @.@.B B 9 6 3.3.0.0.y.m.0.r.r.w.q.w.w.0.0.0.0.",
"0.r.0.0.0.0.0.0.0.0.w.y.0.D t.% % 1.k.z.z.` ` i i % 2 Y.E.!.!.I.P.P.* * 0 0 Q Q :.:.m m u u 0.A 0.0.0.w.0.r.r.q.w.5.0.0.r.w.0.",
"0.y.0.0.0.0.0.0.0.0.0.w.w.r.D % % k.k.z.z.` ` i i , 2 Y.Y.W.!.W.E.E.7 * 6 9 Q Q :.:.m m u u A A 0.0.0.0.0.r.r.0.e.w.w.0.0.0.0.",
"r.r.0.0.0.0.0.0.0.0.0.0.0.q.q.% % k.k.z.z.0 6 P.P.Y.R.1 1 Y.Y.U.8 8 R.!.R.R.k k &.&.b b O O a.a.0.0.0.0.0.r.0.0.0.w.w.0.0.0.0.",
"0.0.0.0.0.0.0.0.0.0.w.y.w.r.S % = k.k.z.z.6 0 E.P.Y.Y.1 1 Y.Y.!.8 8 !.!.!.R.k k &.>.b b . + a.a.0.0.0.0.0.r.r.e.0.5.w.0.0.0.0.",
"0.r.0.0.0.0.0.0.0.0.0.y.y.w.w.u u 1.k.x.x.t t T.T.Y.Y.2 3 Y.Y.W.+ t U.U.I.I.5 2 o.o.N N 9 8 C C 4.4.0.0.0.0.0.q.q.w.w.0.0.0.0.",
"0.0.0.0.0.0.0.0.0.0.r.y.y.5.5.u u k.k.k.s.+ 1 T.U.P.Y.3 2 Y.Y.Y.+ + U.T.I.I.; = *.*.N N 9 8 C C 4.4.0.0.0.0.0.0.0.5.w.0.0.0.0.",
"0.0.0.0.0.0.0.y.0.0.r.S S w.w.2 = @.@.<.<.^ ^ R.Y.Q.Q.P.P.U.T.R.E.E.W.W.W.Q.{ { $.$.m m 4 y p.w.r.r.r.w.0.0.0.0.q.w.w.w.0.0.0.",
"y.r.0.0.0.0.0.0.0.0.0.q.S w.w.2 = &.-.j.<.^ ^ R.R.Q.Q.P.P.T.T.R.Y.E.Y.W.W.W.{ [ $.$.m n 2 4 p.w.m.y.0.0.0.w.0.e.e.w.w.0.0.0.0.",
"0.0.7.7.0.0.0.0.0.0.q.y.y.w.0.0.0.q q &.&.d.d.E E ^ ^ ` ` ' ^ _ { { W E ( ) -.#.n n a 8 K K 7.7.L L 0.0.0.r.w.q.0.w.w.0.0.0.0.",
"0.r.7.w.0.0.0.0.0.0.u.5.5.5.5.r.q.B.B.O O 6 w m B #.#.g.g.<.<.l.d.c.X.X.B B w k $ $ S r.q.6.y.Z.B.B.4.7.0.0.0.e.q.w.w.0.0.0.0.",
"0.y.5.7.0.0.0.0.0.0.e.4.5.w.5.q.0.V.V.O O = 8 m m #.#.g.g.<.<.j.d.c.X.X.B M 0 u $ $ r.r.6.6.Z.y.m.m.7.4.0.0.0.0.0.5.w.0.0.0.0.",
"0.r.7.7.0.0.0.0.0.0.w.y.0.t.e.r.r.& - q 8 2 % y y 3 2 i i a 5 % 6 8 2 = $ , 9 9 0.y.u.M.y.y.5.V A D C C 0.0.0.e.0.w.w.w.0.0.0.",
"0.0.7.w.0.0.0.0.0.0.w.0.0.u.y.r.r.; ; q w , , 9 y y t i i 5 5 % 8 6 = 2 > > 9 9 0.0.u.t.0.0.V V q.S 8.C y.w.0.0.e.w.5.r.0.0.0.",
"r.0.7.w.0.0.0.0.0.0.t.A r.r.0.$ $  . .#X#XU U j j  X].XXXX|.|..X~.~.(.(.).).H.H.- - . o e.6.t.t.u.Z.e.q.0.0.0.0.q.5.w.0.0.0.0.",
"0.0.7.7.0.0.0.0.0.0.F A 0.0.0.$ $  . .#X#XU U j j {.].XXXX|.|..X~.~.(.(.).).H.H.- ; . O 7.5.F t.u.u.e.e.0.0.0.e.0.w.w.0.0.0.0.",
"0.r.7.5.0.0.0.0.0.0.t.u.t.r.r.3 O ^ ! [ [ _ ' 7 . %X%X+X+XXXOX.X[.}././.^.^.y 2 K.K.' ' 1 1 7.7.V 5.r.t.0.0.0.0.e.w.5.0.0.0.0.",
"0.y.w.7.0.0.0.0.0.0.u.u.M.r.r.3 o ! ! [ [ ' _ * 7 %X%X+X+XOXOX.X}.}././.^.^.2 8 K.K.' ' 8 * 7.7.3.5.D r.0.0.0.r.q.w.w.0.0.0.0.",
"0.0.0.0.r.y.0.0.0.0.5.0.A y.y.$ $ T T ` ] P P + t g g l l P.P.T.x x h h z z f f ~ ~ I I ; & 4.4.p.p.0.0.0.0.0.e.0.w.w.0.0.0.0.",
"0.0.0.0.r.0.0.0.0.0.5.0.5.y.y.% % T T ' ] P P 1 7 g g l l P.P.T.x x h h z z f f ~  .I I = = 7.7.p.p.0.y.0.0.0.e.e.w.w.0.0.0.0.",
"y.r.0.0.r.r.0.0.0.0.y.q.q.r.e.y.p.$ $ , > y a (.(.oXoX@X@XOXOX{..X.X+ + , , , , 6 w 2 2 9.p.G G D D 6.6.0.0.0.0.w.w.w.0.0.0.0.",
"0.r.0.r.r.r.0.0.0.0.p.S S q.q.p.y.$ $ % % a a (.(.oXoX@X@XOXOX]..X.X+ + , 3 , , 6 q ; = p.p.8.G D D 6.e.0.0.0.0.0.5.w.0.0.0.0.",
"0.0.0.0.r.r.0.0.0.0.S S S u.u.0.A i.i.r.D   % ~.~._._.[..X X X[.$X$X$X$XG.G.7 7 7.7.V.V.V V 7.5.L N.w.7.5.r.r.0.0.w.w.0.0.0.0.",
"0.0.0.0.r.r.0.0.0.0.H Z C u.u.V V i.i.r.r.$ $ ~.~._.(..X[. X X[.$X$X$X$XG.G.7 7 7.w.V.V.V A 7.5.N.N.5.5.w.r.r.0.0.w.w.0.0.0.0.",
"r.r.0.0.0.0.0.0.0.0.y.y.0.w.w.0.0.0.w.m.y.+ t K.K.J.J.D.D.).).r H.H.`.`.F.F.O O e.e.w.5.4.4.N.M.6.5.0.w.w.r.r.0.0.w.w.0.0.0.0.",
"0.y.0.0.0.0.0.0.0.0.r.y.y.w.w.e.w.0.5.y.y.t t K.K.J.J.D.D.).).r H.H.`.`.F.F.O O e.e.5.0.5.5.N.M.0.5.w.w.w.r.r.0.0.5.w.0.0.0.0.",
"0.0.0.0.0.0.0.0.0.0.r.Z.Z.0.0.C q.w.w.0.y.k k '.'.L.L.S.S.> > = [ [ W W U U o X G G 0.y.0.0.y.y.r.0.r.y.0.0.0.0.0.0.0.0.0.0.0.",
"0.0.0.0.0.0.0.0.0.0.r.Z.y.0.0.6.q.w.w.0.0.k k '.`.L.L.S.S., > 5 [ [ W W U U X X H H y.y.0.0.y.y.r.r.r.r.0.0.0.0.0.0.0.0.0.0.w.",
"0.0.0.0.0.0.0.0.0.0.0.C Z q.e.w.5.e.y.r.0.2 2 #X#XR R U Y r e f I Y ) ~ I Y < < Z.y.S S 0.0.y.u.S S q.q.0.0.0.0.0.0.0.0.0.0.0.",
"0.0.0.0.y.0.0.0.0.0.y.Z Z e.q.0.0.e.y.r.r.2 3 #X#XR R Y Y 5 : h Y Y ) ) Y Y < < y.m.S S 0.0.y.y.S q.q.q.0.0.0.0.0.0.0.0.0.0.y.",
"0.0.0.0.0.0.0.0.w.0.0.7.w.3.3.9.4.V V y.0.8 * ] ' / Q I I y 8 . 4 4 2 , . X D D A A y.e.V 5.5.5.4.7.7.4.0.0.0.0.0.0.0.0.0.0.0.",
"0.0.0.0.0.0.0.0.0.0.0.A 0.0.0.t.u.V.N.= 2 9 y | ( ....6 6 ; ; * k j X O 6 6 a a @ @ m.m.M.M.y.y.w.5.y.y.0.0.0.0.0.0.0.0.y.0.0.",
"y.w.0.0.0.0.0.0.0.0.w.A 0.0.w.r.r.N.B.5 8 9 j | | ....6 9 ; 5 * j j O O 6 6 a s @ @ m.m.t.M.y.Z.0.5.0.0.0.0.0.0.0.0.0.0.w.0.0.",
"0.w.0.0.0.0.0.0.r.w.0.0.0.w.w.r.r.2 2 & ; t = & & O 1 * % u u t 8 7 y y p i o .   $ % , y.N.C S e.0.w.0.0.0.0.0.0.0.0.0.0.0.0.",
"0.0.0.0.0.0.0.0.0.y.w.0.0.y.w.0.0.> > & = = * & & 2 1 $ * a y t * t y y p p . o $ > % % M.N.C S e.e.0.w.0.0.0.0.0.0.0.0.0.0.0.",
"0.0.0.0.0.0.0.0.0.0.0.0.0.0.w.0.w.Z F 3 3 2 4 + + = = 4 4 * . * - : 8 8 % = , , = % y.0.w.5.w.0.r.0.0.0.0.0.0.0.0.0.0.0.0.0.0.",
"0.0.0.0.0.0.0.0.0.0.0.0.0.0.0.0.0.S S 3 3 2 2 + i 2 ; 4 4 . . 1 : - 8 t = = , 2 % = y.M.w.w.w.w.0.0.0.0.0.0.0.0.0.0.0.0.0.0.0.",
"0.0.0.0.0.0.0.0.0.0.0.0.0.0.0.y.y.0.r.r.r.0.5.5.q.0.0.r.0.w.w.0.y.y.0.r.r.y.H H u.y.5.5.w.7.r.0.0.0.0.0.0.0.0.0.0.0.0.0.0.0.0.",
"0.0.0.0.0.0.0.0.0.0.0.0.0.0.0.p.p.0.0.r.y.0.0.q.0.0.0.0.r.y.y.0.y.p.r.0.r.0.H H y.y.5.5.0.y.0.0.0.0.0.0.0.0.0.0.0.0.0.y.0.0.0.",
"0.0.0.0.0.0.0.0.0.0.0.0.0.0.0.0.0.0.0.0.0.0.0.0.0.0.0.0.w.w.0.0.0.0.0.0.0.0.0.0.0.0.0.0.w.w.0.0.0.0.0.0.0.0.0.0.0.0.0.0.0.0.0.",
"0.0.0.0.0.0.0.0.0.0.0.0.0.0.0.0.0.0.0.0.0.0.0.0.0.0.0.0.w.0.0.0.0.0.0.0.0.0.0.0.0.0.0.0.w.r.w.0.0.0.0.0.0.0.0.0.0.0.0.0.0.0.0."
};
