/* XPM */
static char *result[] = {
/* columns rows colors chars-per-pixel */
"63 63 187 2 ",
"   c #1B0E05",
".  c #1B0B0C",
"X  c #191300",
"o  c #121208",
"O  c #1E1B0E",
"+  c #1B0E17",
"@  c #1A1617",
"#  c #1E1414",
"$  c #230502",
"%  c #220E04",
"&  c #2B0B04",
"*  c #26050B",
"=  c #2B070B",
"-  c #230D0C",
";  c #2C0E0D",
":  c #360607",
">  c #320B02",
",  c #241402",
"<  c #2D1304",
"1  c #231800",
"2  c #2D1900",
"3  c #24130B",
"4  c #2C110C",
"5  c #23190F",
"6  c #291A09",
"7  c #371100",
"8  c #36100F",
"9  c #290513",
"0  c #2B0C14",
"q  c #210D1E",
"w  c #2A0C1A",
"e  c #320B11",
"r  c #330B1A",
"t  c #251313",
"y  c #2C1415",
"u  c #24141C",
"i  c #2A141A",
"p  c #221819",
"a  c #321216",
"s  c #351419",
"d  c #252300",
"f  c #27291C",
"g  c #240B24",
"h  c #31102F",
"j  c #24282B",
"k  c #322E3C",
"l  c #1E690E",
"z  c #1A7203",
"x  c #197506",
"c  c #226C04",
"v  c #257400",
"b  c #277218",
"n  c #037B24",
"m  c #017C2D",
"M  c #087637",
"N  c #027C33",
"B  c #0C7E33",
"V  c #027E3C",
"C  c #137C32",
"Z  c #197E3C",
"A  c #0C7D41",
"S  c #167D42",
"D  c #287740",
"F  c #BA1E0F",
"G  c #B20D1A",
"H  c #A61518",
"J  c #A7181A",
"K  c #B7142B",
"L  c #B21739",
"P  c #FB3A54",
"I  c #FF385E",
"U  c #FC2A69",
"Y  c #EE356B",
"T  c #EB3B6A",
"R  c #F53662",
"E  c #FF3663",
"W  c #F43D64",
"Q  c #F4326B",
"!  c #FE356A",
"~  c #F43B6C",
"^  c #FE3573",
"/  c #FF357A",
"(  c #F93C78",
")  c #E7406B",
"_  c #FF406C",
"`  c #188A00",
"'  c #018A1C",
"]  c #2B8B02",
"[  c #2A8E07",
"{  c #318700",
"}  c #368D00",
"|  c #259300",
" . c #2A9300",
".. c #2B9906",
"X. c #329705",
"o. c #278C12",
"O. c #2F8E10",
"+. c #259411",
"@. c #3AB705",
"#. c #3CBF01",
"$. c #33BF08",
"%. c #3ABD17",
"&. c #008324",
"*. c #01842C",
"=. c #0B852E",
"-. c #018C2B",
";. c #078D29",
":. c #118024",
">. c #018635",
",. c #0B8534",
"<. c #018A35",
"1. c #088933",
"2. c #02853A",
"3. c #0C843C",
"4. c #018B3B",
"5. c #09893D",
"6. c #148638",
"7. c #11853D",
"8. c #029032",
"9. c #00913D",
"0. c #08903E",
"q. c #2A8538",
"w. c #42BC02",
"e. c #5DBE0C",
"r. c #2DC200",
"t. c #36C605",
"y. c #3AC201",
"u. c #33CA00",
"i. c #35C50C",
"p. c #46C103",
"a. c #41FF00",
"s. c #49FC03",
"d. c #54FF0C",
"f. c #018542",
"g. c #0A8341",
"h. c #008A43",
"j. c #0B8B41",
"k. c #03844C",
"l. c #039242",
"z. c #089340",
"x. c #009050",
"c. c #00BE58",
"v. c #00946A",
"b. c #0F8E70",
"n. c #079474",
"m. c #05C54B",
"M. c #00C759",
"N. c #F4AF03",
"B. c #FFAD05",
"V. c #FFAF0B",
"C. c #E7B703",
"Z. c #F4B100",
"A. c #FCB301",
"S. c #F4BC01",
"D. c #FABB01",
"F. c #F9B70B",
"G. c #FAB913",
"H. c #FFBB21",
"J. c #EBC600",
"K. c #FDC303",
"L. c #055AD7",
"P. c #0063CC",
"I. c #006CDE",
"U. c #0078D2",
"Y. c #065DF8",
"T. c #0063E1",
"R. c #016DE3",
"E. c #1560E0",
"W. c #006CF0",
"Q. c #6BFFAA",
"!. c #7BF8AA",
"~. c #6FFFB0",
"^. c #73FFB5",
"/. c #2B9AF9",
"(. c #369CFE",
"). c #1FACF1",
"_. c #28A6FA",
"`. c #2FA0FF",
"'. c #5DBDED",
"]. c #55BDFF",
"[. c #58BEFE",
"{. c #55C3F4",
"}. c #5BC5FC",
"|. c #82BBD6",
" X c #EEA0CA",
".X c #F3A0D6",
"XX c #F89CE5",
/* pixels */
"-.-.>.>.>.>.>.>.>.>.>.>.>.>.>.>.>.>.4.>.>.>.>.>.>.>.>.>.>.>.>.>.>.>.>.>.>.>.>.>.>.>.>.>.>.>.>.>.>.>.4.>.>.>.>.>.>.>.>.>.>.>.>.",
"-.-.>.>.>.>.>.>.>.>.>.2.>.>.>.>.>.>.<.>.>.>.>.>.>.>.>.>.>.>.>.2.>.>.>.>.>.>.>.>.>.>.>.>.>.>.>.>.>.>.>.>.>.>.>.>.>.2.>.>.>.>.>.",
"<.>.*.>.>.,.>.>.>.>.>.>.>.>.>.>.>.>.>.>.>.>.>.>.>.>.>.>.>.>.>.>.>.>.>.>.>.>.>.>.>.>.>.>.>.>.>.>.>.>.>.>.5.>.>.>.>.>.>.>.>.>.>.",
"<.>.<.>.,.,.>.>.>.>.>.>.>.>.>.>.>.>.>.>.>.>.>.>.>.>.>.>.>.>.>.>.>.>.>.>.>.>.>.>.>.>.>.>.>.>.>.>.>.>.>.>.2.>.>.>.>.>.>.>.>.>.>.",
"2.>.>.>.>.>.>.>.>.>.>.>.>.>.>.>.>.>.>.>.>.*.*.>.>.>.>.g.g.2.2.*.;.>.1.5.*.*.>.>.>.>.>.>.>.>.>.>.>.>.>.>.2.>.>.>.>.>.>.>.>.>.>.",
">.>.>.>.>.>.>.>.>.>.>.>.>.>.>.>.>.>.2.2.>.*.*.>.>.>.>.g.g.2.2.*.*.>.2.1.*.*.>.>.>.>.>.>.>.>.>.>.>.>.>.>.2.2.>.>.>.>.>.>.>.>.>.",
"2.>.>.>.>.>.>.>.>.>.2.>.>.>.>.>.>.>.>.h.f.A A 4.9.*.&.<.>.7 4 8 O O B B 4.4.*.,.1.1.>.1.>.>.>.>.>.>.>.>.>.>.>.>.>.>.>.>.2.>.>.",
"2.>.>.>.>.>.>.>.>.>.>.>.>.>.>.>.>.>.>.h.f.g.A 9.4.&.*.4.4.4 < e O O B B <.9.,.*.;.;.2.<.>.>.>.>.>.>.>.>.>.>.>.>.>.>.>.2.2.>.>.",
">.2.>.>.<.>.>.>.>.>.>.>.>.>.>.>.>.m m -.-.=.=.*.*.<.*.e e  X X^ H H i y >.>.>.>.S S N 2.-.&.>.>.>.>.>.>.>.2.>.>.>.>.>.2.2.>.>.",
"2.>.>.>.*.>.>.>.>.>.>.>.>.>.>.>.>.N m -.-.=.=.*.*.-.<.e e  X X^ H H r y >.N 1.>.S S V N -.-.>.>.>.>.>.>.>.>.>.>.>.>.>.2.2.>.>.",
">.>.>.>.,.,.>.>.>.>.>.>.>.>.<.N N 4.9.&.' g.g.w t 3 . y s 9 9 u t i ; 0 3 6 >.>.&.&.1.<.>.h.>.m >.>.>.>.>.>.>.>.>.>.>.2.2.>.>.",
">.>.>.>.>.>.>.>.>.>.>.>.>.m m 4.4.C C y a , , l l [ +.` ` X.X.| | | | | b b s a t p V 2.4.9.<.<.-.-.>.>.>.>.>.>.>.>.>.2.2.2.>.",
">.2.>.>.>.>.>.>.>.>.>.>.>.N m 9.4.C C y i , , l l +.[ ` ` X.....+.] | | b b a a u t V V 4.9.<.<.-.-.>.>.>.>.>.>.>.>.>.2.2.>.>.",
">.>.>.>.>.>.>.>.>.>.>.>.>.<.>.8.8.2 2 } { @.w.#.y.e.e.#.y.r.r.t.p.w.O.O.} {  . .b b > > N >.<.4.k.k.<.*.>.>.>.>.>.>.>.>.>.>.>.",
">.4.>.>.>.>.>.>.>.>.>.>.>.>.>.<.8.2 2 } } @.@.y.y.e.e.#.#.t.$.t.p.i.O.O.{ {  . .b b > : 1.,.4.2.k.k.>.<.>.>.>.>.>.>.>.>.>.>.>.",
">.>.>.>.>.>.>.>.>.>.>.>.4.6.6.< , q.q.r.r.d.d.a.a.a.s.u.u.w.w.y.#.y.t.t. . .| ] [ [ c c d d M M 1.2.*.>.2.>.>.>.>.>.>.>.>.>.>.",
">.2.>.>.>.>.>.>.>.>.>.>.2.6.6.& , q.q.r.r.d.d.a.a.s.s.u.u.w.w.y.#.y.t.y.|  .| | O.[ c c d d M M >.2.*.>.2.>.>.>.4.>.>.>.>.>.>.",
">.>.>.>.>.>.>.>.>.>.>.,.,.2.2.w w u.u.#.#.E E W W ! ! ~ ~ W W T I I P P ( ) ! ! ] | v c + @ *.&.2.2.<.>.2.>.>.>.2.>.>.>.>.>.>.",
">.>.>.>.>.>.>.>.>.>.>.>.>.>.2.w w u.u.#.y.E E W W ! ! ~ ! ) _ T I I P P ( ( ~ ! | ] v v @ # *.*.5.3.-.>.2.1.>.>.>.>.>.>.>.>.>.",
"2.4.>.>.>.>.>.>.>.>.1.m N 9.9.i w y.p.i.i.Y Y a a - - D.K.Z.Z.C.D.D.q q t y Y Y X.X.c c r r 1.4.4.2.>.<.2.2.2.>.>.>.>.>.>.>.>.",
"2.>.>.>.>.>.>.>.>.>.>.>.*.l.9.w 0 p.p.i.i.Y Y r a - - J.S.N.N.S.Z.D.+ g 4 4 Y Q X...v z r r >.5.2.2.<.>.5.>.>.>.>.>.>.>.>.>.>.",
">.2.>.>.>.>.>.>.>.>.<.7.6.m m 4 ; #.#.y.y.u @ F.F.D.D.@ @ F.G.H.> : S.S.A.A.; 4 ] ] v x 4 4 C C *.-.<.*.2.>.>.>.>.>.4.>.>.>.>.",
">.>.>.>.>.>.>.>.>.>.>.7.0.m m 4 y #.w.y.y.+ + S.S.S.D.@ @ V.G.G.: = S.S.A.A.; ; ] ] x b ; 3 C ,.;.&.>.<.2.>.>.>.2.4.2.>.>.>.>.",
"4.>.>.>.>.>.>.>.>.>.<.<.>.*.1.4 8 %.%.w.w.7 7 K.S.B.A.& & A.B.C.5 3 A.A.K.K.. 3 { } z z . . 7.7.<.<.<.*.2.>.>.>.>.>.>.>.>.4.>.",
"2.2.>.>.>.>.>.>.>.>.2.>.>.1.*.8 4 %.%.w.w.7 7 D.S.B.B.& & A.A.C.3 3 Z.A.K.K.3 . } X.z z . . 7.7.8.8.<.>.1.>.>.>.>.>.>.>.>.>.>.",
">.>.*.>.>.>.>.>.>.>.>.3.3.1.1.% % o.o.i.i.R W G.G.Z.Z.K.D.V.V.K.F.S.J.J.N.Z./ / X...v v @ # ,.=.&.*.*.>.2.>.>.>.>.>.>.>.>.>.>.",
">.>.>.>.>.>.>.>.>.>.>.3.3.1.1., % o.o.i.i.R R G.G.Z.Z.S.K.V.V.K.S.C.J.J.N.N./ / ..@.v z + + ,.,.-.*.<.<.2.>.2.>.>.>.>.>.>.>.>.",
">.>.>.>.>.>.>.>.>.>.>.7.3.*.&.x.x.1 , t 6 p p U U T ) W W P P R Y Y ^ ^ Q Q ] ] z x 9 9 l.4.>.2.>.>.<.*.2.>.2.*.*.>.>.>.>.>.>.",
">.>.<.>.>.>.>.>.>.>.>.7.7.*.*.x.x.1 1 3 6 p p U U T ) _ T P P R R Y ^ ^ Q Q  .] z z - 9 4.l.>.>.>.>.>.<.2.>.>.>.>.>.>.>.>.>.>.",
">.>.>.>.>.>.>.>.>.>.>.V >.-.&.a a ! ! .X XG G y t X.X.i.i.$.$.$.e.p.+.+.z z y y t 0 ;.;.n n A A >.>.>.>.1.2.>.*.*.>.>.>.>.>.>.",
">.>.>.1.>.>.>.>.>.>.>.2.2.&.&.a i ! ! .X.XG G 0 0 X.} i.i.t.$.$.p.p.+.+.z l y y a a ;.;.n n A A >.>.>.>.>.>.>.>.*.>.>.>.>.>.>.",
">.>.>.>.>.>.>.>.>.>.>.,.V <.<.+ - / / R R _ _ q q X X 0 e e e t - - < < - ; 4 4   O g g 8.<.>.=.>.>.>.>.>.>.>.*.>.>.>.>.>.>.>.",
">.>.>.>.>.>.>.>.>.>.>.>.>.j.j.  X L L Y Y F F = & (.(.{.{.`.`._.E.E.T.R.R.R.m.m.x.n.( ~ ; 4 >.>.>.>.>.>.>.>.>.*.<.>.>.>.>.>.>.",
">.>.>.>.>.>.>.>.>.>.>.>.>.5.3.X X L L T Y F F & = (.(.{.{.`.`._.E.E.I.I.R.R.m.c.v.v.Q ^ ; e 4.>.*.>.>.>.>.>.>.*.*.>.>.>.>.>.>.",
">.>.>.>.>.>.>.>.>.>.>.>.>.4.4.D D X X , O h h T.T.|.|.].[.{.}./.).).W.W.L.L.q q K K K G 6 , >.>.7.j.>.>.>.>.>.>.>.>.>.2.2.>.>.",
">.>.>.>.>.>.>.>.>.>.>.>.>.4.4.D D X X O 1 h h T.T.|.|.].[.{.}./.).).W.W.L.L.u u K K G G , , <.<.7.7.>.>.>.>.>.>.>.>.>.2.2.>.>.",
">.>.>.>.>.>.>.>.>.>.>.>.>.*.n l.l.N N N N o o k k j j f f Z.Z.D.r a 8 8 0 0 1 , < ; p i f.f.n C &.m <.<.>.>.>.*.*.>.>.2.2.>.>.",
">.>.>.>.>.>.>.>.>.>.>.>.>.m *.l.z.N N ,.,.o o k k j j f f Z.Z.D.r r 8 8 0 0 , 1 ; ; i p f.V :.:.m &.>.*.>.>.>.>.>.>.>.2.2.>.>.",
">.>.>.>.>.>.>.>.>.>.>.>.>.>.>.>.>.0.z.k.f.r r P.P.'.'.[.[.}.}.0 ~.^.!.!.n.n.X 3 >.N -.-.<.1.;.=.<.<.-.>.2.>.>.>.>.>.>.>.>.>.>.",
">.>.>.>.>.>.>.>.>.>.>.>.>.<.<.>.>.z.z.f.f.r r P.P.'.'.[.[.}.}.i ^.^.!.!.n.n.3 O >.V -.-.>.1.*.=.-.1.>.>.2.>.>.>.>.>.4.2.>.>.>.",
">.>.>.>.>.>.>.>.>.>.>.>.>.1.2.,.,.m m &.*.t 3 U.U.Y.W././._._.& c.c.~.~.v.v.r r V V >.*.7.7.V V h.h.>.>.1.>.>.*.*.>.>.2.2.>.>.",
">.>.>.>.>.>.>.>.>.>.>.>.>.1.3.,.,.m m n *.5 t U.U.Y.Y.`./._._.& c.c.~.~.v.v.0 0 V V *.>.7.7.V V h.h.>.>.2.>.>.>.>.>.>.2.2.>.>.",
">.>.>.>.>.>.2.>.>.>.>.>.<.m *.>.>.4.z.2.2.g g m.c.m.M.b.b.I.R.- / ( ~ ~ K K & - <.8.>.4.' n -.<.A 2.>.-.2.>.>.*.*.>.>.2.2.>.>.",
">.>.>.>.>.>.4.>.>.>.>.>.>.m m *.>.z.5.f.2.g g m.m.M.M.b.b.R.R.= / ( ~ ~ F K - $ <.8.4.>.n ' 8.8.f.2.>.>.2.1.>.>.*.>.>.2.2.>.>.",
">.>.>.>.>.>.>.>.>.>.>.>.>.4.4.<.>.*.*.;.;.3 - Q.~.m.m.v.v.& & y J H W W K K > : 4.<.m >.2.f.>.2.C C <.<.2.>.>.>.>.>.>.2.2.>.>.",
">.>.>.>.>.>.>.>.>.>.>.>.>.4.4.1.>.>.m -.*.- , Q.Q.m.m.v.v.> $ 4 J J W W K K : : <.>.N N f.f.>.>.C 6.>.*.2.>.>.>.>.>.>.2.2.>.>.",
">.>.>.>.>.>.>.>.>.>.>.>.>.2.1.>.N 3.3.4.>.w w XXXX^ / J J s s *.u i u u 3 - ' ' k.k.>.4.4.5.>.*.8.-.<.>.>.>.>.>.>.>.>.>.>.>.>.",
">.>.>.>.>.>.>.>.>.>.>.>.>.>.2.N >.5.3.4.>.w 0 XXXX( ^ J H s s *.w i u u - 5 ' ' x.k.4.4.4.>.*.*.<.-.<.>.>.>.>.>.>.>.>.>.>.>.>.",
">.>.>.>.>.>.>.>.>.>.>.>.>.>.>.>.>.>.>.2.3.% , ( _ Y Y L L & < <.2.3.6.=.;.<.>.*.>.4.3.Z >.4.>.*.>.2.>.>.>.2.>.>.>.4.2.>.>.>.>.",
">.>.2.4.>.>.>.>.>.>.>.>.>.>.>.>.>.>.>.g.g.X , ( ^ Q Q L L < < <.2.1.=.=.-.-.*.<.>.2.B g.>.4.>.>.>.1.>.>.>.>.>.>.>.>.>.>.>.>.>.",
">.>.>.>.>.>.>.>.>.>.>.>.>.>.>.>.>.>.N 2.4.7 > R Q ~ ~ 6 , Z Z <.*.*.>.N V B >.<.3.6.N >.5.5.>.4.,.B >.>.>.>.>.>.>.>.>.>.>.>.>.",
">.>.>.>.>.>.>.>.>.>.>.>.>.2.>.2.2.>.2.2.2.> & ~ ~ ~ ~ 6 6 Z Z >.&.*.>.>.B ,.4.>.6.3.>.>.2.5.4.>.B N >.>.>.>.>.>.>.>.>.>.>.>.>.",
">.>.>.>.>.>.<.<.>.>.>.2.>.<.<.>.<.>.<.>.>.5.5.6 4 % $ i t * $ y s i 6 6 2.2.3.5.>.*.m *.*.*.-.8.,.,.>.>.>.>.>.>.>.>.>.>.>.>.>.",
">.>.>.>.>.>.>.>.>.>.>.>.>.V >.>.2.N >.f.f.e e . . u u i i # # t . - 9 9 r i 5 5 f.2.2.2.5.4.>.2.2.4.>.>.>.>.>.>.>.>.>.>.>.>.>.",
">.>.>.>.>.>.>.>.>.>.>.>.>.N ,.V >.V >.f.f.: e . . u y i i @ p t - . 9 9 y a 5 5 2.f.2.2.z.4.>.>.2.2.>.>.>.>.>.>.>.>.>.>.>.>.>.",
"-.-.>.>.>.>.>.>.>.>.>.>.>.>.>.>.>.1.>.O O 3 - a a # t = = 5 4 ; 5 5 p u t 0 $ & < , j.j.N N 9.9.>.>.>.>.>.>.>.>.>.>.>.>.>.>.>.",
"-.-.2.>.>.2.>.>.>.>.>.>.>.>.>.<.>.>.>.O O 3 - a y t # = = 6 t ; O O u u t 0 $ $ < 1 0.j.N N 4.4.>.>.>.>.>.>.>.>.>.>.>.>.>.>.>.",
"4.4.>.>.>.>.>.>.>.>.>.<.<.>.>.>.>.>.>.Z Z %   % % y ; 4 y $ $ y 0 0 ; 3 3 < < 6 <.4.<.<.B 6.*.*.>.>.>.>.>.>.>.>.>.>.>.>.>.>.>.",
"4.4.>.>.>.>.>.>.>.>.>.*.>.>.>.*.>.<.>.Z S %   - % y y 4 4 $ $ y 0 = 3 ; < 3 < < 4.>.<.<.,.,.*.m >.>.>.>.>.>.>.>.>.>.>.>.>.>.>.",
"g.3.>.>.>.>.>.>.>.>.>.<.<.>.>.>.>.>.>.>.>.j.5.4.2.>.2.B ,.-.-.1.*.*.N N j.5.>.>.3.3.*.*.>.>.2.>.>.>.>.>.>.>.>.>.>.>.>.>.>.>.>.",
"3.3.>.>.>.>.>.>.*.>.1.>.>.>.>.>.*.>.>.>.>.j.j.4.2.2.4.B B -.-.1.*.*.N M j.j.>.>.1.2.>.*.>.>.>.>.>.>.>.>.>.>.>.>.>.>.>.>.>.4.>.",
">.>.>.>.>.>.>.>.>.>.>.>.>.>.>.>.>.>.>.>.>.>.>.>.>.>.>.>.>.>.>.>.>.1.>.>.2.1.>.>.>.>.>.>.>.>.>.>.>.>.>.>.>.>.>.>.>.>.>.>.>.2.>.",
">.>.>.2.>.>.>.>.>.>.>.>.>.>.>.>.>.>.>.>.>.>.>.>.>.>.>.>.>.>.>.>.>.>.>.>.>.>.>.>.>.>.>.>.>.>.>.>.>.>.>.>.>.>.>.>.>.>.>.>.>.>.>."
};
