/* XPM */
static char *result[] = {
/* columns rows colors chars-per-pixel */
"63 63 194 2 ",
"   c #1D0C06",
".  c #1B0708",
"X  c #160B0F",
"o  c #1D0B0A",
"O  c #1C1505",
"+  c #1E140D",
"@  c #18180C",
"#  c #1D0A19",
"$  c #1C1916",
"%  c #200703",
"&  c #240C05",
"*  c #2D0E00",
"=  c #21050E",
"-  c #250D0B",
";  c #2C0D0B",
":  c #330403",
">  c #320D06",
",  c #310508",
"<  c #340A0B",
"1  c #380D0F",
"2  c #261400",
"3  c #2A1302",
"4  c #211900",
"5  c #21120A",
"6  c #241B0D",
"7  c #351800",
"8  c #34120C",
"9  c #2B0510",
"0  c #220F16",
"q  c #2D0B12",
"w  c #27071F",
"e  c #260D1C",
"r  c #2B0E1B",
"t  c #310B15",
"y  c #3C0C11",
"u  c #350D1C",
"i  c #3A0919",
"p  c #231315",
"a  c #2A1415",
"s  c #241B17",
"d  c #241119",
"f  c #2B151D",
"g  c #2A1B1D",
"h  c #321317",
"j  c #0E2304",
"k  c #1B2309",
"l  c #1E2012",
"z  c #181820",
"x  c #2E0E25",
"c  c #340622",
"v  c #320E25",
"b  c #211325",
"n  c #2D1B29",
"m  c #1D2E26",
"M  c #2C2828",
"N  c #203526",
"B  c #25223F",
"V  c #056C03",
"C  c #196600",
"Z  c #146C00",
"A  c #1E6C00",
"S  c #1F7000",
"D  c #197800",
"F  c #207300",
"G  c #2C7500",
"H  c #2C6B10",
"J  c #22791B",
"K  c #0A7E24",
"L  c #027D2E",
"P  c #0A7E2C",
"I  c #0B7535",
"U  c #027D32",
"Y  c #0B7E33",
"T  c #007F3B",
"R  c #0E7A3A",
"E  c #147435",
"W  c #057C47",
"Q  c #AA0E0F",
"!  c #B71B0F",
"~  c #A61910",
"^  c #AB151C",
"/  c #B01C1A",
"(  c #AA2212",
")  c #B82211",
"_  c #AF1329",
"`  c #B4142C",
"'  c #B71D29",
"]  c #BD1431",
"[  c #A4222A",
"{  c #FF3348",
"}  c #FD385B",
"|  c #FC2A67",
" . c #EE3963",
".. c #F63266",
"X. c #FE3567",
"o. c #F33B63",
"O. c #FF3A65",
"+. c #F33B6B",
"@. c #FB2F74",
"#. c #E93A73",
"$. c #F43873",
"%. c #FC3B73",
"&. c #FC3379",
"*. c #FE405B",
"=. c #E24264",
"-. c #E74868",
";. c #FA4274",
":. c #1F8D00",
">. c #258D00",
",. c #2C8903",
"<. c #32880B",
"1. c #2C9300",
"2. c #249A03",
"3. c #2D9C00",
"4. c #339301",
"5. c #339800",
"6. c #36911A",
"7. c #3FB602",
"8. c #34BC02",
"9. c #3BBC00",
"0. c #37B919",
"q. c #018424",
"w. c #028B23",
"e. c #01852E",
"r. c #0A822D",
"t. c #018B2D",
"y. c #11832E",
"u. c #009424",
"i. c #00912C",
"p. c #018635",
"a. c #0A8335",
"s. c #018A34",
"d. c #098933",
"f. c #028539",
"g. c #0C843A",
"h. c #018B3A",
"j. c #0A893C",
"k. c #128136",
"l. c #009335",
"z. c #00923C",
"x. c #44BC07",
"c. c #35C300",
"v. c #3BC301",
"b. c #34C800",
"n. c #39C50A",
"m. c #37C216",
"M. c #43C301",
"N. c #49FE03",
"B. c #52FF09",
"V. c #40FA10",
"C. c #048342",
"Z. c #0B8341",
"A. c #018A43",
"S. c #018449",
"D. c #078A48",
"F. c #158440",
"G. c #009643",
"H. c #009A41",
"J. c #09BD5C",
"K. c #029166",
"L. c #F7AB00",
"P. c #EBB600",
"I. c #ECBC02",
"U. c #E9BA0A",
"Y. c #FCB400",
"T. c #F3BC00",
"R. c #FEBA01",
"E. c #FBB608",
"W. c #F6BD18",
"Q. c #FFBB1A",
"!. c #0264D1",
"~. c #006DD7",
"^. c #0268DA",
"/. c #0163EB",
"(. c #0669EB",
"). c #0070E3",
"_. c #0B6CF1",
"`. c #77FDB4",
"'. c #319EE3",
"]. c #3995FD",
"[. c #31A3EC",
"{. c #2BA6F9",
"}. c #32A4F8",
"|. c #32ABFC",
" X c #53BDEF",
".X c #59B4FF",
"XX c #6ABDFF",
"oX c #5EC1DE",
"OX c #4FCAFF",
"+X c #5AC5FD",
"@X c #82AEDD",
"#X c #F398D5",
"$X c #F9A2D9",
"%X c #F79EE3",
/* pixels */
"f.f.f.s.p.e.p.p.f.j.p.s.s.s.d.p.f.f.p.p.p.f.f.a.a.p.p.p.p.p.e.p.f.f.p.L f.f.p.p.s.s.p.s.p.p.p.p.p.p.f.p.p.p.p.p.p.p.e.s.p.p.p.",
"f.f.f.f.e.e.f.p.g.f.s.s.s.d.p.a.a.s.s.p.p.a.p.a.g.p.s.p.p.p.p.f.f.p.L L f.a.e.p.s.h.p.p.f.p.s.p.p.p.p.p.s.p.p.p.p.p.p.p.f.p.p.",
"f.f.f.p.e.p.p.p.g.f.p.e.e.p.e.e.p.j.f.g.j.p.p.p.p.e.s.d.p.j.p.p.s.j.p.p.j.g.a.a.a.U p.p.p.p.p.p.f.s.p.p.p.p.f.p.s.p.p.f.f.p.s.",
"f.f.f.p.e.e.f.p.f.f.e.p.s.e.a.p.a.f.f.j.g.p.a.p.p.e.e.d.a.p.j.p.j.p.p.p.j.d.p.U U a.p.f.p.p.s.p.p.p.p.p.p.p.s.p.p.p.p.p.p.p.p.",
"f.f.f.f.e.e.s.p.g.f.s.p.a.p.p.p.p.p.p.f.f.p.p.s.p.s.s.s.s.p.s.L p.e.p.p.s.h.s.s.h.s.p.s.p.p.p.f.s.p.p.p.p.p.p.s.s.p.p.f.f.p.p.",
"f.f.f.s.e.e.p.f.f.f.p.a.p.p.j.p.p.f.p.p.f.p.p.p.p.s.d.e.s.p.e.L e.p.p.p.h.f.s.s.h.h.p.p.p.p.p.p.p.p.f.p.p.f.p.p.p.p.r.s.f.p.s.",
"f.f.f.f.e.e.s.f.f.g.p.p.p.g.j.f.f.e.p.e.s.s.f.a.a.a.a.s.s.h.l.p.p.r.s.p.s.p.p.p.p.p.d.p.p.p.p.p.p.p.p.p.p.f.p.p.p.p.p.s.p.p.p.",
"f.p.f.p.e.p.p.p.f.f.e.p.p.j.g.p.p.p.p.p.s.s.s.g.a.a.a.i.s.l.h.p.s.p.p.s.p.e.p.p.f.g.p.f.f.p.s.p.p.p.p.p.s.p.p.p.p.p.p.f.f.p.p.",
"f.f.f.p.e.p.p.p.f.f.p.s.s.f.g.f.p.s.s.s.s.g.g.f.a.e.e.U Y U a.a.p.p.d.s.s.s.p.a.Y T s.p.p.p.p.p.p.p.s.p.p.f.p.p.p.p.p.p.f.p.p.",
"f.f.f.f.e.e.p.p.f.j.p.f.f.p.f.p.f.s.s.s.h.g.a.Y Y e.p.Y f.a.a.p.p.p.s.s.p.p.a.p.a.Y p.p.p.p.f.p.f.p.p.p.p.p.s.p.p.p.s.f.p.p.p.",
"f.f.f.s.e.e.p.f.f.f.s.p.f.U p.p.p.s.h.a.a.Y Y h.h.G.G.A.A.U f.p.p.e.a.e.p.d.s.s.s.f.p.p.s.p.s.p.s.p.p.p.p.p.p.f.p.p.p.p.f.s.p.",
"f.f.f.f.e.p.s.p.g.f.p.a.a.e.p.s.d.g.g.U U p.f.j.j.I I g.W L L G.s.p.e.p.a.a.p.a.p.p.f.p.p.p.p.p.p.f.p.p.p.p.s.p.p.p.p.p.f.p.p.",
"f.f.f.f.e.e.f.p.f.f.p.p.a.p.e.s.f.g.j.L e.f.f.j.f.I I g.g.L L A.s.h.p.e.a.a.a.p.s.p.p.p.p.p.p.p.p.p.p.p.p.p.p.p.p.p.p.s.p.p.p.",
"f.f.s.f.e.s.p.s.f.g.p.d.s.e.s.s.s.a.Y s.s.H.z.I I k 6 > > j j E f.h.e.e.d.d.p.p.p.p.p.p.p.p.p.p.p.p.p.p.p.p.p.p.p.s.p.p.f.p.p.",
"f.T p.f.e.e.p.f.f.f.p.d.d.e.e.s.s.a.r.p.e.H.H.I I k k 1 < j j E h.s.s.e.f.s.p.p.p.p.p.p.p.s.p.p.p.p.s.p.p.p.p.p.p.p.p.p.p.p.s.",
"f.f.p.f.e.e.p.p.j.f.p.P P f.p.f.p.t.e.k.k.s.d.= 9 $X#XX.X.^ ^ x g.g.s.f.s.s.W W s.s.U U a.r.p.g.h.s.p.s.p.j.j.s.s.p.p.p.f.p.p.",
"f.f.f.f.p.e.p.p.f.f.e.r.r.p.p.p.f.e.e.k.k.s.l.= = $X$XX.X.^ _ x g.g.f.s.s.s.W W s.s.U U a.e.p.p.s.s.p.s.a.j.j.s.s.p.p.s.f.p.p.",
"f.f.f.s.e.e.f.f.g.f.p.S.A.d.d.Y k.f.f.h.f.p.p.b b 3 3 $ p $ s 3 @ @ % & 1 1 A.h.q.q.z.G.s.s.Y a.j.j.e.p.p.U p.U f.p.p.f.p.p.p.",
"f.f.f.f.e.e.s.p.f.f.p.A.A.s.s.k.k.T T f.f.p.f.z b 2 3 p p z s 3 @ @ % & y y f.A.q.q.z.z.p.s.a.a.f.f.p.s.p.p.p.p.a.p.p.p.f.s.f.",
"f.f.f.s.e.e.f.p.f.g.s.j.j.T f.a.a.i.i.o - p p G G ,.,.1.4.>.>.2.1.1.4.4.Z Z g g 5 - e.a.f.U U L a.p.p.p.p.e.p.k.a.e.p.p.f.p.s.",
"f.f.p.f.p.e.p.p.f.j.p.j.j.T T a.a.t.i.- o p a G G ,.,.,.1.>.>.:.1.1.,.4.Z Z g g - - a.r.f.f.U L p.a.s.f.s.p.p.g.k.p.p.p.p.p.p.",
"f.f.f.p.e.e.p.p.g.f.p.s.s.K K s.t.w w 6.6.b.b.8.c.x.M.x.x.n.n.M.n.m.>.>.5.3.<.<.H H 4 4 D.C.z.G.p.e.D.j.P h.s.s.s.p.p.p.f.p.p.",
"f.f.f.f.e.e.s.f.f.f.s.p.s.K K t.s.w w 6.6.b.b.8.8.M.M.x.x.n.n.M.0.m.>.>.5.5.<.<.H H 4 4 D.D.z.z.e.p.j.j.P s.z.p.p.p.s.p.p.p.f.",
"f.f.f.s.e.p.p.p.g.p.p.p.p.l.z.8 8 ,.,.c.8.B.B.N.N.V.V.b.b.x.x.n.9.9.n.n.1.1.:.:.4.4.J J : : p.f.t.t.U U l.a.p.l.s.p.p.p.f.s.p.",
"f.f.s.f.e.e.s.p.f.f.p.d.p.z.z.8 8 <.,.8.8.B.B.N.N.V.V.b.b.x.x.8.9.9.n.c.1.1.>.:.4.4.J J : : f.f.t.t.Y U l.f.f.s.l.p.p.p.p.p.p.",
"f.f.f.f.p.e.p.p.g.f.s.W W U U 2 O M.M.b.b.N.N.&.&.*.*. .o.o.+.&.O.}  ...%.%.@.@.%.+.C C a a h.j.e.p.F.F.e.f.f.p.e.p.p.p.f.p.p.",
"f.f.p.f.e.e.p.f.g.f.s.C.C.L U     M.v.b.b.N.N.&.&.*.*. .o.o.o.%.O.O.o. .+.%.@.@.+.;.C C a a j.h.e.e.g.k.e.f.f.e.p.p.p.p.f.p.p.",
"f.T f.p.e.p.p.p.f.f.p.r.a.i.i.0 d v.v.c.c.c.c.+. .Y.E.p p R.R.L.P.P.W.W.5 5 R.R.....D D a f U U r.e.Z.D.e.C.j.p.d.p.p.f.s.p.p.",
"f.f.f.s.e.e.s.p.g.j.p.a.a.i.i.d d 9.9.b.c.v.v.+.+.E.Y.p a R.R.L.P.P.W.W.; 5 R.R.X.X.D D a a Y U e.e.Z.Z.e.C.g.f.p.p.p.p.f.p.p.",
"f.f.f.f.e.p.p.p.f.f.p.U p.A.h.& 3 m.m.x.x.v.c.X.X.R.Y.e w T.T.R.Y.Y.P.I.u u I.I.+.+.S S t t f.f.t.l.f.f.e.f.C.p.p.p.e.s.p.p.s.",
"f.f.f.f.e.e.p.f.f.g.p.p.U h.h.2 2 m.m.x.x.v.b.O.X.Y.Y.w e T.T.T.Y.Y.I.I.u u I.I.+.o.S S t t f.p.t.t.f.f.e.C.j.f.p.p.p.f.f.p.p.",
"f.f.s.f.e.p.p.p.f.f.e.g.p.p.p.> ; 9.9.M.v.M.v.#.#.E.E.& & Q.Q.T.E.T.T.E.o o R.R.....G G 9 9 h.f.r.e.j.f.i.Y R e.r.p.p.s.f.p.p.",
"f.f.f.p.e.e.p.p.f.j.e.p.s.p.p.c c 3.3.8.8.b.b.%.$.Y.Y.f g P.P.P.Y.R.E.E.1 1 U.U.%.%.V V a s d.a.s.e.h.G.e.f.f.s.l.e.p.p.f.p.p.",
"f.f.p.f.p.e.p.s.f.f.p.p.p.p.p.c c 5.3.c.9.v.v.+.+.Y.Y.g g P.Y.Y.R.Y.E.E.1 1 U.U.%.%.V V 6 s g.d.t.e.h.h.e.f.p.s.s.s.p.p.f.s.p.",
"f.f.f.f.e.e.p.p.f.f.p.w.w.Z.Z.s.z.. . 5.4.x.9.0.0.+.+.X.X.} } &.-.-.{ { &.$.*.{ A A 7 7 f.f.e.e.a.a.f.p.a.p.f.l.s.p.p.p.p.p.p.",
"f.f.f.s.e.p.p.f.f.g.p.q.w.Z.Z.l.h.. . 4.5.9.9.0.0.#.$.X.X.} O.&.-.-.{ { &.%.} } A A 7 7 A.f.e.L a.a.a.p.a.f.U s.l.p.s.p.f.p.p.",
"f.f.s.f.p.e.s.p.f.g.s.d.d.p.U C.f.A.G.p 0 ; ; F F 2.2.x.v.9.9.9.7.8.3.2.Z Z @ l c i W R d.s.s.l.e.U h.h.T s.s.a.a.p.p.s.f.p.p.",
"f.f.f.f.e.e.f.p.f.f.p.a.d.U U f.C.z.h.# 0 ; ; F F 2.2.n.M.v.9.8.8.7.3.3.D Z $ $ i i W W f.j.l.h.e.p.s.z.Y s.s.a.a.p.p.p.p.p.f.",
"f.f.p.p.e.e.s.p.f.g.s.h.A.Z.W t.t.e.Y S.S.y y o & : * z z ; & f v v X X u u p p 5 5 5 5 e.p.p.e.h.s.Y P f.p.s.g.a.p.p.f.f.p.s.",
"T f.f.f.e.e.p.f.f.f.p.h.h.R Z.i.t.r.L S.S.y y o o : , $ z ; ; f v v X X v u # p   + o & e.e.e.s.s.s.Y Y f.s.s.p.a.s.r.s.p.p.p.",
"f.f.f.s.p.e.p.s.j.f.p.w.w.y.P e.e.u.u.d d `.`.^.^.|.}. X X[.[.{.!.!._._.* > } X.%.%.] ] 8 8 z.h.L e.p.s.s.f.f.s.p.p.p.f.f.p.f.",
"f.f.f.f.e.e.f.f.g.f.s.w.w.k.r.e.p.u.u.d d `.`.^.^.|.}. X X[.[.{.!.!._._.* * } } $.%.] ] 8 8 h.z.e.e.d.f.h.f.f.p.p.p.s.p.p.p.p.",
"f.f.f.f.e.e.p.p.j.f.p.k.Y p.p.Z.C.p.p.; ; $ $ _._.@X@XXXXXoXoX}.].]././.- - #X#X;.O.Q Q f f p.f.t.e.U p.d.h.f.e.p.e.p.p.f.p.s.",
"f.f.s.f.e.e.f.p.f.f.p.R k.p.r.A.f.p.p.: , $ $ _._.@XoXXXXXoXoX}.].]././.5 5 #X#X .-.Q Q f f U f.t.e.f.f.l.f.h.s.p.p.p.f.p.s.p.",
"f.f.f.p.e.e.p.p.f.f.e.s.s.f.f.t.r.f a +.-.: > M M M N B B M B Y.I.T.N N q q ` ` ~ ^ ) ) # # S.A.y.y.s.s.r.T f.p.p.d.p.p.p.p.p.",
"f.f.f.p.e.e.s.f.g.f.p.s.s.f.s.r.r.r r +.+.: : M M N m B B M M P.I.I.N N q 9 ] ` / / ) ) # # A.A.y.r.s.s.d.f.T d.a.p.p.p.f.p.p.",
"f.f.f.f.e.e.f.p.f.f.e.f.f.f.p.j.A.q.r.0 p a a /./.+X+XOXOX.X.X{.}.}.~.^.).).8 8 # d > > Z.f.h.h.f.f.U L a.s.s.s.s.p.p.p.f.s.p.",
"f.f.f.s.e.p.p.s.f.g.p.T f.a.f.A.h.r.q.0 0 p 5 /./.+X+XOXOX.X.X{.}.}./.^.).).q 8 d d > > W C.h.z.s.f.e.p.a.s.s.e.s.s.p.p.p.f.p.",
"f.f.s.f.e.e.p.p.f.g.p.d.h.f.f.w.w.f.f.j.f., , $ l !.!.'.'.[.[.].~.~.(.(.!.!.y < A.A.s.f.h.z.L P p.p.h.s.j.p.p.p.p.p.e.p.p.p.p.",
"f.f.f.f.p.e.p.p.f.j.p.s.s.f.f.w.w.p.f.j.j., , $ l !.!.'.[.{.[.].~.~.(.(.!.!.< y h.A.f.s.h.s.Y P p.a.h.s.j.p.p.e.p.d.p.p.f.p.p.",
"T f.f.f.e.e.s.f.f.f.p.f.f.a.a.e.p.S.A.4   %X%X....9 t J.J.O O g K.K.K.K.e f e.t.s.s.h.z.e.L d.r.d.d.a.j.p.U U a.p.p.p.p.f.p.p.",
"f.f.p.p.e.p.p.p.g.f.p.f.f.T a.a.r.S.S.4 4 %X%X} ..t q J.J.O k g K.K.K.K.e f r.t.s.s.z.h.L P d.d.d.d.j.a.f.U p.g.a.p.p.p.p.s.p.",
"f.f.f.s.e.e.p.p.g.f.p.a.d.e.e.D.D.K K 0 o %X%X=.=.;.;.v v ; ;   [ [ _ _ 5 p 9 9 t t U I g.g.h.d.e.s.e.e.f.j.f.s.s.p.p.s.f.p.p.",
"f.f.f.f.e.p.p.p.f.f.s.a.a.t.l.t.t.b b 3 3 *.*.| | ~ ~ 5 + p $ 1 _ ` / / ( ( 3 3 6 5 k k f.f.h.f.s.s.s.e.j.f.h.e.e.p.p.p.p.s.f.",
"f.f.f.f.e.e.s.f.f.g.p.a.a.s.t.t.t.b z 3 4 *.*.| | ~ ~ 5 + $ p 1 ` ` / / ( ( 3 * O 5 k k Y T h.h.s.f.p.p.j.h.s.p.e.p.p.f.f.p.p.",
"f.f.s.f.e.p.p.p.f.p.p.T f.e.e.Z.g.t h y y # # ' ' ! ! 0 0 < < + < ; h u - ; n n = = ; ; f.C.f.f.Z.j.U f.a.e.s.r.r.p.p.f.s.p.p.",
"f.f.f.f.p.e.p.s.f.f.p.T f.e.e.Z.Z.8 h y y # # ' ' ! ! p 0 < < + ; ; h u ; - n n = . : > f.T f.f.j.F.p.a.a.p.p.r.P p.p.p.p.p.p.",
"f.f.p.p.e.e.p.p.j.f.p.s.s.l.j.q.e.P P r r 6 6 . # e b - - 6 6 q * * ; ; * * % % u i f.A.H.G.U U a.p.p.p.a.p.p.s.s.p.p.p.f.p.p.",
"f.f.f.f.e.e.p.f.g.f.p.s.s.j.j.e.q.r.P r r 6 6 o . x b - - 6 6 0 * * ; ; 3 * %   i i T C.H.G.L L p.a.f.p.a.f.p.s.s.p.p.p.p.s.p.",
"f.f.f.p.e.p.p.p.f.f.s.s.s.R R h.h.e.s.e.e.t.s.A.A.a.r.s.s.P P A.e.t.S.S.A.A.s.s.s.p.p.f.L e.s.s.s.s.s.f.a.p.f.s.s.p.p.p.f.p.f.",
"f.f.f.f.e.p.p.s.f.g.p.s.s.R R h.h.s.s.e.p.t.t.z.h.a.r.f.s.r.r.A.t.t.S.S.A.A.l.s.t.s.s.f.e.L s.e.t.s.s.f.f.f.p.s.s.s.p.p.f.p.p.",
"p.p.p.p.p.s.p.p.p.p.p.p.p.p.p.p.p.s.p.p.p.s.p.p.p.s.s.p.p.p.f.p.p.s.p.p.p.p.p.p.s.p.p.p.p.p.p.p.p.p.p.p.p.p.p.p.p.p.p.p.p.p.p.",
"p.p.p.p.p.p.p.p.p.s.p.p.p.p.p.p.s.p.p.p.p.p.p.p.p.p.p.p.p.p.p.p.p.p.p.p.p.p.p.p.p.p.p.p.p.p.p.p.p.p.s.p.p.p.p.p.p.p.s.p.p.s.p."
};
