/* XPM */
static char *result[] = {
/* columns rows colors chars-per-pixel */
"63 63 176 2 ",
"   c #1E0C00",
".  c #1D0C0D",
"X  c #1C1203",
"o  c #1C1C02",
"O  c #1E150B",
"+  c #1C1908",
"@  c #1E1412",
"#  c #19111E",
"$  c #240403",
"%  c #240E00",
"&  c #2B0C02",
"*  c #260A0C",
"=  c #2C0C0C",
"-  c #300000",
";  c #330E04",
":  c #310B0A",
">  c #251703",
",  c #261A05",
"<  c #24120C",
"1  c #2C120F",
"2  c #27190E",
"3  c #33170C",
"4  c #331908",
"5  c #210211",
"6  c #2B0715",
"7  c #270C13",
"8  c #2C0A13",
"9  c #250D1C",
"0  c #28081F",
"q  c #320C13",
"w  c #390911",
"e  c #340A1D",
"r  c #231311",
"t  c #2B1315",
"y  c #23131C",
"u  c #281818",
"i  c #281819",
"p  c #321311",
"a  c #162810",
"s  c #27210B",
"d  c #242F1F",
"f  c #1F1A21",
"g  c #230924",
"h  c #221923",
"j  c #1B2924",
"k  c #342635",
"l  c #196D03",
"z  c #197802",
"x  c #1F720A",
"c  c #246703",
"v  c #226B00",
"b  c #2B6B00",
"n  c #326C05",
"m  c #30690A",
"M  c #227817",
"N  c #077925",
"B  c #037B2C",
"V  c #097E2F",
"C  c #047E31",
"Z  c #017B3A",
"A  c #0C7B46",
"S  c #127E42",
"D  c #9A1216",
"F  c #B30E0C",
"G  c #AD1518",
"H  c #B3151D",
"J  c #9A1A27",
"K  c #AE1B29",
"L  c #B11020",
"P  c #A71C31",
"I  c #A62122",
"U  c #AB2027",
"Y  c #C41534",
"T  c #EA355E",
"R  c #FB365F",
"E  c #F23C5F",
"W  c #FE3C63",
"Q  c #FF366D",
"!  c #F53868",
"~  c #EC367B",
"^  c #F53777",
"/  c #FF3177",
"(  c #FA3C76",
")  c #FF367A",
"_  c #FD4162",
"`  c #1F9600",
"'  c #1F900A",
"]  c #008B13",
"[  c #248B02",
"{  c #2A8E00",
"}  c #2F8B0C",
"|  c #358704",
" . c #308D00",
".. c #358C0A",
"X. c #2B9102",
"o. c #2C9E01",
"O. c #2B9A09",
"+. c #339201",
"@. c #399210",
"#. c #30941A",
"$. c #37B700",
"%. c #35BC02",
"&. c #3CBB01",
"*. c #34BC10",
"=. c #008523",
"-. c #018B25",
";. c #01852D",
":. c #0C8529",
">. c #00892D",
",. c #098928",
"<. c #018635",
"1. c #0A8532",
"2. c #018B34",
"3. c #0A8A33",
"4. c #02843B",
"5. c #0A843B",
"6. c #018B3B",
"7. c #0A8B39",
"8. c #029136",
"9. c #00993A",
"0. c #468F0C",
"q. c #47AF00",
"w. c #43BC03",
"e. c #48BD08",
"r. c #40BB12",
"t. c #2CC500",
"y. c #28C207",
"u. c #2CCC02",
"i. c #34C501",
"p. c #3BC402",
"a. c #30CB01",
"s. c #3CC902",
"d. c #32C70B",
"f. c #3AC209",
"g. c #3AD00D",
"h. c #29C712",
"j. c #42C101",
"k. c #42C70A",
"l. c #51C200",
"z. c #018343",
"x. c #0E8443",
"c. c #048B44",
"v. c #0A8946",
"b. c #008A4A",
"n. c #188C4F",
"m. c #009046",
"M. c #088858",
"N. c #03955A",
"B. c #009B66",
"V. c #00926D",
"C. c #01C265",
"Z. c orange",
"A. c #E7BE00",
"S. c #F4B201",
"D. c #F5BB00",
"F. c #FDBB00",
"G. c #FDB20B",
"H. c #F9B808",
"J. c #005FDF",
"K. c #0070CB",
"L. c #0C60E7",
"P. c #006FE5",
"I. c #0269E9",
"U. c #75FFAA",
"Y. c #3798E5",
"T. c #389DEB",
"R. c #31A0F2",
"E. c #33A0FF",
"W. c #3BA2FF",
"Q. c #4399FF",
"!. c #59B9F6",
"~. c #64BDF5",
"^. c #47C7F6",
"/. c #82B4CF",
"(. c #F795EA",
"). c #E8A8E5",
/* pixels */
"<.<.<.<.<.<.<.<.<.<.<.<.4.<.<.<.<.<.<.<.<.<.<.<.<.<.<.<.<.<.<.<.<.<.<.<.<.<.<.<.<.<.<.<.<.<.<.6.<.4.<.<.<.<.6.<.<.<.<.<.<.<.<.",
"<.<.<.<.<.<.<.<.<.<.<.<.<.<.<.<.<.<.<.<.<.<.<.<.<.4.<.<.<.<.<.<.<.<.<.<.<.<.<.<.<.<.<.<.<.<.<.<.3.4.<.<.<.<.<.<.<.<.<.<.<.<.6.",
"<.<.<.<.<.<.<.<.<.<.<.<.<.<.<.<.<.<.<.<.<.<.<.<.<.<.<.<.<.4.<.<.<.<.<.<.<.<.<.<.<.<.<.<.<.<.<.2.>.<.>.<.>.<.3.2.>.<.<.<.<.<.<.",
"<.<.<.<.<.<.<.<.<.<.<.<.<.<.<.<.<.6.4.<.<.<.<.<.<.<.<.<.<.<.<.<.<.<.<.<.<.<.<.<.<.<.<.<.<.<.>.<.<.>.<.>.<.>.<.>.<.2.<.<.<.<.<.",
"<.<.4.<.<.<.<.<.<.<.<.<.<.<.<.<.<.<.<.<.<.<.<.<.6.4.<.<.<.<.<.<.<.<.<.<.<.<.<.<.<.<.<.<.<.<.<.4.<.<.<.<.<.4.<.<.<.<.<.<.<.<.<.",
"<.<.<.<.<.<.<.<.<.<.<.<.<.<.<.<.<.<.<.<.<.<.<.<.<.<.<.<.<.<.<.<.<.<.<.<.<.<.<.<.4.<.<.<.<.<.<.<.<.<.<.<.<.<.<.<.<.<.<.<.<.<.<.",
"<.<.<.<.<.<.<.<.<.<.<.<.<.<.<.<.<.<.<.<.<.<.<.<.<.<.<.<.<.<.<.<.<.6.<.<.<.<.<.<.<.<.<.<.<.<.<.<.<.<.<.<.<.<.<.<.<.<.<.<.<.<.<.",
"<.<.<.<.<.<.<.<.<.<.<.<.<.<.<.<.<.<.<.<.<.<.<.<.<.<.<.<.<.<.<.<.<.<.<.<.<.<.<.<.<.<.<.<.<.<.<.<.<.<.<.<.<.<.<.<.<.4.<.<.<.<.<.",
"<.<.<.<.<.<.<.<.<.<.<.<.<.<.4.6.z.4.<.2.2.<.3.5.5.<.<.C 4.Z 5.4.<.<.<.4.3.7.6.2.<.<.4.<.>.2.<.<.<.<.>.<.<.<.<.<.>.<.<.<.<.<.<.",
"<.<.<.<.<.<.<.<.<.<.<.<.<.<.6.z.6.<.<.6.6.<.<.5.5.C C <.<.C Z <.<.<.<.6.7.5.<.<.<.6.<.<.<.<.2.<.>.<.>.<.<.<.>.<.<.<.<.<.<.<.<.",
"<.<.<.<.<.<.<.<.<.<.<.<.<.<.6.<.<.>.=.2.>.2.;.:.:.6.6.<.>.5.5.,.<.>.4.Z <.2.:.:.C C b.b.<.<.<.<.<.<.<.<.<.<.<.<.<.<.<.<.<.<.<.",
"<.<.2.<.<.<.<.<.<.<.<.<.4.;.;.4.4.M.M.6.5.N N c.v.B ;.4.4.4.4.=.B <.c.c.4.<.<.2.3.<.-.-.<.<.<.<.<.<.<.<.<.<.<.<.<.<.<.<.<.<.<.",
"<.<.<.>.<.<.<.<.<.<.<.<.<.<.<.Z Z M.M.5.6.N N v.c.B B 4.4.4.4.,.;.;.v.c.C C 2.2.1.3.-.-.<.<.<.<.<.<.<.<.<.<.<.<.<.<.<.<.<.<.<.",
"<.<.>.<.<.<.<.<.<.<.<.<.<.,.,.C 4.<.<.>.>.6.6.1.<.z.z.8.8.z.6.>.1.1.4.4.o o = 8 e e >.>.<.<.<.<.<.<.<.<.<.<.<.<.<.<.<.<.<.<.<.",
"<.<.2.<.<.<.<.<.<.<.4.<.<.,.,.4.C <.>.C <.6.6.5.3.z.z.2.2.4.z.=.1.1.4.4.o o = 7 e e >.;.<.<.<.<.<.<.<.<.<.<.<.<.<.<.<.<.<.<.<.",
"3.<.<.>.<.<.<.<.<.<.<.<.<.c.6.8.2.4.4.v.v.<.5.] =.-.-.x.5.<.<.x.2.>.= * (.(.) ) G G y y <.<.<.<.<.<.<.<.<.<.<.<.<.<.<.<.<.<.<.",
"<.<.>.2.<.<.<.<.<.<.<.<.<.6.6.8.8.4.4.v.v.4.<.=.] ;.-.5.5.4.;.x.2.>.8 = (.(.) ) G G i y <.<.<.<.<.<.<.<.<.<.<.<.<.<.<.<.<.<.<.",
"<.<.<.<.<.<.<.<.<.<.<.<.<.Z Z <.<.=.;.;.;.x.5.r u w w 7 8 , , * 8 : + + R W I I H H = % <.<.<.<.4.<.<.<.<.<.<.<.<.<.<.<.<.4.<.",
"<.1.<.>.<.<.6.<.<.<.<.<.<.Z Z ,.;.=.=.B ;.4.5.u u w w = 7 , , . 7 7 + + R R I I H L & & <.<.<.<.<.<.<.<.<.<.<.<.<.<.<.<.<.<.<.",
"<.3.<.<.<.<.4.<.<.<.<.<.<.b.b.>.2.>.>.h f 7 t v v +.+.+.X.....+.` ` l l 2 2 . . o + S x.<.<.<.<.<.<.<.<.<.<.<.<.<.<.<.<.<.<.<.",
"<.<.>.<.<.<.<.<.<.<.<.<.<.b.b.2.2.-.;.h h 7 7 v v +.+.X.X.....+.[ [ l l < 2 . . o + S S <.<.<.<.<.<.<.<.<.<.<.<.<.<.4.6.<.<.<.",
"2.<.<.>.<.<.<.<.<.<.<.<.<.N N v.v.; : [ [ t.t.s.k.q.q.h.h.f.i.y.0.0.#.@.` ` n n % > A 4.<.<.<.<.<.<.<.<.<.<.<.<.<.<.<.<.<.<.<.",
";.<.<.>.<.<.<.<.<.<.<.<.<.=.N c.v.; ; } } t.t.s.s.q.q.h.h.f.f.y.0.0.@.@.` ` n n %   z.4.<.<.<.<.<.<.<.<.<.<.<.<.<.<.<.<.<.<.<.",
"3.<.<.<.<.<.<.<.<.<.<.<.<.m.m.X X | ..k.k.i.%.w.w.d.d.j.&.t.t.l.%.%.{ { O.O.| | M M O < <.<.<.<.<.<.<.<.<.<.<.<.<.<.<.<.<.<.<.",
"<.3.>.<.<.<.<.<.<.<.<.<.<.b.m.X X | ..k.k.%.i.w.w.d.d.w.p.i.i.l.%.%.{ X.O.O. . .M M . . <.4.<.<.<.<.<.<.<.<.<.<.<.<.<.<.<.4.<.",
"<.<.<.<.<.<.<.<.<.<.<.<.<.z.Z , , _ _ ^ ! ~ ^ R W s.p.t.t.&.&.d.w.&.i.i.X.X.` ` z z : w <.<.<.<.<.<.<.<.<.<.<.<.<.<.<.<.<.<.<.",
"<.<.<.>.<.<.<.<.<.<.<.<.<.Z 4.< > _ _ ! ( ~ ~ R ! %.f.t.t.p.p.d.&.&.i.i.{ X.X.` z z w w <.<.<.<.<.<.<.<.<.<.<.<.<.<.<.<.<.<.<.",
"2.<.<.<.<.<.<.<.<.<.<.<.<.3.3.8 6 A.A.* * D.G.F.F.Q ^ e.e.j.w.i.e.r.w.w.} } O.O.b c h g <.<.<.<.<.4.<.<.<.<.<.<.<.<.<.<.<.<.<.",
"<.3.<.<.<.<.<.<.<.<.<.<.<.3.3.8 8 A.A.* = H.H.F.F.! ^ e.e.j.j.i.r.e.w.&.} } O.O.b b g 9 <.<.<.<.<.<.<.<.<.6.<.<.<.<.<.<.<.<.<.",
"<.4.<.<.<.<.<.<.<.<.<.<.<.<.<.< r Z.Z.< < D.D.S.S.E E &.&.&.&.f.s.s.u.u.{ X.{ { c c > > <.<.<.<.<.<.<.<.<.4.<.<.<.<.<.<.<.<.<.",
"<.3.<.<.<.<.<.<.<.<.<.<.<.<.<.2 2 Z.Z.< < D.D.S.S.T E &.p.&.&.f.s.s.u.u.{ { X.X.v b > > <.<.<.<.<.<.<.<.<.<.<.<.<.<.<.<.<.<.<.",
"<.<.<.<.<.<.<.<.<.<.<.<.<.<.<.y y G.G.r @ D.D.F.F.Q Q d.h.d.u.&.&.&.u.a.{ +.X.X.x x , , <.<.<.<.<.<.<.<.<.<.<.<.<.<.<.<.<.<.<.",
"<.<.<.>.<.<.<.<.<.<.<.<.<.6.c.= 6 F.F.O O S.S.F.F.^ ^ a.a.i.p.*.r.r.s.s. . .+.+.m m 5 5 <.<.<.<.<.<.<.<.<.<.<.<.<.<.<.<.<.<.<.",
"<.<.2.<.<.<.<.<.<.<.<.<.<.4.4.= = F.F.O O S.S.F.D.^ ^ a.a.i.i.*.r.r.s.s. .X.O.+.m m 5 5 <.<.<.<.<.<.<.<.<.<.<.<.<.<.<.<.<.<.<.",
"<.<.>.<.<.<.<.<.<.<.<.<.<.;.B c.c.  $ ) ) ~ ~ ( Q j.j.&.&.w.j.j.%.&.o.o.' ' c c t 1 9.9.<.<.<.<.<.<.<.<.<.<.<.<.<.<.<.<.<.<.<.",
"<.4.>.<.<.<.<.<.<.<.<.<.<.B ;.c.z.  % ) ) ~ ~ ( Q j.j.&.w.k.j.w.%.%.o.o.[ [ c b 7 1 9.9.<.<.<.<.<.<.<.<.<.<.<.<.<.<.<.<.6.4.<.",
"<.<.<.<.<.<.<.<.<.<.<.<.<.7.8.>.>.z.z.; ; < < l l #.#.f.f.$.$.g.X.X.v v 8 8 h # B B ;.;.<.<.<.<.<.4.6.<.<.<.<.<.<.<.<.<.<.<.<.",
"<.<.>.<.<.<.<.<.<.<.<.<.<.7.3.>.>.z.c.; ; < 2 l l #.#.f.*.$.$.g.X.{ v c 8 t d # B B ;.>.<.<.<.<.<.<.<.<.<.<.<.<.<.4.<.<.<.<.<.",
"<.<.>.>.<.<.<.<.<.<.<.<.<.C <.6.5.>.>.C 4.t 9 r 1 ; ; r @ i i $ h h : & , o ,.1.A A 8.6.<.<.<.<.<.<.<.<.<.<.<.<.<.<.<.<.<.<.<.",
"<.<.<.<.<.<.<.<.<.<.<.<.<.B C 7.4.>.>.1.1.9 9 < < ; ; < @ i i * y i : : o o 3.<.A A 8.6.<.<.<.<.<.<.<.<.<.<.<.4.<.<.<.<.<.<.<.",
"<.<.>.<.<.<.<.<.<.<.<.<.<.Z 4.v.v.B N 8.8.: w R.R.E.E.. o C.C.N.q : q t 4.<.;.<.6.c.V V 4.<.<.<.<.<.<.<.<.<.<.<.<.<.<.<.<.<.<.",
"<.<.<.>.<.<.<.<.<.<.<.<.<.Z Z v.v.B B 8.8.w w R.R.E.E.X X C.C.N.: q t p 4.<.<.>.m.6.V V <.<.<.<.<.<.<.<.<.<.<.<.<.<.<.<.<.<.<.",
"<.<.<.<.<.<.<.<.<.<.<.<.6.7.7.] ] 1.1.# y T.T./.~.~.~.W.W.= = Q / / U U & & b.b.>.<.5.5.<.<.<.<.<.<.<.<.<.<.<.<.<.4.<.<.<.<.<.",
"<.<.<.<.<.<.<.<.<.<.<.<.<.7.7.] ] 3.,.9 # T.T././.~.~.W.W.7 = Q / / U K & & b.b.;.;.1.5.<.<.<.<.4.<.<.<.<.<.<.<.<.6.<.<.<.<.<.",
"<.<.<.<.<.<.<.<.<.<.<.<.<.4.4.6.6.<.<.0 g j a k k d d d j g e T ! E D D h e 4.4.2.2.-.-.<.<.<.<.<.<.<.<.<.<.<.<.<.<.<.<.<.<.4.",
"<.<.<.>.<.<.<.<.<.<.<.<.<.4.Z 6.<.1.1.0 0 d j k k s d d j e e T E E D D i e x.4.2.<.-.-.<.<.<.<.<.<.<.<.<.<.<.<.<.<.<.<.<.<.<.",
"<.<.<.>.<.<.<.<.<.<.<.<.4.5.4.<.;.:.,.@ @ W.W.!.!.^.^.I.P.I.I.: h h 3 4 * = C 5.2.;.1.4.<.<.<.<.<.<.<.<.<.<.<.<.<.<.<.<.<.<.<.",
"<.<.>.<.<.<.<.<.<.<.<.<.4.4.5.>.>.,.,.O @ W.W.!.!.^.^.I.P.I.I.q h f 4 4 = = 4.C 1.<.<.<.<.<.4.<.<.<.<.<.<.<.<.<.<.<.<.<.<.<.<.",
"<.<.>.<.<.<.<.<.<.<.<.<.<.6.6.5.5.e e     2 2 L.L.Y.Y.Q.Q.K.K.I.J.J.& % 6.6.6.6.>.2.x.x.<.<.<.<.<.<.<.<.<.<.<.<.<.4.<.<.<.<.<.",
"<.<.<.<.<.<.<.<.<.<.<.<.<.6.6.5.Z e e %   2 r L.L.Y.Y.Q.Q.K.K.I.J.J.% % 6.2.6.c.>.>.x.x.<.<.<.<.<.<.<.<.<.<.<.<.<.<.<.<.<.<.<.",
"<.<.<.>.<.<.<.<.<.<.<.<.<.<.<.& ; W R ).).6 6 f # B.B.N.M.g g 1 y y t t : : -.] B <.4.6.<.<.<.<.<.<.<.<.<.<.<.<.<.<.<.<.<.<.<.",
"<.<.<.<.<.<.<.<.<.<.<.<.<.<.>.& & W W ).).0 5 # f B.B.N.N.g g 1 9 9 t t : : -.-.<.4.6.4.<.<.<.<.<.<.<.<.<.<.<.<.<.<.<.<.<.<.<.",
"<.<.<.<.<.<.<.<.<.<.<.<.4.4.4., 2 G G ! ! ! ! U.U.V.V.6 6 @ @   B.B.K H G G 8 t < < 4.6.<.<.<.<.<.<.<.<.<.<.<.<.<.<.<.<.<.<.<.",
"<.<.>.>.<.<.<.<.<.<.<.<.<.<.<.<.<.y y L H W W G H r * r r = = Y F F P P 7 7 < * p 1 1 = <.<.<.<.<.<.<.<.<.<.<.<.<.<.<.<.<.<.<.",
"<.<.<.<.<.<.<.<.<.<.<.<.<.;.<.4.4.h 9 L L W W L H r < u r : = Y F F P P 7 * < * p t 1 = <.<.4.<.<.<.<.<.<.<.<.<.<.<.<.<.<.<.<.",
"<.<.6.<.<.<.<.<.<.<.<.<.<.V 1.<.6.; ; ; ; J J K P & & * < r y t 7 = 7 7 u u y r % * 1 : 4.4.4.4.4.4.<.<.<.4.<.<.<.<.<.<.4.<.<.",
"<.<.<.<.<.<.<.<.<.<.<.<.<.:.1.<.<.; ; ; ; J J K P & & 2 < y < t 7 8 7 7 t t u r * * t p 4.4.4.4.4.4.<.<.<.<.<.<.<.<.<.<.<.<.<.",
"<.<.<.<.<.<.<.<.<.<.6.4.<.4.4.n.n.z.A = = 3 3 - & < < q 8 O < = = < 2 2 1 : - - a a Z Z >.>.>.>.<.<.<.<.<.<.<.<.>.<.<.<.<.<.<.",
"<.<.<.<.<.<.<.<.<.<.<.<.<.<.<.n.n.A z.= & 3 3 & & < < 8 e < < = = < @ s : 1 - - a a Z Z >.>.>.>.<.<.<.<.<.<.<.2.>.<.<.<.<.<.<.",
"<.<.<.<.<.<.<.<.<.<.<.5.5.;.=.<.<.6.6.<.<.<.>.<.<.<.<.6.<.<.<.<.<.<.<.<.7.7.>.>.;.>.8.7.<.6.<.5.<.4.<.<.<.<.<.<.<.<.<.<.<.<.<.",
"<.<.<.<.<.<.<.<.<.<.<.5.6.;.;.2.<.6.6.<.<.>.<.<.<.<.<.<.<.<.<.<.<.<.<.<.3.7.>.>.>.=.8.3.6.6.6.<.4.6.<.<.<.<.<.<.<.<.<.<.<.<.<.",
"<.<.<.<.<.<.<.<.<.<.<.<.<.<.<.<.<.<.<.6.<.<.<.<.<.<.<.<.<.<.<.<.<.<.6.<.<.4.<.<.<.<.<.<.<.<.<.<.<.<.<.<.<.<.<.<.<.<.<.<.<.<.<.",
"<.<.<.<.<.<.<.4.<.<.<.<.<.<.<.<.<.<.<.<.<.<.<.<.<.<.<.<.<.<.<.<.<.<.<.<.<.<.<.<.<.<.<.<.<.<.<.<.<.<.<.<.<.<.<.<.<.<.<.<.<.<.<."
};
