/* XPM */
static char *result[] = {
/* columns rows colors chars-per-pixel */
"63 63 181 2 ",
"   c #170D06",
".  c #1D0F0D",
"X  c #141301",
"o  c #1F1500",
"O  c #1A1900",
"+  c #19130C",
"@  c #121A0B",
"#  c #1B0B15",
"$  c #1C1411",
"%  c #1F1812",
"&  c #220700",
"*  c #2B0505",
"=  c #240B03",
"-  c #2C0D02",
";  c #23040A",
":  c #240E0C",
">  c #290A0C",
",  c #340906",
"<  c #36060D",
"1  c #320A0B",
"2  c #2D1201",
"3  c #251800",
"4  c #24130C",
"5  c #2A140C",
"6  c #2A1C0A",
"7  c #31130C",
"8  c #2D0710",
"9  c #240B14",
"0  c #2C0A13",
"q  c #29071F",
"w  c #240E1D",
"e  c #2A0E1B",
"r  c #380817",
"t  c #241314",
"y  c #2B1313",
"u  c #211913",
"i  c #2A1816",
"p  c #29141C",
"a  c #351416",
"s  c #1C2A11",
"d  c #1C1620",
"f  c #2C0E28",
"g  c #340622",
"h  c #2B1122",
"j  c #27182A",
"k  c #311221",
"l  c #2B1031",
"z  c #222826",
"x  c #282A28",
"c  c #312622",
"v  c #451308",
"b  c #1C6B02",
"n  c #17680C",
"m  c #167404",
"M  c #007D1F",
"N  c #216C00",
"B  c #386C0A",
"V  c #027D2E",
"C  c #0A7C2C",
"Z  c #057233",
"A  c #057D34",
"S  c #047E3A",
"D  c #0A7B38",
"F  c #187934",
"G  c #12773D",
"H  c #147F3C",
"J  c #047F40",
"K  c #B20A1B",
"L  c #A81911",
"P  c #A0171F",
"I  c #A91B1B",
"U  c #AD181E",
"Y  c #B6131F",
"T  c #B21C1B",
"R  c #B91B18",
"E  c #AA1825",
"W  c #B81427",
"Q  c #B11F20",
"!  c #B71338",
"~  c #BC7F22",
"^  c #C7740E",
"/  c #C57A1D",
"(  c #C77221",
")  c #C97827",
"_  c #C9772B",
"`  c #DD7633",
"'  c #EC3D5C",
"]  c #EC396B",
"[  c #F33664",
"{  c #FC3866",
"}  c #F7356E",
"|  c #FC3A6B",
" . c #EF3871",
".. c #FF3474",
"X. c #FF3C76",
"o. c #F6377D",
"O. c #FA4274",
"+. c #1B9300",
"@. c #1F900A",
"#. c #248C01",
"$. c #2F8F00",
"%. c #2B8C0B",
"&. c #338A00",
"*. c #2B9203",
"=. c #269B00",
"-. c #2B9901",
";. c #29940B",
":. c #359500",
">. c #2FBA05",
",. c #37BD00",
"<. c #3BBB01",
"1. c #37BC15",
"2. c #008026",
"3. c #0E8726",
"4. c #00842C",
"5. c #0C852D",
"6. c #058A28",
"7. c #028C2C",
"8. c #00912E",
"9. c #0C902A",
"0. c #018634",
"q. c #0B8334",
"w. c #008934",
"e. c #0A8B35",
"r. c #03843A",
"t. c #0C843B",
"y. c #028B3B",
"u. c #0B893B",
"i. c #009336",
"p. c #00913B",
"a. c #45BD01",
"s. c #4ABA03",
"d. c #46BA17",
"f. c #2EC400",
"g. c #2CCE00",
"h. c #35C401",
"j. c #3BC200",
"k. c #34C902",
"l. c #39C50C",
"z. c #30C813",
"x. c #3EFC16",
"c. c #45C504",
"v. c #4DC606",
"b. c #51C50A",
"n. c #47C410",
"m. c #47FF00",
"M. c #53F700",
"N. c #51FF0C",
"B. c #018343",
"V. c #018B43",
"C. c #0A8942",
"Z. c #078749",
"A. c #158241",
"S. c #059359",
"D. c #029172",
"F. c #00C75C",
"G. c #04CD6F",
"H. c #FBAA00",
"J. c #F3B500",
"K. c #FDB702",
"L. c #F3B900",
"P. c #FDBB00",
"I. c #F7B80C",
"U. c #E4C000",
"Y. c #FFC205",
"T. c #0764DB",
"R. c #0269DC",
"E. c #1269DA",
"W. c #6FFEAC",
"Q. c #2795EA",
"!. c #249DF8",
"~. c #27A3F9",
"^. c #26A8FE",
"/. c #3AA0F5",
"(. c #42A7FF",
"). c #58B7FF",
"_. c #52C6FF",
"`. c #95B0E5",
"'. c #F298CC",
"]. c #F0A4CB",
"[. c #E6A7E0",
/* pixels */
"0.0.0.0.C.D 0.0.0.0.0.t.t.w.4.0.0.0.4.w.0.0.0.0.0.0.0.0.0.0.0.0.4.0.0.0.4.0.0.0.0.0.0.0.0.0.0.0.0.0.0.0.0.0.0.0.0.4.0.0.0.0.0.",
"0.0.0.0.t.C.0.0.0.0.0.t.u.0.0.0.0.0.0.0.0.w.0.4.0.0.0.w.0.4.4.e.0.0.0.0.0.0.0.0.4.w.0.0.0.0.4.0.4.0.0.0.4.0.5.0.0.0.0.0.0.0.0.",
"0.0.0.0.y.r.0.0.0.0.0.0.0.0.0.0.0.w.0.7.0.4.0.0.7.4.w.4.0.w.0.w.0.0.w.0.7.0.7.4.0.0.7.0.4.w.0.w.w.7.0.w.0.w.w.w.7.0.0.0.0.0.0.",
"0.0.0.0.r.r.0.0.0.0.0.0.0.0.7.0.w.4.0.0.0.0.7.0.0.0.w.0.4.w.4.0.7.0.0.0.0.0.0.0.7.w.4.0.0.0.7.0.w.0.0.4.4.0.w.4.0.0.0.0.0.0.0.",
"0.0.0.0.0.0.0.r.0.0.0.y.0.0.0.0.0.0.r.0.0.y.y.0.0.0.0.0.w.r.y.0.y.0.0.0.y.0.r.0.0.0.0.0.r.y.0.r.0.r.0.0.w.0.y.0.0.0.0.0.0.0.0.",
"0.0.0.0.0.0.0.0.0.0.0.r.0.0.y.0.0.w.y.0.0.0.w.r.y.r.y.y.w.0.0.0.r.0.0.y.0.0.y.0.0.0.0.y.r.0.y.0.0.y.0.y.w.0.0.r.y.0.y.0.0.0.0.",
"0.0.0.0.r.0.0.0.0.0.0.0.0.0.0.0.0.0.0.0.0.0.0.0.0.0.0.0.0.0.0.0.0.0.0.0.0.0.0.0.0.0.0.0.0.0.w.0.0.0.0.0.0.0.0.0.0.0.0.0.0.0.0.",
"0.0.0.0.y.0.0.0.r.0.0.0.0.0.y.r.0.0.0.0.0.0.0.0.0.0.0.0.0.0.0.0.0.0.0.0.0.0.0.0.0.0.0.0.0.0.0.0.0.0.0.0.0.0.0.0.0.0.0.0.0.0.0.",
"0.r.0.0.0.0.0.r.y.0.0.0.0.0.0.0.r.0.0.0.0.0.0.0.0.0.0.0.0.0.0.r.0.0.0.0.0.0.0.0.0.0.0.0.r.0.0.0.0.0.y.0.0.0.0.0.0.0.0.0.0.0.0.",
"0.0.0.0.0.0.0.0.0.0.0.0.0.0.0.0.0.0.0.0.0.0.0.0.0.0.0.0.0.0.0.0.0.0.0.r.0.0.0.0.0.0.0.0.0.0.0.0.0.0.0.0.0.0.0.r.0.0.0.0.y.0.0.",
"0.0.0.0.0.0.0.0.0.0.0.0.0.0.0.0.0.0.0.0.0.0.0.0.0.0.0.0.r.0.0.0.0.0.0.0.0.r.y.0.0.0.0.0.0.0.0.0.0.0.0.0.0.0.0.0.0.0.y.0.0.0.0.",
"0.r.0.0.r.0.0.0.0.0.0.0.0.0.0.0.0.0.0.0.0.0.0.0.0.0.0.0.0.0.0.0.0.0.0.0.0.0.0.0.0.0.0.0.0.0.0.0.0.0.0.0.0.0.0.0.0.0.0.0.0.0.0.",
"0.0.0.0.0.0.0.0.0.0.y.0.0.0.0.0.0.0.0.0.0.0.0.0.0.0.0.0.0.w.0.0.w.0.0.0.0.0.w.0.0.r.0.0.0.0.0.0.0.0.0.0.0.r.0.0.0.0.0.0.0.0.0.",
"0.y.w.4.0.0.0.0.r.0.r.0.0.7.4.r.V.r.A d d y y > > V.y.0.0.5.5.r.2.2.y.r.7.6.e.e.B.r.5.q.i.i.0.4.r.r.r.r.q.0.0.0.0.0.w.w.w.0.0.",
"0.0.w.w.0.0.0.0.0.0.0.0.0.4.7.r.r.0.r.d d y 7 > - V.y.0.0.5.7.r.4.4.r.r.4.4.e.9.V.r.5.5.i.i.A 0.r.r.r.r.r.0.0.0.0.0.e.w.w.0.0.",
"0.0.w.0.0.0.0.0.0.0.0.0.0.V.r.0.4.2 6 '.'.| | Y Y q q w.w.B.B.4.Z.C.y.y.F t.V A y.y.r.y.q.V 0.r.V.y.0.y.0.0.e.0.0.0.w.w.0.0.0.",
"0.w.w.0.0.0.0.0.0.0.0.0.0.t.y.4.4.6 2 '.'.} | Y Y q q w.w.Z.B.4.V.Z.0.y.H H V V y.V.y.y.0.5.A q.V.y.y.y.0.0.0.0.0.w.0.w.w.0.0.",
"w.0.0.0.0.0.0.0.0.0.0.0.0.S S w.y.= = R R P P 3 2 i p > > * * 7 $ $ w 9 > > 6.4.S D 7.w.A q.q.q.0.0.w.y.0.e.t.e.u.4.w.w.w.0.0.",
"0.0.0.w.0.0.0.0.0.0.0.0.0.S A y.0.o 3 R R E P 2 2 i p 0 > 1 > 7 $ + y 9 0 > 6.6.S D 0.7.0.q.r.q.r.r.w.w.0.0.q.r.0.w.0.0.w.0.0.",
"0.e.0.0.0.0.0.y.0.0.0.0.0.w.w.p.y.A 0.9 w d j m b &.&.-.-.;.;.#.-.-.#.#.B B u u q 9 u.0.V.y.w.w.A C e.t.0.r.r.t.q.0.0.w.0.0.0.",
"4.0.0.7.0.0.0.r.0.0.0.0.0.0.7.y.y.0.A 9 9 j j b b &.&.-.-.;.;.#.*.-.#.#.B B u 4 9 9 e.0.p.y.y.w.C A e.t.0.r.t.r.r.0.0.0.0.0.0.",
"0.e.0.0.0.0.0.0.r.y.0.0.0.J B.C C t.t.a a #.#.a.a.h.f.f.k.h.k.l.a.s.h.<.+.+.;.;.b b w w Z Z y.y.q.C u.e.0.r.r.A q.0.0.0.w.0.0.",
"0.0.0.4.0.0.0.0.0.0.0.0.0.V.r.5.q.t.t.a a #.#.a.a.f.h.h.k.h.h.l.s.s.j.h.+.+.;.;.b b w w Z Z y.V.A e.t.e.w.r.r.r.0.0.A w.w.0.0.",
"w.w.0.w.r.0.0.0.0.0.0.0.0.7.7.6.9.  X b N m.m.x.x.b.b.l.l.a.a.a.1.1.c.v.g.g.*.*.&.:.m b s s r.r.w.w.w.w.0.t.D 0.0.w.w.0.w.0.0.",
"0.w.4.w.0.0.0.0.0.0.0.0.0.w.7.7.7.    N N m.m.x.x.b.b.l.1.a.a.a.1.1.c.v.f.g.*.*.:.:.m b s s r.r.w.w.w.w.w.t.r.0.y.w.w.w.w.w.0.",
"0.e.0.0.0.0.0.0.0.0.0.0.0.0.0.B.B.2 > %.%.N.N.M.M.<.a.>.<.j.h.f.O.O.[ [ ] ] { { ! ! L T * * S S 8.w.4.4.0.t.t.y.w.w.w.w.w.0.0.",
"0.0.4.7.0.0.0.0.0.0.0.0.0.0.A Z.Z.3 2 %.%.N.N.M.M.<.j.<.<.h.h.f.X.O.[ [ ] ] { { ! ! T T * * S S w.w.7.4.0.t.t.w.w.w.w.4.w.0.0.",
"0.e.0.0.0.0.0.0.0.0.0.0.0.y.w.q.D 4 4 $.:.>.,.c.c.g.f.k.h.h.h...J.J.K.P.< r L.L._ _ / / 5 0 Z.V.w.7.e.5.t.t.t.0.4.5.e.w.0.0.0.",
"0.0.w.4.0.0.0.0.0.0.0.y.w.w.w.A q.4 4 $.$.,.,.c.c.f.f.k.l.h.h...J.J.L.P.1 < J.J._ _ / / 7 0 Z.V.w.w.5.A q.t.t.0.4.e.5.w.0.0.0.",
"w.w.0.w.0.0.0.0.0.0.0.r.0.i.w.C C t y #.#.j.<.n.n.<.<.k.f.h.h.| J.I.J.L.0 0 K.K.) ) / / 7 y V.V.7.w.C 5.t.t.t.4.0.5.q.0.w.0.0.",
"0.0.0.0.0.0.r.0.0.0.0.0.0.w.w.5.C i t #.#.j.j.n.n.<.<.h.f.<.j.{ I.I.L.L.0 > K.K.) ) / / 0 7 V.V.w.w.5.q.t.t.C.0.4.q.e.w.w.0.0.",
"0.e.0.y.0.0.0.0.0.0.0.0.0.r.B.V.y.9 t :.:.z.z.>.>.j.c.k.j.,.,.O.P.P.K.K.> > I.I.^ ^ ~ ~ * * S S 8.w.w.4.4.t.t.0.w.w.w.0.w.0.0.",
"0.e.4.0.0.0.0.0.0.0.0.0.0.t.t.r.y.9 9 m m k.h.s.s.k.k.j.h.a.a.] H.H.Y.Y.; ; U.U.` ` ( ( s s 0.r.w.w.i.w.w.t.r.r.0.w.w.0.w.0.0.",
"0.w.4.0.0.0.0.r.0.0.0.0.0.t.t.0.0.9 9 m m k.l.s.b.k.k.h.h.a.a.] H.H.Y.Y.; ; U.U.` ` ( ( s s S r.w.w.w.w.0.t.t.0.y.w.w.w.w.0.0.",
"0.0.w.w.0.0.0.0.0.0.r.0.0.w.0.4.4.3.3.# # =.=.a.<.d.d.,.,.l.l.h. .] ' ' X.X.o.o.U L t i Z Z y.y.C q.u.u.w.A r.A A 0.0.0.w.0.0.",
"0.0.7.0.0.0.0.0.0.0.y.0.0.w.w.4.4.3.3.# # =.=.<.a.d.d.,.,.l.l.,. .] ' O.X.X.o.o.U U w t Z Z V.y.A 5.u.u.y.r.t.0.q.0.0.0.0.0.0.",
"0.w.w.0.0.0.0.0.0.0.0.0.0.V.V.5.5.H t.r.r.0 0 i i b N =.=.c.a.,.b.b.@.@.n n 4 : * * i.i.y.p.w.y.C C t.0.0.r.r.r.r.q.0.4.w.0.0.",
"0.e.w.4.0.0.0.0.0.0.0.0.0.V.p.5.5.H H r.r.0 0 t i N N -.=.a.c.,.b.b.@.;.n n : : * * i.w.y.V.w.w.C A r.u.w.A t.q.q.0.0.w.0.0.0.",
"0.e.4.w.0.0.0.0.0.0.0.0.0.q.t.M M V.Z.C.V.V V 0 e i i = & % % + < < 5 2 3 3 v v r.V.C C A q.r.0.0.r.w.y.0.r.r.r.0.w.0.w.w.0.0.",
"0.0.0.0.0.0.0.0.0.0.0.0.r.q.q.M V Z.Z.V.t.V V e e i i = - u % t < < 5 5 3 3 v v r.r.C C q.A q.e.r.0.w.w.0.e.q.e.r.0.0.w.w.0.0.",
"w.0.4.0.0.0.r.0.0.0.0.0.0.7.4.u.u.r.A 7.e.7.8.A A 5 3 ~.~.t u S.F.F.9 9 i t . + r.y.A.Z.A 0.q.A V.y.0.y.0.0.e.0.w.0.w.0.w.0.0.",
"0.w.w.w.0.0.0.0.0.0.0.0.0.4.4.u.u.0.r.0.e.8.7.A A 5 5 ~.~.t t S.F.F.# 9 t t   + r.0.C.C.5.A q.q.y.y.y.y.0.0.e.0.0.w.w.w.w.0.0.",
"0.e.0.0.0.0.0.0.0.y.0.0.0.y.y.4.V y.y.4.4.u.e.> * ^.^.`.`.).).2 e h ].].....W ! . . 7.8.i.i.0.4.r.r.r.r.t.0.0.0.0.0.0.w.w.0.0.",
"0.0.0.y.0.0.0.0.0.r.0.0.0.y.r.4.4.i.y.4.4.0.e.> > ^.~.`.`.).).2 h w ].].....W W . . 8.7.i.i.A 0.r.r.r.0.e.0.0.0.0.0.w.w.0.0.0.",
"0.0.4.w.0.0.0.0.0.0.0.0.0.r.y.w.7.G G V.V.0.q.0 y c c z z x x z # t | |  .| E U X X A.A.y.y.V C y.y.w.4.4.y.0.V 5.e.r.0.0.0.0.",
"0.e.w.0.0.0.r.0.0.0.0.0.0.y.y.5.5.G G V.V.q.r.0 0 c c z z x x x t $ | | } ..U U X o A.J y.y.C A w.y.7.0.0.y.e.V V y.0.w.w.0.0.",
"w.0.4.w.0.0.0.0.0.0.0.0.0.7.w.w.0.i.8.4.4.5.7.4 : ^.~._._.!.!.(.R.R.p a . . y y k k & & A 0.u.C.e.0.w.w.i.e.0.V 4.0.0.w.w.0.0.",
"0.0.w.0.0.0.r.0.0.0.0.0.0.w.w.w.0.8.7.4.4.6.5.: : ^.~._._.!.!.(.R.R.k k : + u i k k & & 0.q.C.u.0.0.w.w.y.0.0.4.0.0.0.w.w.0.0.",
"w.e.w.0.0.0.0.0.0.0.0.0.0.C.C.q.0.0.0.t.r.2.2.V.y.8 8 T.T././.Q.E.E.R.R.R.R.> 4 + + T T O O 0.r.0.0.V Z y.0.4.r.0.0.0.w.0.0.0.",
"0.0.4.0.0.0.0.0.0.r.0.0.0.C.C.0.0.0.0.y.C.2.2.y.V.8 8 T.T././.Q.E.E.R.R.T.R.: 4 + X Q Q O O r.r.A 0.V C i.0.0.0.q.0.0.0.w.0.0.",
"0.w.0.0.0.0.0.0.0.0.0.0.0.0.r.Z Z V.V.8.7.y.u.B.J 1 * a 0 D.D.G.@ + , , l k D.D.W Y I I 2 2 t.y.y.y.D C w.0.0.u.u.0.0.0.w.0.0.",
"0.5.0.7.0.0.0.0.0.0.0.0.0.r.0.Z Z V.V.w.8.u.y.B.J * , a a D.D.G.+ + , < k f D.D.W T P I 2 2 r.r.y.y.A D w.0.0.u.u.4.0.w.0.0.0.",
"0.w.w.w.0.0.0.0.0.0.0.0.0.r.r.9.9.C 5.0 0 7 7 5 y [.[.' ' W.W.7 3 4 y y Y K L L Q E a r A S V.y.0.r.r.0.y.0.7.q.q.0.0.w.y.0.0.",
"0.0.0.4.0.0.0.0.0.0.0.0.0.7.7.4.4.t w h h X X e e } } { | | | 1 w w u u 7 7 Q Q , , : : V.y.A A 0.0.0.q.0.w.w.r.r.y.y.0.0.0.0.",
"w.e.0.w.0.0.0.0.0.0.0.0.0.i.8.0.0.9 9 h h X X q p } } | | | | * w w 4 u 7 7 Q Q , , : 4 p.V.0.A 0.0.q.0.0.w.w.r.q.y.y.w.w.0.0.",
"0.0.0.0.0.y.r.0.0.0.0.0.0.r.r.y.y.r r u 4 e y 6 6 & & L L Y U E t t . o > 5 @ @ 9 9 l l F q.w.y.y.y.q.q.4.0.0.t.D 0.0.w.0.0.0.",
"0.e.4.0.0.0.0.0.r.0.0.0.0.r.S p.p.r r 4 u y y u 6 = = L L Y Y E 5 y o   4 > @ @ 9 e l l F F w.w.w.i.q.q.0.0.0.t.r.0.0.0.w.0.0.",
"0.0.0.7.0.0.0.0.y.0.0.0.0.0.0.C q.0.0.$ $ < < - > u % f f o o h 8 8 e q y t g g - - 6.6.w.w.i.w.4.A e.t.0.4.4.0.0.r.r.0.0.0.0.",
"w.0.0.0.r.0.0.0.0.0.0.0.0.4.0.t.q.0.0.$ + < 1 > > % u f f o 3 h > 8 e w t 5 g g - - 6.6.w.w.w.w.V V 4.q.w.0.0.w.w.r.r.0.w.0.0.",
"0.0.0.0.0.0.0.0.0.0.0.0.0.0.0.w.0.w.0.0.w.0.0.w.w.w.0.0.w.w.w.w.0.0.0.0.w.w.w.0.w.w.4.7.w.w.w.w.w.w.w.0.w.0.0.0.w.4.w.t.t.0.0.",
"0.0.0.0.0.0.0.0.0.0.0.0.0.y.0.w.w.w.w.0.w.w.w.0.0.w.w.w.0.w.w.0.w.0.w.w.w.0.w.w.w.w.w.0.w.w.w.0.0.w.w.w.0.w.w.w.w.w.w.u.q.0.0.",
"0.0.0.0.0.0.0.0.0.0.0.0.0.0.0.0.0.0.0.0.0.0.0.0.0.0.0.0.0.0.0.0.0.0.0.0.0.0.0.0.0.0.0.0.0.0.0.0.0.0.0.0.0.0.0.0.0.0.0.0.0.0.0.",
"0.0.0.0.0.0.0.0.r.0.0.0.0.0.0.0.0.0.0.0.0.0.0.0.0.0.0.0.0.0.0.0.0.0.0.0.0.0.0.0.0.0.0.0.0.0.0.0.0.0.0.0.0.0.0.0.0.0.0.0.0.0.0."
};
