/* XPM */
static char *result[] = {
/* columns rows colors chars-per-pixel */
"63 63 12 1 ",
"  c #018635",
". c #00863A",
"X c #018532",
"o c #008638",
"O c #008932",
"+ c #008732",
"@ c #028633",
"# c #038734",
"$ c #018436",
"% c black",
"& c #FFB300",
"* c #008A34",
/* pixels */
"                                           .. .     ..         ",
"                                                         .     ",
"                                                               ",
"                                                       X X     ",
"                                                               ",
"                                                               ",
"                                                            o  ",
"       O                                                       ",
"   +                                                           ",
"                                                           @@  ",
"   +                                                       @@  ",
" #                                                         @@  ",
" #                                                         @@  ",
"   +                                                       @@  ",
"   +                                                       @@  ",
"          $                                                @@  ",
"  +                                                        @@  ",
" #+       $                                                    ",
" #+                                 %%%%%%%%%%%%               ",
" #+                                 %%%%%%%%%%%%               ",
" #+                                 %%%%%%%%%%%%               ",
" #++                                %%%%%%%%%%%%               ",
"  ++                            %%%%&&&&&&&&&&&&%%%%           ",
"  ++      $                     %%%%&&&&&&&&&&&&%%%%       @@  ",
"  ++                            %%%%&&&&&&&&&&&&%%%%       @@  ",
"  ++                            %%%%&&&&&&&&&&&&%%%%       @@  ",
"  ++     %%%%%%%%%%%%%%%%%%%%%%%&&&&&&&&%%%%&&&&&&&&%%%%   @@  ",
"  ++     %%%%%%%%%%%%%%%%%%%%%%%&&&&&&&&%%%%&&&&&&&&%%%%   @@  ",
"  ++     %%%%%%%%%%%%%%%%%%%%%%%&&&&&&&&%%%%&&&&&&&&%%%%   @@  ",
"  ++     %%%%%%%%%%%%%%%%%%%%%%%&&&&&&&&%%%%&&&&&&&&%%%%   @@  ",
"  ++ %%%%&&&&&&&&&&&&&&&&&&&&&&&&&&&%%%%    %%%%&&&&%%%%   @@  ",
"  ++ %%%%&&&&&&&&&&&&&&&&&&&&&&&&&&&%%%%    %%%%&&&&%%%%   @@  ",
"  ++ %%%%&&&&&&&&&&&&&&&&&&&&&&&&&&&%%%%    %%%%&&&&%%%%   @@  ",
"  ++ %%%%&&&&%%%%&&&&%%%%%%%%%%%&&&&&&&&%%%%&&&&&&&&%%%%   @@  ",
"  ++ %%%%&&&&%%%%&&&&%%%%%%%%%%%&&&&&&&&%%%%&&&&&&&&%%%%   @@  ",
"  ++ %%%%&&&&%%%%&&&&%%%%%%%%%%%&&&&&&&&%%%%&&&&&&&&%%%%   @@  ",
"  ++ %%%%&&&&%%%%&&&&%%%%%%%%%%%&&&&&&&&%%%%&&&&&&&&%%%%   @@  ",
"  ++     %%%%    %%%%           %%%%&&&&&&&&&&&&%%%%       @@  ",
"   +     %%%%    %%%%           %%%%&&&&&&&&&&&&%%%%           ",
"   +     %%%%    %%%%           %%%%&&&&&&&&&&&&%%%%           ",
"   +                            %%%%&&&&&&&&&&&&%%%%           ",
"  ++                                %%%%%%%%%%%%               ",
"  ++                                %%%%%%%%%%%%               ",
"  ++                                %%%%%%%%%%%%               ",
"  ++                                                           ",
"  ++                                                           ",
"  ++                                                           ",
"  ++                                                           ",
"#  +                                                       @@  ",
"   +                                                       @@  ",
"                                                           @@  ",
"   +                                                       @@  ",
"                                                           @@  ",
"      OO                                                    o  ",
"                                                           oo  ",
"                                                          *    ",
"                                                               ",
"              XX          X      XX           X                ",
"                 X                                X            ",
"                                 .                 ...    .    ",
"                                                      .        ",
"                                                               ",
"                                                               "
};
