/* XPM */
static char *result[] = {
/* columns rows colors chars-per-pixel */
"63 63 15 1 ",
"  c #018635",
". c #00863A",
"X c #018532",
"o c #008638",
"O c #008932",
"+ c #008732",
"@ c #028633",
"# c #038734",
"$ c black",
"% c #018436",
"& c #FEE761",
"* c white",
"= c #F77622",
"- c #FEAE34",
"; c #008A34",
/* pixels */
"                                           .. .     ..         ",
"                                                         .     ",
"                                                               ",
"                                                       X X     ",
"                                                               ",
"                                                               ",
"                                                            o  ",
"       O                                                       ",
"   +                                                           ",
"                                                           @@  ",
"   +                                                       @@  ",
" #                                                         @@  ",
" #                                                         @@  ",
"   +             $$$$$$$$$$$$$$$$$$$$$$$$$$$$              @@  ",
"   +             $$$$$$$$$$$$$$$$$$$$$$$$$$$$              @@  ",
"          %    $$&&&&&&&&&&&&&&******&&&&&&&&$$            @@  ",
"  +            $$&&&&&&&&&&&&&&******&&&&&&&&$$            @@  ",
" #+       %  $$&&============================&&$$              ",
" #+          $$&&============================&&$$              ",
" #+          $$&&--------------------------==&&$$              ",
" #+          $$&&--------------------------==&&$$              ",
" #++         $$&&--------==&&----==**------==&&$$              ",
"  ++         $$&&--------==&&----==**------==&&$$              ",
"  ++      %  $$&&--------==&&&&&&&&**------==&&$$          @@  ",
"  ++         $$&&--------==&&&&&&&&**------==&&$$          @@  ",
"  ++         $$&&------==&&&&&&&&&&&&**----==&&$$          @@  ",
"  ++         $$&&------==&&&&&&&&&&&&**----==&&$$          @@  ",
"  ++         $$&&------==&&&&--==&&&&**----==&&$$          @@  ",
"  ++         $$&&------==&&&&--==&&&&**----==&&$$          @@  ",
"  ++         $$&&------==&&&&--------------==&&$$          @@  ",
"  ++         $$&&------==&&&&--------------==&&$$          @@  ",
"  ++         $$&&------==&&&&&&&&&&&&**----==&&$$          @@  ",
"  ++         $$&&------==&&&&&&&&&&&&**----==&&$$          @@  ",
"  ++         $$&&--------------==&&&&**----==&&$$          @@  ",
"  ++         $$&&--------------==&&&&**----==&&$$          @@  ",
"  ++         $$&&------==&&&&--==&&&&**----==&&$$          @@  ",
"  ++         $$&&------==&&&&--==&&&&**----==&&$$          @@  ",
"  ++         $$&&------==&&&&&&&&&&&&**----==&&$$          @@  ",
"   +         $$&&------==&&&&&&&&&&&&**----==&&$$              ",
"   +         $$&&--------==&&&&&&&&**------==&&$$              ",
"   +         $$&&--------==&&&&&&&&**------==&&$$              ",
"  ++         $$&&--------==&&----==**------==&&$$              ",
"  ++         $$&&--------==&&----==**------==&&$$              ",
"  ++         $$&&--------------------------==&&$$              ",
"  ++         $$&&--------------------------==&&$$              ",
"  ++           $$&&&&&&&&&&&&&&******&&&&&&&&$$                ",
"  ++           $$&&&&&&&&&&&&&&******&&&&&&&&$$                ",
"  ++             $$$$$$$$$$$$$$$$$$$$$$$$$$$$                  ",
"#  +             $$$$$$$$$$$$$$$$$$$$$$$$$$$$              @@  ",
"   +                                                       @@  ",
"                                                           @@  ",
"   +                                                       @@  ",
"                                                           @@  ",
"      OO                                                    o  ",
"                                                           oo  ",
"                                                          ;    ",
"                                                               ",
"              XX          X      XX           X                ",
"                 X                                X            ",
"                                 .                 ...    .    ",
"                                                      .        ",
"                                                               ",
"                                                               "
};
