/* XPM */
static char *result[] = {
/* columns rows colors chars-per-pixel */
"63 63 131 2 ",
"   c #323232",
".  c #353535",
"X  c #393939",
"o  c #3A3A3A",
"O  c gray23",
"+  c #3C3C3C",
"@  c gray24",
"#  c #3E3E3E",
"$  c #3F3F3F",
"%  c gray25",
"&  c #414141",
"*  c #434343",
"=  c #444444",
"-  c gray27",
";  c #464646",
":  c gray28",
">  c #484848",
",  c #494949",
"<  c gray29",
"1  c #4B4B4B",
"2  c #4C4C4C",
"3  c gray30",
"4  c #4E4E4E",
"5  c #505050",
"6  c #515151",
"7  c gray32",
"8  c #535353",
"9  c #555555",
"0  c #565656",
"q  c gray34",
"w  c #585858",
"e  c #5A5A5A",
"r  c #5B5B5B",
"t  c gray36",
"y  c #5F5F5F",
"u  c #626262",
"i  c gray39",
"p  c #646464",
"a  c #656565",
"s  c gray40",
"d  c #676767",
"f  c #686868",
"g  c DimGray",
"h  c gray42",
"j  c #6D6D6D",
"k  c #6F6F6F",
"l  c #717171",
"z  c #747474",
"x  c gray46",
"c  c #767676",
"v  c #777777",
"b  c gray47",
"n  c #797979",
"m  c #7B7B7B",
"M  c #7C7C7C",
"N  c gray49",
"B  c #7E7E7E",
"V  c gray50",
"C  c gray51",
"Z  c #838383",
"A  c #848484",
"S  c gray52",
"D  c #888888",
"F  c #898989",
"G  c gray54",
"H  c #8B8B8B",
"J  c gray55",
"K  c #8D8D8D",
"L  c #8E8E8E",
"P  c gray56",
"I  c #909090",
"U  c #909190",
"Y  c gray57",
"T  c #919291",
"R  c #929292",
"E  c #939393",
"W  c gray58",
"Q  c #959595",
"!  c #979797",
"~  c #989898",
"^  c gray60",
"/  c #9A9A9A",
"(  c #9B9B9B",
")  c gray61",
"_  c #9D9D9D",
"`  c gray62",
"'  c gray63",
"]  c #A2A2A2",
"[  c gray64",
"{  c #A4A4A4",
"}  c #A5A5A5",
"|  c gray65",
" . c #A7A7A7",
".. c gray66",
"X. c #A9A9A9",
"o. c gray67",
"O. c #ACACAC",
"+. c gray68",
"@. c #AEAEAE",
"#. c #AFAFAF",
"$. c gray69",
"%. c #B0B1B0",
"&. c #B2B3B2",
"*. c gray70",
"=. c gray71",
"-. c #B6B6B6",
";. c #B7B7B7",
":. c gray72",
">. c #B9B9B9",
",. c gray73",
"<. c #BBBBBB",
"1. c gray74",
"2. c #BEBFBE",
"3. c gray75",
"4. c #C0C0C0",
"5. c gray76",
"6. c #C3C3C3",
"7. c #C5C5C5",
"8. c #C6C6C6",
"9. c #C8C8C8",
"0. c gray79",
"q. c #CBCBCB",
"w. c #CDCDCD",
"e. c #D2D2D2",
"r. c #D7D7D7",
"t. c gray88",
"y. c gray93",
"u. c #EEEEEE",
"i. c #EFEFEF",
"p. c #F3F3F3",
"a. c #F9F9F9",
/* pixels */
"6 6 6 | r.r.a.p.p.u.u.y.y.y.y.y.y.y.y.y.y.y.y.y.y.y.y.y.y.y.y.y.y.y.y.y.y.y.y.y.y.y.y.y.y.y.y.y.y.y.y.y.u.i.u.u.u.t.t.q.;.;.;.",
"6 6 6 | r.r.a.p.p.u.u.y.y.y.y.y.y.y.y.y.y.y.y.y.y.y.y.y.y.y.y.y.y.y.y.y.y.y.y.y.y.y.y.y.y.y.y.y.y.y.y.y.u.i.u.u.u.t.t.q.;.;.;.",
"6 6 6 | r.r.a.p.p.u.u.y.y.y.y.y.y.y.y.y.y.y.y.y.y.y.y.y.y.y.y.y.y.y.y.y.y.y.y.y.y.y.y.y.y.y.y.y.y.y.y.y.u.i.u.u.u.t.t.q.;.;.;.",
"6 6 6 n ^ ^ $.>.>.6.7.9.9.7.7.7.7.7.7.7.7.7.7.7.7.7.7.7.7.7.7.7.7.7.7.7.7.7.7.7.7.7.7.7.7.7.7.7.7.7.6.6.8.0.w.w.e.q.q.5.;.;.;.",
"6 6 6 q g g x F F ` ] X.X.| | | | | | | | | | | | | | | | | | | | | | | | | | | | | | | | | | | | | { { X.+.-.-.2.1.1.<.;.;.;.",
"6 6 6 q g g x F F ` ] X.X.| | | | | | | | | | | | | | | | | | | | | | | | | | | | | | | | | | | | | { { X.+.-.-.2.1.1.<.;.;.;.",
"6 6 6 % : : 2 f f A G W W U U U U U U U U U U U U U U U U U U U U U U U U U U U U U U U U U U U U U L L Q / } } %.*.*.;.;.;.;.",
"6 6 6 - 2 2 6 d d N S I I T T T Y Y Y Y Y Y Y Y Y Y Y Y Y Y Y Y Y Y Y Y Y Y Y Y Y Y Y Y Y Y Y Y Y Y I I ~ _ ....&.=.=.;.;.;.;.",
"6 6 6 - 2 2 6 d d N S I I T T T Y Y Y Y Y Y Y Y Y Y Y Y Y Y Y Y Y Y Y Y Y Y Y Y Y Y Y Y Y Y Y Y Y Y I I ~ _ ....&.=.=.;.;.;.;.",
"6 6 6 1 6 6 0 s s c V K K E E E R R R R R R R R R R R R R R R R R R R R R R R R R R R R R R R R R R R R ( ' o.o.=.-.-.:.;.;.;.",
"6 6 6 2 7 7 q a a z B H H E E E R R R R R R R R R R R R R R R R R R R R R R R R R R R R R R R R R R R R ( ' o.o.=.-.-.:.;.;.;.",
"6 6 6 3 8 8 w p p l m F F E E E Y Y Y Y Y Y Y Y Y Y Y Y Y Y Y Y Y Y Y Y Y Y Y Y Y Y Y Y Y Y Y Y Y Y E E ) ] O.O.-.;.;.:.;.;.;.",
"6 6 6 3 8 8 w p p l m F F E E E Y Y Y Y Y Y Y Y Y Y Y Y Y Y Y Y Y Y Y Y Y Y Y Y Y Y Y Y Y Y Y Y Y Y E E ) ] O.O.-.;.;.:.;.;.;.",
"6 6 6 3 8 8 w s s z N H H W W W R R R R R R R R R R R R R R R R R R R R R R R R R R R R R R R R R R E E ) ] O.O.-.;.;.:.;.;.;.",
"6 6 6 3 8 8 w s s z N H H W W W R R R R R R R R R R R R R R R R R R R R R R R R R R R R R R R R R R E E ) ] O.O.-.;.;.:.;.;.;.",
"6 6 6 3 8 8 w s s z N H H W W W R R R R R R R R R R R R R R R R R R R R R R R R R R R R R R R R R R E E ) ] O.O.-.;.;.:.;.;.;.",
"6 6 6 3 8 8 w s s z N H H W W W R R R R R R R R R R R R R R R R R R R R R R R R R R R R R R R R R R E E ) ] O.O.-.;.;.:.;.;.;.",
"6 6 6 3 8 8 w s s z N H H W W W R R R R R R R R R R R R R R R R R R R R R R R R R R R R R R R R R R E E ) ] O.O.-.;.;.:.;.;.;.",
"6 6 6 3 8 8 w s s z N H H W W W R R R R R R R R R R R R R R R R R R R R R R R R R R R R R R R R R R E E ) ] O.O.-.;.;.:.;.;.;.",
"6 6 6 3 8 8 w s s z N H H W W W R R R R R R R R R R R R R R R R R R R R R R R R R R R R R R R R R R E E ) ] O.O.-.;.;.:.;.;.;.",
"6 6 6 3 8 8 w s s z N H H W W W R R R R R R R R R R R R R R R R R R R R R R R R R R R R R R R R R R E E ) ] O.O.-.;.;.:.;.;.;.",
"6 6 6 3 8 8 w s s z N H H W W W R R R R R R R R R R R R R R R R R R R R R R R R R R R R R R R R R R E E ) ] O.O.-.;.;.:.;.;.;.",
"6 6 6 3 8 8 w s s z N H H W W W R R R R R R R R R R R R R R R R R R R R R R R R R R R R R R R R R R E E ) ] O.O.-.;.;.:.;.;.;.",
"6 6 6 3 8 8 w s s z N H H W W W R R R R R R R R R R R R R R R R R R R R R R R R R R R R R R R R R R E E ) ] O.O.-.;.;.:.;.;.;.",
"6 6 6 3 8 8 w s s z N H H W W W R R R R R R R R R R R R R R R R R R R R R R R R R R R R R R R R R R E E ) ] O.O.-.;.;.:.;.;.;.",
"6 6 6 3 8 8 w s s z N H H W W W R R R R R R R R R R R R R R R R R R R R R R R R R R R R R R R R R R E E ) ] O.O.-.;.;.:.;.;.;.",
"6 6 6 3 8 8 w s s z N H H W W W R R R R R R R R R R R R R R R R R R R R R R R R R R R R R R R R R R E E ) ] O.O.-.;.;.:.;.;.;.",
"6 6 6 3 8 8 w s s z N H H W W W R R R R R R R R R R R R R R R R R R R R R R R R R R R R R R R R R R E E ) ] O.O.-.;.;.:.;.;.;.",
"6 6 6 3 8 8 w s s z N H H W W W R R R R R R R R R R R R R R R R R R R R R R R R R R R R R R R R R R E E ) ] O.O.-.;.;.:.;.;.;.",
"6 6 6 3 8 8 w s s z N H H W W W R R R R R R R R R R R R R R R R R R R R R R R R R R R R R R R R R R E E ) ] O.O.-.;.;.:.;.;.;.",
"6 6 6 3 8 8 w s s z N H H W W W R R R R R R R R R R R R R R R R R R R R R R R R R R R R R R R R R R E E ) ] O.O.-.;.;.:.;.;.;.",
"6 6 6 3 8 8 w s s z N H H W W W R R R R R R R R R R R R R R R R R R R R R R R R R R R R R R R R R R E E ) ] O.O.-.;.;.:.;.;.;.",
"6 6 6 3 8 8 w s s z N H H W W W R R R R R R R R R R R R R R R R R R R R R R R R R R R R R R R R R R E E ) ] O.O.-.;.;.:.;.;.;.",
"6 6 6 3 8 8 w s s z N H H W W W R R R R R R R R R R R R R R R R R R R R R R R R R R R R R R R R R R E E ) ] O.O.-.;.;.:.;.;.;.",
"6 6 6 3 8 8 w s s z N H H W W W R R R R R R R R R R R R R R R R R R R R R R R R R R R R R R R R R R E E ) ] O.O.-.;.;.:.;.;.;.",
"6 6 6 3 8 8 w s s z N H H W W W R R R R R R R R R R R R R R R R R R R R R R R R R R R R R R R R R R E E ) ] O.O.-.;.;.:.;.;.;.",
"6 6 6 3 8 8 w s s z N H H W W W R R R R R R R R R R R R R R R R R R R R R R R R R R R R R R R R R R E E ) ] O.O.-.;.;.:.;.;.;.",
"6 6 6 3 8 8 w s s z N H H W W W R R R R R R R R R R R R R R R R R R R R R R R R R R R R R R R R R R E E ) ] O.O.-.;.;.:.;.;.;.",
"6 6 6 3 8 8 w s s z N H H W W W R R R R R R R R R R R R R R R R R R R R R R R R R R R R R R R R R R E E ) ] O.O.-.;.;.:.;.;.;.",
"6 6 6 3 8 8 w s s z N H H W W W R R R R R R R R R R R R R R R R R R R R R R R R R R R R R R R R R R E E ) ] O.O.-.;.;.:.;.;.;.",
"6 6 6 3 8 8 w s s z N H H W W W R R R R R R R R R R R R R R R R R R R R R R R R R R R R R R R R R R E E ) ] O.O.-.;.;.:.;.;.;.",
"6 6 6 3 8 8 w s s z N H H W W W R R R R R R R R R R R R R R R R R R R R R R R R R R R R R R R R R R E E ) ] O.O.-.;.;.:.;.;.;.",
"6 6 6 3 8 8 w s s z B H H Q Q Q E E E E E E E E E E E E E E E E E E E E E E E E E E E E E E E E E E E E ) ] O.O.-.;.;.:.;.;.;.",
"6 6 6 3 8 8 w s s z B J J ! ! ! Q Q Q Q Q Q Q Q Q Q Q Q Q Q Q Q Q Q Q Q Q Q Q Q Q Q Q Q Q Q Q Q Q Q W W ) ] O.O.-.;.;.:.;.;.;.",
"6 6 6 3 8 8 w d d c B G G I I I P P P P P P P P P P P P P P P P P P P P P P P P P P P P P P P P P P E E ` } +.+.-.;.;.:.;.;.;.",
"6 6 6 3 8 8 w d d c B G G I I I P P P P P P P P P P P P P P P P P P P P P P P P P P P P P P P P P P E E ` } +.+.-.;.;.:.;.;.;.",
"6 6 6 3 8 8 w d d c B G G I I I P P P P P P P P P P P P P P P P P P P P P P P P P P P P P P P P P P E E ` } +.+.-.;.;.:.;.;.;.",
"6 6 6 3 8 8 w d d v m C C B B B B B B B B B B B B B B B B B B B B B B B B B B B B B B B N N N N N N P P _ | @.@.-.;.;.:.;.;.;.",
"6 6 6 3 8 8 w d d v m C C B B B B B B B B B B B B B B B B B B B B B B B B B B B B B B B N N N N N N P P _ | @.@.-.;.;.:.;.;.;.",
"6 6 6 3 8 8 w d d v m C C B B B B B B B B B B B B B B B B B B B B B B B B B B B B B B B N N N N N N P P _ | @.@.-.;.;.:.;.;.;.",
"6 6 6 5 8 8 0 t t u i a a u u u u u u u u u u u u u u u u u u u u u u u u u u u u u u u u u u u u u u u b D [ [ 3.3.3.4.;.;.;.",
"6 6 6 5 8 8 0 t t u i a a u u u u u u u u u u u u u u u u u u u u u u u u u u u u u u u u u u u u u u u b D [ [ 3.3.3.4.;.;.;.",
"7 7 7 5 5 5 5 6 6 8 8 8 8 8 8 8 8 8 8 8 8 8 8 8 8 8 8 8 8 8 8 8 8 8 8 8 8 8 8 8 8 8 8 8 8 8 8 8 8 8 < < y j G G  .#.#.>.>.>.>.",
"7 7 7 5 4 4 2 < < > > : : > > > > > > > > > > > > > > > > > > > > > > > > > > > > > > > > > > > > > o o 3 e b b ! [ [ =.<.<.<.",
"7 7 7 2 > > - - - = = * * = = = = = = = = = = = = = = = = = = = = = = = = = = = = = = = = = = = = = + + - < r r h Z Z { ,.,.,.",
"7 7 7 2 > > - - - = = * * = = = = = = = = = = = = = = = = = = = = = = = = = = = = = = = = = = = = = + + - < r r h Z Z { ,.,.,.",
"7 7 7 , * * $ $ $ % % % % % % % % % % % % % % % % % % % % % % % % % % % % % % % % % % % % % % % % % $ $ @ O @ @ % u u E ,.,.,.",
"3 3 3 ; & & # # # $ $ $ $ $ $ $ $ $ $ $ $ $ $ $ $ $ $ $ $ $ $ $ $ $ $ $ $ $ $ $ $ $ $ $ $ $ $ $ $ $ $ $ + o o o o 9 9 M ( ( ( ",
"3 3 3 ; & & # # # $ $ $ $ $ $ $ $ $ $ $ $ $ $ $ $ $ $ $ $ $ $ $ $ $ $ $ $ $ $ $ $ $ $ $ $ $ $ $ $ $ $ $ + o o o o 9 9 M ( ( ( ",
"; ; ; & # # + @ @ # # # # # # # # # # # # # # # # # # # # # # # # # # # # # # # # # # # # # # # # # $ $ O X . .   * * r k k k ",
"$ $ $ $ $ $ $ $ $ $ $ $ $ $ $ $ $ $ $ $ $ $ $ $ $ $ $ $ $ $ $ $ $ $ $ $ $ $ $ $ $ $ $ $ $ $ $ $ $ $ $ $ $ $ $ $ $ $ $ $ $ $ $ ",
"$ $ $ $ $ $ $ $ $ $ $ $ $ $ $ $ $ $ $ $ $ $ $ $ $ $ $ $ $ $ $ $ $ $ $ $ $ $ $ $ $ $ $ $ $ $ $ $ $ $ $ $ $ $ $ $ $ $ $ $ $ $ $ ",
"$ $ $ $ $ $ $ $ $ $ $ $ $ $ $ $ $ $ $ $ $ $ $ $ $ $ $ $ $ $ $ $ $ $ $ $ $ $ $ $ $ $ $ $ $ $ $ $ $ $ $ $ $ $ $ $ $ $ $ $ $ $ $ "
};
