/* XPM */
static char *result[] = {
/* columns rows colors chars-per-pixel */
"63 63 189 2 ",
"   c #070F02",
".  c #1E0700",
"X  c #1A0C03",
"o  c #1E1402",
"O  c #151A04",
"+  c #1F1800",
"@  c #1D150D",
"#  c #1B1A0C",
"$  c #1B0D15",
"%  c #1B0E1F",
"&  c #0E1712",
"*  c #1D1314",
"=  c #1D181C",
"-  c #2E0604",
";  c #220B01",
":  c #2C0D04",
">  c #230C0D",
",  c #2D0D0D",
"<  c #340706",
"1  c #300A03",
"2  c #241303",
"3  c #2B1204",
"4  c #281800",
"5  c #24140D",
"6  c #2F130A",
"7  c #261C09",
"8  c #32110C",
"9  c #290317",
"0  c #230D13",
"q  c #2A0C14",
"w  c #260B1D",
"e  c #2C0E1B",
"r  c #340B12",
"t  c #3A0814",
"y  c #320E1B",
"u  c #2B1213",
"i  c #221910",
"p  c #251318",
"a  c #271C18",
"s  c #2B191A",
"d  c #321212",
"f  c #381317",
"g  c #122708",
"h  c #1E2F1D",
"j  c #24230E",
"k  c #1E1F24",
"l  c #260F26",
"z  c #360C23",
"x  c #321B2D",
"c  c #282625",
"v  c #28202B",
"b  c #32222C",
"n  c #400F15",
"m  c #167300",
"M  c #1B7203",
"N  c #276B07",
"B  c #247200",
"V  c #247807",
"C  c #267313",
"Z  c #017D2D",
"A  c #107D24",
"S  c #0F6F30",
"D  c #037530",
"F  c #037E34",
"G  c #0C7E35",
"H  c #037D3A",
"J  c #0C7D3B",
"K  c #117831",
"L  c #097D4E",
"P  c #A71A05",
"I  c #AD1B1E",
"U  c #B31715",
"Y  c #A81727",
"T  c #B41A23",
"R  c #BA182A",
"E  c #B41130",
"W  c #F02F5E",
"Q  c #F92E59",
"!  c #ED3C59",
"~  c #FF2C66",
"^  c #ED3466",
"/  c #FC3463",
"(  c #F63E63",
")  c #F2356B",
"_  c #FB306F",
"`  c #F63B6C",
"'  c #FC3C6C",
"]  c #FF2F74",
"[  c #F73878",
"{  c #EA424F",
"}  c #EF4061",
"|  c #EA4368",
" . c #F64162",
".. c #FB4167",
"X. c #188D00",
"o. c #00821F",
"O. c #218600",
"+. c #2C8D02",
"@. c #28870C",
"#. c #338C02",
"$. c #348A0B",
"%. c #239503",
"&. c #2F9300",
"*. c #27930A",
"=. c #26980F",
"-. c #349402",
";. c #309803",
":. c #389900",
">. c #349309",
",. c #378F15",
"<. c #3A931D",
"1. c #38BF03",
"2. c #3BB90F",
"3. c #018524",
"4. c #008822",
"5. c #01852D",
"6. c #088529",
"7. c #018A2D",
"8. c #0B8F2C",
"9. c #018635",
"0. c #0A8335",
"q. c #008934",
"w. c #0A8934",
"e. c #048339",
"r. c #0B833A",
"t. c #028B3B",
"y. c #0C8A3A",
"u. c #10833E",
"i. c #009033",
"p. c #00913B",
"a. c #4BB604",
"s. c #40BB00",
"d. c #48B710",
"f. c #2CC000",
"g. c #35C400",
"h. c #3DC202",
"j. c #34C509",
"k. c #32C310",
"l. c #41C600",
"z. c #45C705",
"x. c #44FD03",
"c. c #4FFF07",
"v. c #038342",
"b. c #0A8342",
"n. c #008A42",
"m. c #008B4A",
"M. c #009140",
"N. c #0D9044",
"B. c #00875C",
"V. c #008162",
"C. c #00CF60",
"Z. c #EEB800",
"A. c #F3B500",
"S. c #FEB302",
"D. c #F4BB00",
"F. c #FBBB01",
"G. c #FFB20A",
"H. c #F2BD0A",
"J. c #EAC107",
"K. c #F3C100",
"L. c #006DCD",
"P. c #006DD7",
"I. c #006ADD",
"U. c #005FE6",
"Y. c #005FEF",
"T. c #115CED",
"R. c #0664E3",
"E. c #0564ED",
"W. c #146AE3",
"Q. c #0472E5",
"!. c #0A6FF1",
"~. c #FF3080",
"^. c #78FFAD",
"/. c #389DF7",
"(. c #329DFB",
"). c #1CA8F7",
"_. c #33AFED",
"`. c #2FA2F3",
"'. c #28A8F1",
"]. c #27A2FF",
"[. c #34A6F6",
"{. c #54BCEF",
"}. c #41A1F8",
"|. c #50BDFF",
" X c #5EB9FF",
".X c #53C6F3",
"XX c #F39AD0",
"oX c #EB99E3",
"OX c #E9A5F2",
/* pixels */
"9.9.q.9.9.9.e.e.q.q.9.9.9.9.9.9.9.9.9.9.9.9.9.9.9.9.t.9.9.q.7.w.6.G 9.q.q.9.9.q.w.0.9.9.9.9.t.9.9.9.9.9.9.9.9.9.9.9.9.9.q.9.9.",
"9.9.5.9.9.9.e.e.q.q.9.9.9.9.t.9.9.9.9.9.9.e.9.9.9.9.9.9.9.9.9.w.0.Z q.q.9.5.9.9.w.9.9.w.9.9.t.9.9.9.9.9.9.9.9.9.9.9.9.q.q.9.9.",
"9.9.q.q.9.9.e.e.q.q.9.9.9.9.9.9.9.9.9.9.9.t.9.9.9.9.9.9.e.0.9.9.9.9.9.9.t.t.9.t.9.9.9.q.9.9.9.9.9.9.9.9.9.e.9.9.9.9.9.q.9.9.9.",
"w.9.7.9.9.9.e.e.q.q.t.9.9.9.9.9.9.9.e.t.9.9.9.9.9.9.9.9.9.9.9.9.9.9.q.q.q.p.w.w.q.q.9.9.9.9.9.9.t.e.9.9.9.t.9.9.9.9.9.9.9.9.9.",
"9.9.9.9.9.9.e.e.q.q.9.9.9.9.9.9.9.9.9.9.t.e.9.9.9.9.9.9.9.e.e.e.u.0.K 0.G K G 9.9.t.9.t.9.9.9.t.9.9.9.9.9.9.9.9.9.9.9.9.9.9.9.",
"9.9.7.7.9.9.e.H q.q.9.9.9.9.9.9.9.9.9.9.9.9.9.9.9.9.9.9.9.t.e.e.0.w.u.K G G F G e.e.t.9.9.9.9.9.9.9.9.9.9.9.9.9.9.9.9.9.9.9.9.",
"9.9.9.9.9.9.e.e.q.q.t.9.9.9.9.9.9.9.9.9.9.9.9.9.9.9.e.9.9.e.9.t.r.r.i.p.5.5.p.p.e.e.e.e.9.9.9.9.9.9.t.e.9.9.9.9.9.9.9.q.q.9.9.",
"9.w.5.9.9.9.e.e.q.9.e.9.9.9.9.9.9.9.9.9.9.9.9.9.9.9.9.9.9.t.e.t.r.y.p.i.9.5.p.p.e.9.9.e.9.9.9.9.9.9.9.9.9.9.9.9.9.9.9.q.q.9.9.",
"9.9.7.9.9.9.e.e.q.q.e.9.9.9.9.9.9.9.9.9.9.9.9.t.9.9.9.9.9.9.q.9.5.Z 5.7.5.5.r.w.0.0.9.q.t.9.9.9.9.9.9.9.9.9.9.9.9.9.9.9.q.9.9.",
"9.9.7.9.9.9.e.e.q.q.9.9.9.9.9.9.9.9.9.9.9.9.9.9.9.9.9.t.9.9.q.9.Z 5.7.5.5.9.w.r.G 0.q.q.9.9.9.9.9.9.9.9.9.9.9.9.9.9.9.q.q.9.9.",
"9.9.q.q.9.9.e.e.7.q.9.9.9.9.9.9.9.9.t.e.9.9.9.9.9.9.9.9.9.9.q.w.p.p.t.t.t.p.K K w.e.q.q.9.9.9.9.9.9.9.t.t.e.9.9.9.9.9.q.q.9.9.",
"9.9.5.9.9.e.e.e.q.q.e.9.9.9.9.9.9.9.9.9.9.9.9.9.9.9.9.9.9.9.9.9.H e.v.v.J L p.t.9.9.5.9.9.9.9.9.9.9.9.9.9.9.9.9.9.9.9.9.9.9.9.",
"w.9.9.7.9.9.e.e.q.q.e.9.9.9.9.9.9.9.9.9.9.9.9.9.9.9.e.w.w.5.9.9.H r.v.b.J J p.p.q.9.5.5.9.q.9.9.9.9.9.9.9.9.9.9.9.9.9.9.q.9.9.",
"9.9.q.5.9.9.H e.q.q.9.9.9.9.9.9.9.9.9.9.9.9.9.9.9.9.9.9.e.9.q.F 7 2 # + < < m.m.e.y.9.9.9.9.9.9.9.9.e.9.9.9.9.9.9.9.9.q.q.9.9.",
"w.9.7.9.9.9.e.e.q.q.9.9.9.9.9.9.9.9.9.t.9.9.9.9.9.9.9.9.q.q.t.9.2 5 # @ < < m.n.r.y.9.9.9.9.9.9.9.9.9.9.9.e.9.9.9.9.9.q.9.9.9.",
"q.9.q.q.9.9.e.e.q.q.9.9.9.e.e.7.7.q.9.G e.w.q.t.t.A 6.t.9.5.5.r oXoX[ [ T R : 1 4.o.J L q.q.9.5.t.9.t.e.9.5.5.w.9.9.t.9.q.9.9.",
"w.q.9.9.9.9.H e.q.q.e.t.9.e.w.7.7.7.q.G G q.7.9.n.A 6.9.9.7.7.r oXoX[ [ T T : 6 3.3.L G 9.7.9.9.t.9.9.9.6.9.0.9.t.9.9.q.9.9.9.",
"9.q.5.7.9.w.e.e.q.7.e.9.9.v.v.9.9.9.q.m.m.H H : : f n d d s s q f t 2 + . . k k 3.5.9.9.9.5.G 5.e.9.t.t.9.5.5.9.9.q.9.9.9.9.9.",
"9.9.9.9.9.9.e.e.q.q.9.9.9.v.v.9.9.9.q.m.m.H F ; : n n u 6 s s q f f + + . . k k 5.4.e.9.5.5.9.0.9.y.q.t.q.q.5.9.q.9.q.q.q.9.9.",
"9.9.9.9.9.9.F e.q.q.9.9.9.b.y.4.4.J J i * q u V V @.V *.*.*.*.X.+.&.>.>.C C > > t r i.q.p.p.9.q.Z F 0.e.q.9.5.9.9.9.9.q.9.9.9.",
"9.w.7.9.9.9.e.e.q.q.9.9.9.y.v.4.4.J J 0 p q $ V V @.V *.@.*.*.X.+.+.&.>.C V 0 > r t i.p.p.p.t.t.G Z w.e.9.9.9.0.9.9.q.9.q.9.9.",
"9.9.9.q.9.9.e.e.q.q.9.9.9.t.t.9.9.u 0 #.#.j.k.1.f.l.z.s.s.h.g.h.j.j.+.+.$.$.%.%.N N r q D D n.p.5.F 9.Z e.0.0.e.9.9.9.q.q.9.9.",
"9.9.5.q.9.9.e.e.q.q.9.9.9.t.9.5.5.0 u #.#.2.j.1.g.l.l.1.s.g.j.z.j.j.+.+.$.$.%.%.N N r r D D t.n.5.9.G 5.w.w.r.9.9.9.9.9.9.9.9.",
"9.9.7.9.9.9.e.e.q.q.e.9.9.w.w.w w %.%.z.z.x.x.c.c.x.x.g.g.d.d.h.f.f.1.1.%.%.:.:.+.&.M m j j F G q.q.9.q.9.9.9.q.t.9.9.9.9.9.9.",
"9.9.7.9.9.9.e.e.7.q.9.9.9.w.w.w w %.%.z.z.x.x.c.c.x.x.j.f.d.d.g.g.g.1.f.*.%.:.:.*.+.M M j j G H q.i.t.q.q.9.9.9.t.9.9.9.q.9.9.",
"9.w.9.q.9.9.e.e.q.q.9.9.9.7.q.e e 2.2./ / ....W ^ _ _ [ [ [ ` '  . .[ [ ( ( O.O.<.<.M M - - F e.i.i.7.9.9.w.9.t.9.0.w.9.q.9.9.",
"9.w.7.5.9.9.e.e.q.q.t.9.9.9.5.e e 2.2./ / ....W W _ _ [ ~.` [ ` ( ..[ [ ( ( O.O.<.<.M M - - e.H i.i.q.9.9.e.t.t.t.w.0.q.9.9.9.",
"9.9.q.9.9.9.H e.q.q.e.9.9.9.9.6 8 g.g.! ! F.D.r r S.F.S.H.G.G.Z.q y F.D.` ) *.>.+.+.C N 5 5 n.n.q.7.5.5.G u.b.t.9.0.5.9.7.9.9.",
"9.q.7.9.9.9.e.e.q.q.9.9.9.9.t.6 6 h.h.! ! F.D.r r F.F.G.G.G.G.Z.9 q F.F.` ` *.*.+.+.N N 5 5 n.t.7.7.Z 6.9.u.u.9.9.w.e.9.q.9.9.",
"9.9.9.9.9.9.e.e.q.q.9.9.9.v.v.; ; h.z.[ [ Z.D.0 0 D.D.D.D.F.F.D.= % S.S./ / #.@.%.%.B V > , b.b.9.5.0.7.9.e.t.9.9.9.w.9.q.9.9.",
"9.9.5.q.9.9.e.e.q.q.9.9.9.v.v.o 2 1.1.] [ D.D.p 0 D.D.D.D.F.K.A.= k S.S./ / *.+.%.%.B B > > e.r.5.9.9.w.9.t.e.9.9.w.9.9.9.9.9.",
"9.w.9.9.9.w.H e.q.9.9.9.9.L L 3 3 g.1.| | G.F.5 5 F.F.S.S.F.F.G.@ @ J.J.( / $.>.+.+.B N 1 1 b.L t.t.w.e.q.9.9.y.w.9.9.q.q.9.9.",
"9.w.7.9.9.9.e.e.9.q.e.9.9.4.3.f f ,.,.^ ^ S.S., : S.S.H.H.K.K.Z.z z S.S.~ ~ &.&.-.-.C C g g F F F 9.F F q.9.9.9.9.9.9.9.q.9.9.",
"9.9.9.7.9.9.e.e.q.q.9.9.9.3.4.s f ,.,.^ ^ S.S.: 6 S.S.H.H.K.K.A.t z S.S.~ ~ +.&.#.>.C C g g F F 9.F 0.0.q.9.9.9.w.9.9.9.9.9.9.",
"9.9.9.5.9.9.e.e.q.q.9.9.9.5.w.3.o.; 2 ;.;.] ] }  .| ) ) ) ) ) ..~.~.{ { =.=.>.+.N N X $ S S t.M.e.9.w.w.9.5.9.9.9.9.9.q.q.9.9.",
"9.q.9.q.e.w.e.H 7.q.9.9.9.5.6.Z Z o 2 &.;.] ] } ( | | ) ) ) ) ' ~.] { { =.=.#.&.N N $ @ S S t.M.t.t.e.w.9.0.0.5.9.9.9.9.9.9.9.",
"9.9.9.5.9.9.e.e.q.q.e.9.9.q.i.y.y.b.v.* @ : 3 M M ;.;.a.a.g.j.g.f.f.-.&.M M X X x x 5.5.p.t.t.9.9.9.5.5.9.5.5.9.9.9.t.9.q.9.9.",
"9.w.9.7.9.9.e.e.q.q.9.9.9.i.q.w.e.b.v.= * 3 : m M %.;.a.a.j.j.g.f.j.-.-.M M X X x x 5.5.t.M.q.t.5.9.9.9.5.9.9.9.9.t.9.9.9.9.9.",
"9.w.9.9.9.9.t.e.q.7.9.9.9.9.9.b.b.d q t r $ * z z X o e s p % r r r , , > > , 3 e.t.H G q.q.5.Z 5.0.q.q.9.9.9.e.e.w.e.q.q.9.9.",
"7.9.7.9.9.9.H e.q.q.e.9.9.5.9.b.b.u u t t * $ z z X . p p p p y q r , , > > 6 6 e.e.J H 7.q.Z Z 9.9.9.9.9.9.9.9.9.e.e.5.q.9.9.",
"9.9.9.q.9.e.e.e.q.q.9.9.9.e.t.2 2 Q Q ` ` ' ' 2 : R.I.'.'././.).Q.Q.P.P.!.!.B.B.X > N.N.9.t.r.w.t.y.q.q.9.q.q.w.9.F 9.q.q.9.9.",
"9.9.q.5.9.w.e.H q.q.9.9.9.e.e.+ 2 Q Q | ` ..( : : R.W.'.'././.).Q.Q.P.P.!.!.B.B.X 5 N.N.q.q.0.0.w.t.q.q.t.q.9.e.0.9.F q.q.9.9.",
"9.7.q.9.9.9.e.e.q.q.9.9.9.F e.d d XXXX..` T T 9 9 _._.|.|.{.{.}.`.`.Y.Y.T.T.a a 2 + e.F 5.0.0.0.9.9.Z Z 9.q.q.e.0.9.t.q.q.9.9.",
"9.w.5.9.9.9.e.e.q.q.9.9.9.e.e.d s XXXX .| T T 9 - _._.|.|.{.{.}.`.`.Y.E.T.T.a a + + Z F 9.5.9.9.q.q.Z Z 9.q.7.w.y.9.t.q.9.9.9.",
"9.w.q.5.9.9.e.e.q.q.9.9.9.q.i.y e Y Y I U Y Y s p v v A.S.J.H.c b b h h c c 0 > T T q p 9.9.9.9.t.q.e.G y.9.9.e.0.9.9.9.9.9.9.",
"9.9.9.q.9.9.e.e.q.q.e.9.9.q.q.y e Y Y Y I T Y s s v v F.F.H.H.c b b h h c v 0 > R R u q 9.9.9.9.t.t.G F y.9.9.w.0.9.q.q.q.9.9.",
"9.9.5.q.9.9.e.e.7.q.e.9.9.q.q.0.G $ $ d r 3 3 E.E.U.U..X.X X X].(.(.W.W.I.I.2 3 * i t.e.9.9.9.9.9.9.9.9.9.9.9.9.9.9.9.q.q.9.9.",
"9.9.9.q.9.9.e.e.q.q.t.9.9.q.9.G H $ $ d d 3 6 E.E.U.U..X.X X X].(.(.W.W.I.I.5 , i % e.e.9.9.9.9.9.9.9.9.9.9.9.9.9.9.9.q.9.9.9.",
"9.7.9.5.9.9.t.H q.q.9.9.9.L v.q.q.7.7.5.7.u q R.R.I.I.[.[.[.`.`.L.L.E.E., > y y 6.6.t.N.9.9.9.9.9.9.9.t.9.9.9.9.9.9.9.9.q.9.9.",
"9.w.9.7.9.9.e.e.q.q.9.9.9.e.e.w.i.6.6.9.5.5 u R.R.P.I.[.[.[.`.`.L.L.E.E.> : y y 6.6.y.M.9.9.9.9.9.9.9.9.9.9.9.9.9.9.9.t.9.9.9.",
"9.w.q.9.9.9.e.e.q.q.9.9.9.3.5.M.M.9.9.r.r.q.7.0 q C.C.V.V.i i 6 ^.^.; ; OXOX` ` 0 q Z 5.9.9.9.9.9.9.9.9.e.t.9.9.9.9.9.q.q.9.9.",
"9.9.5.q.9.e.e.e.q.q.t.9.9.5.7.p.M.e.t.J r.7.q.0 0 C.C.V.V.a i 1 ^.^.; ; OXOX[ ` , 0 3.5.9.9.9.9.9.9.9.9.9.t.9.9.9.9.9.q.q.9.9.",
"9.9.q.9.9.9.e.e.q.q.9.9.9.0.u.Z Z 0.r.* = l l p e P P R R ; ; z $ X ) ) ' ] ) ) w w w.8.9.9.9.9.9.9.9.9.9.9.9.9.9.9.9.9.q.9.9.",
"9.q.5.q.9.9.e.e.q.q.9.9.9.7.4.t.y.o o , , 1 1 R R P P R E r r l 4 7 I T / / I I 5 2 5 , 9.9.9.9.9.9.9.9.9.9.9.9.9.9.9.q.q.9.9.",
"9.9.9.5.9.9.e.F q.q.9.9.9.7.7.y.y.o o , q 1 1 R R P P E R r r l 4 4 T T / / I I 5 2 , > 9.t.9.9.t.e.9.9.9.9.9.9.9.9.9.q.q.9.9.",
"9.w.9.9.9.9.e.e.q.9.w.9.9.9.9.e.e.6 8 * 0 6 , 5 > s s $ $ @ @ 5 % % E E U U 9 9 , u & & 9.e.9.9.9.9.9.9.t.9.9.9.9.9.9.q.9.9.9.",
"9.w.7.q.9.9.e.H 9.q.9.9.9.9.9.n.e.: 8 * * , u > > s s $ $ * @ 5 % % E E U U 9 9 r d & & 9.9.9.9.9.9.9.9.9.9.9.e.9.9.9.9.9.9.9.",
"9.9.7.9.9.9.e.e.q.q.9.9.9.u.r.H H L H # # 0 > r r 0 , # # r d < O O e e 7 a 4 7     y.y.9.9.9.9.9.9.9.9.9.9.9.t.9.9.9.9.q.9.9.",
"9.q.9.9.9.9.e.e.q.q.9.9.9.u.r.H H H H # # 0 0 t r u u O # d r < O O q e i 7 4 7     y.y.t.e.9.9.9.9.9.9.9.9.9.t.9.9.9.q.9.9.9.",
"9.9.q.5.9.w.e.e.q.9.t.9.9.7.7.e.9.i.i.5.3.n.e.6.5.7.q.J G 5.5.t.v.e.3.3.F F t.t.5.0.J J 9.9.9.9.9.9.9.9.9.9.9.9.9.9.9.q.9.9.9.",
"9.9.9.9.9.9.e.e.q.q.9.9.9.7.q.9.9.7.i.3.3.n.n.9.6.9.9.r.G 9.9.t.t.y.5.3.F e.t.t.9.5.J J 9.9.9.9.9.9.9.9.9.9.9.9.9.9.9.9.q.9.9.",
"9.9.9.9.9.9.9.9.9.9.9.9.9.9.9.9.9.9.9.9.9.9.9.9.9.9.9.9.9.9.9.9.9.9.9.9.9.9.9.9.e.w.9.9.9.9.9.9.t.9.9.9.9.9.9.9.9.9.9.9.9.9.9.",
"9.9.9.9.q.9.9.9.9.9.9.9.9.9.9.9.9.9.9.9.9.9.9.9.9.9.9.9.9.9.9.9.9.9.9.9.9.9.9.9.9.9.9.9.9.9.t.9.e.9.9.9.9.9.9.9.9.9.9.9.9.9.9."
};
