/* XPM */
static char *result[] = {
/* columns rows colors chars-per-pixel */
"63 63 194 2 ",
"   c #160F00",
".  c #1B0C07",
"X  c #1B0B0A",
"o  c #1E1403",
"O  c #1A1A04",
"+  c #121208",
"@  c #1E150C",
"#  c #161A09",
"$  c #1B1A0C",
"%  c #1F0C16",
"&  c #1E1311",
"*  c #1E1915",
"=  c #1E1118",
"-  c #1C1819",
";  c #200D00",
":  c #2C0C02",
">  c #2D050D",
",  c #240D0C",
"<  c #2D0A0C",
"1  c #340203",
"2  c #33040B",
"3  c #320D0D",
"4  c #231404",
"5  c #281606",
"6  c #25140C",
"7  c #2C120C",
"8  c #221D0B",
"9  c #321706",
"0  c #341109",
"q  c #39110F",
"w  c #2C0613",
"e  c #230B12",
"r  c #2A0A12",
"t  c #25041F",
"y  c #2D0E19",
"u  c #360717",
"i  c #320C15",
"p  c #330E1B",
"a  c #231212",
"s  c #2C1114",
"d  c #251A12",
"f  c #26151B",
"g  c #2D191E",
"h  c #371519",
"j  c #1D2106",
"k  c #23250D",
"l  c #2E0D20",
"z  c #3B0C20",
"x  c #2A1222",
"c  c #32112C",
"v  c #1B3323",
"b  c #202328",
"n  c #242333",
"m  c #1F6C0E",
"M  c #1A7203",
"N  c #007F19",
"B  c #276A00",
"V  c #257302",
"C  c #2C7000",
"Z  c #347B05",
"A  c #2C6A14",
"S  c #2C7116",
"D  c #0D6D2D",
"F  c #077B29",
"G  c #027C2C",
"H  c #0C7535",
"J  c #017D32",
"K  c #0B7D34",
"L  c #0F7239",
"P  c #027E3A",
"I  c #0D7E38",
"U  c #117A38",
"Y  c #2D2B40",
"T  c #037C47",
"R  c #0B7C41",
"E  c #971B13",
"W  c #B30F0D",
"Q  c #A6180E",
"!  c #B51C0E",
"~  c #AD1D12",
"^  c #B61817",
"/  c #B2191B",
"(  c #B8201F",
")  c #991A2F",
"_  c #A91526",
"`  c #B31128",
"'  c #B31729",
"]  c #A92121",
"[  c #C21936",
"{  c #FF275C",
"}  c #E0365D",
"|  c #F53F56",
" . c #FC3C5C",
".. c #EE2866",
"X. c #EB396B",
"o. c #FC3463",
"O. c #F63B67",
"+. c #FE356E",
"@. c #F53B6B",
"#. c #FF396F",
"$. c #EF3E74",
"%. c #FF3077",
"&. c #FF4267",
"*. c #1D9201",
"=. c #08801F",
"-. c #008A1D",
";. c #248E00",
":. c #2D8C01",
">. c #3A8700",
",. c #348E00",
"<. c #308A0E",
"1. c #269704",
"2. c #2B9300",
"3. c #24940A",
"4. c #319500",
"5. c #399403",
"6. c #2D8B13",
"7. c #2B9612",
"8. c #3BBC01",
"9. c #35BA09",
"0. c #3FBF10",
"q. c #008426",
"w. c #008C24",
"e. c #01832C",
"r. c #0B852C",
"t. c #018B2C",
"y. c #098F2E",
"u. c #10892A",
"i. c #08902A",
"p. c #018635",
"a. c #0B8335",
"s. c #018A34",
"d. c #0B8A34",
"f. c #03853A",
"g. c #0C843A",
"h. c #018B3A",
"j. c #098A3D",
"k. c #118232",
"l. c #11843C",
"z. c #18813E",
"x. c #009234",
"c. c #01923B",
"v. c #0B953F",
"b. c #009A3F",
"n. c #47B500",
"m. c #40BC06",
"M. c #2DC500",
"N. c #2AC90D",
"B. c #34C102",
"V. c #3BC501",
"C. c #31CB00",
"Z. c #3DCE00",
"A. c #33C608",
"S. c #3CC10C",
"D. c #3BC913",
"F. c #41C100",
"G. c #49C500",
"H. c #42C617",
"J. c #008445",
"K. c #098543",
"L. c #068C45",
"P. c #008649",
"I. c #15804A",
"U. c #029243",
"Y. c #009942",
"T. c #038650",
"R. c #099567",
"E. c #079275",
"W. c #00C754",
"Q. c #06C261",
"!. c #EDB200",
"~. c #EBBB04",
"^. c #F3B402",
"/. c #FAB403",
"(. c #F7BB01",
"). c #FEBC00",
"_. c #F5B609",
"`. c #F6BA0C",
"'. c #FEBA0B",
"]. c #FFBB10",
"[. c #F6C100",
"{. c #F8C10C",
"}. c #006DCC",
"|. c #026BD2",
" X c #0063D8",
".X c #046BD9",
"XX c #0075DA",
"oX c #0763E6",
"OX c #026BEB",
"+X c #71F9B9",
"@X c #319FFF",
"#X c #2EA2FF",
"$X c #F1A5CB",
"%X c #FE99E9",
/* pixels */
"p.p.p.p.p.p.p.p.p.h.p.p.p.p.p.p.p.p.p.h.p.p.p.p.p.p.p.p.p.d.d.p.p.d.p.d.p.e.p.d.p.p.d.p.p.p.p.p.p.p.p.p.p.p.h.p.p.p.p.p.p.h.p.",
"p.p.p.p.p.p.p.p.p.p.p.p.p.p.p.p.p.p.p.f.p.p.p.p.p.h.f.h.d.p.p.p.p.d.p.p.d.a.p.d.p.p.p.p.p.s.p.h.p.h.p.p.h.p.p.p.p.p.p.p.p.p.p.",
"p.p.p.p.p.p.p.p.p.p.p.p.p.p.h.p.p.p.p.p.p.p.p.p.p.p.p.p.p.s.p.p.s.p.s.p.p.s.t.s.p.s.p.e.s.p.p.e.p.p.t.s.p.t.p.p.s.p.p.p.p.p.p.",
"p.p.p.p.p.h.p.p.p.p.p.p.p.p.p.p.p.p.p.p.p.p.p.p.p.p.p.p.p.s.e.s.p.t.p.s.p.p.p.p.s.p.t.p.e.p.t.p.t.p.p.e.e.p.s.t.p.p.p.p.p.p.p.",
"p.p.p.p.p.p.p.p.p.h.p.p.p.p.p.p.p.p.p.p.p.p.p.p.p.p.p.p.p.f.f.f.f.f.f.f.p.f.f.f.p.f.a.p.a.e.a.p.a.p.d.e.p.p.d.p.p.p.p.p.p.p.p.",
"p.p.p.p.p.p.p.p.p.p.p.p.p.p.p.p.p.p.h.p.p.p.p.p.p.p.p.p.p.f.f.p.p.p.f.f.f.f.f.p.f.f.p.p.p.d.e.p.p.a.p.p.a.d.a.p.f.p.p.p.p.p.p.",
"p.p.p.p.p.p.p.h.p.p.p.p.p.p.f.p.p.p.p.p.p.p.p.f.p.p.p.p.p.s.s.p.s.p.t.s.p.s.s.s.p.p.p.f.f.P f.f.f.f.P f.f.f.f.f.f.p.p.h.p.p.p.",
"p.p.p.p.p.p.p.f.p.p.p.p.p.p.p.p.p.p.p.p.p.p.p.h.p.p.p.p.p.p.s.s.s.p.p.p.s.p.p.s.s.s.f.f.f.f.f.f.f.f.p.f.f.f.P f.f.p.p.p.p.p.p.",
"p.p.p.p.p.p.p.p.p.p.j.p.p.p.p.p.p.p.p.f.p.p.p.a.d.p.d.p.p.p.p.p.p.f.p.p.p.p.f.p.p.p.e.p.p.t.e.p.e.e.p.s.p.p.s.p.t.p.p.p.p.p.p.",
"h.p.p.p.p.p.p.p.p.p.j.p.p.p.p.p.p.p.p.p.a.K r.j.a.p.p.p.p.p.p.p.p.p.p.p.p.p.p.p.p.p.s.p.p.p.s.s.p.p.s.e.s.p.e.s.p.p.p.p.p.p.p.",
"p.p.h.h.p.p.p.p.f.f.p.h.p.e.e.d.d.q.t.G G j.j.q.q.p.e.e.q.l.l.p.p.p.a.k.p.p.q.q.s.p.F H c.c.F D t.s.s.x.I g.g.p.p.p.p.p.p.p.p.",
"p.p.f.f.p.p.p.p.g.f.p.p.p.f.p.h.p.P.P.v.v.F q.J.P.h.h.k.d.p.p.J.h.h.e.e.g.I Y.U.l.l.b.b.p.e.a.a.j.j.p.p.f.a.p.p.p.p.p.p.p.p.f.",
"p.p.f.f.p.p.f.p.f.f.e.e.p.f.f.p.h.P.P.L.v.F F J.P.h.h.d.r.p.p.f.h.h.G e.I I U.U.k.l.Y.b.e.p.a.d.j.j.e.p.P p.p.p.p.s.d.p.p.p.p.",
"p.p.h.h.p.p.f.h.g.f.p.s.p.U.U.R K.N =.q.q.f.s.-.w.g.p.h.h.f.f.e.w.w.K.L.f f % % e @ H H p.J s.s.d.c.p.J p.p.p.p.p.p.s.p.p.p.p.",
"p.p.h.p.p.p.p.p.f.g.s.p.s.U.U.R R N =.q.q.p.s.w.w.p.p.h.h.f.f.G w.w.K.K.f f = % 6 6 H H f.p.s.h.h.h.K J f.p.p.p.p.p.p.p.p.p.p.",
"p.p.f.p.p.p.p.p.f.f.s.e.e.N N y.i.J.P.L.U.j.p.a.a.r.r.K p.h.h.r.d.a.. X $X$X+.+.~ ~ 9 0 f.j.s.s.p.e.p.p.l.s.s.p.p.p.e.p.p.p.p.",
"p.p.p.p.p.p.p.f.f.g.p.e.e.N =.i.i.K.T U.U.f.f.g.a.r.r.p.K s.h.d.a.a.. . $X$X#.#.~ ~ 9 9 g.j.p.x.p.e.p.p.g.p.s.p.p.p.p.p.p.p.p.",
"p.f.h.f.p.p.p.f.f.p.p.c.h.f.f.p.h.p.f.G J f.f.p p , e & a y y X < 7 7 a , X ' ' W W O O f.f.p.p.p.p.h.p.a.t.s.p.p.s.p.p.p.p.p.",
"p.p.h.f.p.p.p.h.f.g.e.h.h.f.f.p.p.p.p.G e.f.f.p p @ X a a y y a < 7 7 < . X ' ' W W O O f.f.h.p.e.s.p.h.a.s.p.p.p.p.p.p.p.p.h.",
"p.p.h.p.p.p.p.p.f.f.p.p.p.U I f.f.t.e.7 s > 2 V V 1.1.,.4.:.:.7.6.7.M M S S o 4 c c f.J.f.f.p.K a.p.p.p.f.p.p.p.p.p.p.p.p.p.p.",
"p.p.p.h.p.p.p.h.f.f.s.p.p.U U f.f.q.e.7 0 2 2 V V 1.1.,.,.:.:.7.6.7.M M S S O O c c f.f.f.f.a.p.d.p.p.a.g.p.G p.p.s.p.p.p.p.p.",
"p.p.p.f.p.p.p.p.g.f.s.h.h.p.s.p.h.# # 6.6.Z.Z.M.M.n.n.F.m.C.C.N.;.:.2.2.>.>.V M     K.K.f.f.p.p.d.p.J p.h.p.p.p.p.p.p.p.p.p.p.",
"p.p.p.p.p.p.p.p.g.f.p.h.h.p.p.p.h.# # 6.6.Z.Z.M.M.n.n.F.F.M.M.N.:.;.1.2.>.>.M M     K.K.f.f.p.p.e.p.p.p.j.p.p.p.p.p.p.s.p.p.p.",
"p.p.p.p.p.p.p.p.f.f.s.p.f.R I 5 5 :.:.S.S.B.B.V.Z.S.S.0.0.V.V.8.H.H.;.;.4.4.3.3.A A 4 4 f.P h.h.d.s.p.p.p.h.p.p.p.p.p.p.p.p.p.",
"p.p.p.p.p.p.p.p.g.f.s.p.p.R R 5 : :.:.V.A.B.B.V.V.S.0.0.0.V.V.8.D.H.;.;.4.4.3.3.A A 4 4 f.f.s.s.s.s.s.p.p.p.h.f.p.p.e.p.p.p.p.",
"p.p.p.p.p.p.p.p.f.f.p.j.j.t.w.< > @.@.o. .$.$.%.%.#.#.X.X.Z.Z.8.8.8.V.V.<.<.,.,.M M 2 2 K.K.s.s.t.t.e.p.f.f.f.p.p.p.p.p.p.p.p.",
"p.p.p.f.p.p.h.f.f.g.p.j.K.t.t.> < O.O.o.o.$.$.%.%.#.#.X.X.Z.Z.8.8.8.V.V.<.<.,.,.M M 2 2 K.K.t.p.e.t.p.e.f.p.f.p.p.p.p.p.p.p.p.",
"p.p.h.h.p.p.p.f.f.f.s.J J u.d.& & `.`././.(.[.@ o ~.~.'.'.....H.V.B.C.C.,.:.3.3.V V 6 6 h.h.G e.d.e.f.p.f.J f.p.p.p.d.p.p.p.p.",
"p.p.p.f.p.p.p.p.g.f.p.G G d.d.a & `.{././.[.[.4 4 ~.~.'.'.....H.V.9.C.C.:.,.3.3.V V 6 a h.J.e.G r.e.f.f.f.J f.p.p.p.s.p.p.p.p.",
"p.f.h.h.p.p.p.p.f.f.s.s.s.e.e.z z _.^.^.^.(.(.r r ).).!.!.&.&.m.A.A.B.B.2.2.;.2.V M 6 6 h.J.p.p.d.r.a.a.f.p.G p.p.p.s.p.p.p.p.",
"p.p.h.p.p.p.p.h.g.f.s.s.x.q.e.p z ^._.!.!._.(.r r ).).!.!.O.&.m.A.A.V.B.4.:.2.2.B M @ 6 J.f.p.p.a.r.a.p.f.e.p.p.p.h.p.p.p.p.p.",
"p.p.p.p.p.p.f.f.f.p.s.h.J.u.u., , /./.].]././., , _._.).).+.+.V.B.9.V.V.4.2.7.4.m m : : I f.s.x.p.p.p.f.p.p.p.p.p.p.p.p.p.p.p.",
"f.p.p.p.p.p.p.f.f.f.p.s.s.f.P @ & `.`.^.^.{.{.$ $ `.`.~.~.O. .9.C.C.F.F.*.*.<.Z M V k k f.P p.h.e.p.p.p.p.p.p.p.p.p.d.p.p.p.p.",
"p.p.p.h.p.p.p.h.f.f.s.s.s.P f.e a `.`.^.^.'.'.O O `.`.~.~.o.O.9.C.C.F.F.*.*.Z Z V V k k K P h.s.p.e.p.G p.p.p.p.p.p.p.p.p.f.p.",
"p.p.h.f.p.p.p.p.j.g.p.k.k.q.q.K.K.& #  . .o.o.{ { | | $.@.n.n.S.8.m.5.5.7.7.M M 5 : D D h.p.p.f.p.J g.j.s.a.p.p.p.p.p.p.f.p.p.",
"p.f.h.p.p.p.p.f.f.f.p.k.k.q.q.K.J.$ &  . .o.O.{ { | | @.X.n.n.0.8.m.5.5.7.7.m M 9 : D D h.f.f.K p.f.g.d.h.p.K p.p.p.p.p.h.p.p.",
"p.p.p.p.p.p.h.f.f.f.p.e.e.s.c.f.P t.i., , y y C C 3.3.G.G.9.M.D.;.*.B B e e 4 4 J.P.c.c.h.h.g.I h.f.p.p.s.K K p.p.p.s.p.f.p.p.",
"p.p.p.p.p.p.p.p.g.p.s.G e.x.h.f.f.i.i., , y y C C 3.3.G.G.M.M.D.;.*.B B e f 8 4 J.J.c.c.U.p.I I h.p.j.p.p.I a.p.p.p.p.p.p.p.p.",
"f.p.p.p.p.p.p.p.f.f.p.f.J.g.g.s.e.r.r.T.T.+ + y y @ o r e s s @ 7 7 s s 7 5 a.K x.s.p.e.p.J g.g.h.h.p.s.s.l.l.f.p.s.p.f.p.p.p.",
"p.p.p.p.p.p.p.h.g.f.p.J.f.I g.t.q.r.r.T.T.+ + y y @ 6 < < s a X 7 7 s i 5 7 K K p.h.e.e.J J K.I h.p.t.e.s.l.g.p.p.p.e.p.p.p.p.",
"p.p.p.p.p.p.p.p.f.f.p.-.-.I.I.a.a.f.J.p.p.6 o - f : < W.W.R.R.s  X.Xh h s.s.p.p.s.x.d.p.p.p.p.f.p.e.f.p.p.p.p.p.p.p.s.f.p.p.p.",
"p.p.p.p.p.f.h.p.g.f.t.-.-.I.R a.f.f.P p.f.o , - - : : W.W.R.R.y  X.Xh h s.p.K J s.h.p.p.a.g.K p.p.f.p.p.j.p.d.d.p.p.p.p.p.p.p.",
"p.p.p.p.p.p.p.p.f.j.p.h.h.e.d.p.p.e.e.8 8 %X%XX.X.' ' p s r > oX.X.X.X.X0 0 J p.f.f.s.t.p.p.f.p.j.j.a.f.p.p.e.p.p.p.p.p.h.f.p.",
"p.p.p.p.p.p.p.p.f.f.p.h.h.e.e.p.p.e.e.8 8 %X%XX.X.' ' l y i u oX.X.X.X.X0 0 P J f.p.t.p.p.p.p.a.j.d.f.p.p.G p.p.p.p.p.p.f.p.p.",
"p.p.p.p.p.p.h.f.g.f.p.T T e.p.p.d.p.f.& a o.o. . ./ / i p b b v c Y n n > < y.y.d.d.d.p.p.e.p.p.f.f.p.p.p.a.a.p.p.e.p.p.h.f.p.",
"p.h.p.p.p.p.f.p.f.p.p.T T p.p.x.h.p.p.& @ o.o. . ./ / i p b b v Y Y n n , < y.y.l.d.s.p.p.p.p.p.p.f.f.f.p.p.h.p.s.p.p.p.p.p.p.",
"h.p.p.p.p.p.p.p.f.f.p.f.K.t.t.e.t.3 3 e e u u @ @ e e }.}.OXoXoX|.|.OXOXd d f.f.f.J a.a.f.a.p.h.s.t.e.p.f.j.h.p.p.p.p.p.f.p.p.",
"f.p.p.p.p.p.p.p.f.g.p.J.f.t.t.w.q.7 3 e e u u @ 8 r e }.}.OXOXoX|.|.OXOXd 6 f.f.J J a.a.a.g.p.s.s.s.p.p.f.j.j.p.p.p.p.p.h.p.p.",
"p.p.p.p.p.p.h.p.f.g.s.w.w.p.h.r r ! ! x x , : XXXX#X#X@X@X}.}.oX|.|.o # I I K.K.w.y.e.e.p.K a.g.s.c.s.p.p.p.g.p.p.e.s.p.f.p.p.",
"p.p.p.p.p.p.p.p.f.g.p.-.w.p.h.< 3 ! ! x x , 6 XXXX#X#X@X@X}.}.oX|..Xo o H I K.K.y.t.e.p.p.K g.a.h.s.s.p.p.g.h.p.p.p.p.p.p.p.p.",
"p.p.p.p.p.p.h.f.f.f.e.f.f.a.I 5 5 ` ` E E R.R.: : e < , , Q.Q.E.0 q u u O O d.p.P p.Y.b.f.f.I U a.a.h.p.p.G p.p.p.p.s.f.p.p.p.",
"p.p.p.p.p.p.p.f.f.f.p.f.p.a.I 5 8 ` ` E E R.R.: : w r , , Q.Q.E.q 2 p p O O d.e.f.f.b.b.h.h.I K a.p.h.h.p.p.G p.p.p.p.p.p.p.p.",
"p.p.p.p.p.p.p.p.p.p.s.P P Y.Y.f.p.t l [ [ _ _ / ( s s < < f f +X_ ' Q Q % = p i a a H H j.K.f.h.G K g.a.p.p.p.p.p.p.p.p.p.p.p.",
"p.p.p.p.p.p.p.p.p.p.p.d.p.e.G k.a.6 6 : 1 ' ] . . s s d * 4 o %.&.@.^ ^ a 6 r r : 5 k O H H Y.Y.s.e.a.K p.p.p.p.p.p.p.p.h.p.p.",
"p.p.p.p.p.p.p.p.p.p.s.p.a.e.e.a.l.6 7 : : ] ] ; 4 s y & * 4 4 %.X.$.^ ^ a 6 r r 5 5 j j H H Y.Y.s.p.I a.s.p.p.p.p.p.p.f.f.p.p.",
"f.h.h.p.p.p.p.p.p.p.p.I a.h.h.P P 6 7 d d > 2 g x , e q 0 } } +.) ) 0 0 7 7 0 r @ @ k $ L L Y.Y.p.p.I l.p.p.p.f.j.p.p.p.p.p.p.",
"p.p.p.p.p.p.p.p.p.h.p.g.a.h.c.P P 5 6 d d > > x g e , q q } } +.) ) 0 0 9 : 3 < @ @ k j L L Y.Y.P P K U p.p.p.K.j.p.p.p.p.p.p.",
"p.p.p.p.p.p.p.p.p.p.f.a.K U.U.f.f.J.P.1 1 6 6 . 4 d a X X g p s . . a 6 r i r w = = H J s.s.p.s.q.q.y.d.t.p.p.p.p.p.p.p.p.p.p.",
"p.p.p.p.p.p.p.p.p.p.P K a.L.U.f.p.J.J.1 1 6 5 . . a s X X g g s . @ a e r i w w = f G F s.h.s.s.q.e.p.y.x.p.f.p.p.p.p.p.f.p.p.",
"p.p.p.p.p.p.p.p.p.p.h.q.q.q.q.t.t.x.t.x.x.e.p.a.d.g.p.a.U p.a.G d.p.s.d.s.s.f.p.R U Y.Y.j.p.p.p.f.p.p.p.p.p.p.p.p.p.p.t.t.p.p.",
"p.p.p.p.p.p.p.p.p.p.j.w.w.e.q.e.w.s.x.x.x.t.p.p.p.d.d.K a.p.g.p.p.e.p.h.s.x.f.p.z.z.Y.Y.j.h.f.p.p.p.p.p.p.p.p.p.p.p.p.s.w.f.p.",
"p.p.p.p.p.p.p.f.p.p.p.p.p.p.p.p.p.p.p.p.p.p.p.p.p.p.p.p.p.p.p.p.p.p.p.p.p.p.p.p.p.a.p.p.p.p.p.p.p.p.p.p.p.p.p.p.p.p.p.p.p.p.p.",
"p.p.h.p.p.p.p.h.p.p.p.p.p.p.p.p.p.p.p.p.p.p.p.p.p.p.p.f.p.p.p.p.p.p.p.p.p.p.p.p.p.p.p.p.p.p.p.p.p.p.p.p.p.p.p.p.p.p.p.p.p.p.p."
};
