/* XPM */
static char *result[] = {
/* columns rows colors chars-per-pixel */
"63 63 183 2 ",
"   c #1C0905",
".  c #1F0F0E",
"X  c #171200",
"o  c #1C1202",
"O  c #121800",
"+  c #1C130C",
"@  c #1C1A09",
"#  c #1E0F12",
"$  c #1F131D",
"%  c #230C02",
"&  c #2A0A00",
"*  c #20070B",
"=  c #28030B",
"-  c #230D0D",
";  c #2D0C0D",
":  c #340D06",
">  c #320C0D",
",  c #241502",
"<  c #2C1304",
"1  c #291800",
"2  c #24120C",
"3  c #2A120D",
"4  c #221A0C",
"5  c #31120C",
"6  c #2D0612",
"7  c #230C13",
"8  c #2C0D14",
"9  c #250C1A",
"0  c #2A0C1C",
"q  c #320415",
"w  c #330A13",
"e  c #3C0A15",
"r  c #241214",
"t  c #2C1114",
"y  c #231F16",
"u  c #261319",
"i  c #2C151B",
"p  c #231C1D",
"a  c #341513",
"s  c #301619",
"d  c #142107",
"f  c #1A0B20",
"g  c #2B0C23",
"h  c #350B23",
"j  c #2C122B",
"k  c #2B3222",
"l  c #292432",
"z  c #0C7800",
"x  c #1E7400",
"c  c #1E7800",
"v  c #1B730B",
"b  c #237500",
"n  c #287819",
"m  c #017D2D",
"M  c #0C7C2C",
"N  c #027E33",
"B  c #0A7C33",
"V  c #047D3C",
"C  c #0A7D3A",
"Z  c #077942",
"A  c #A11300",
"S  c #AA190E",
"D  c #A41E1F",
"F  c #A9181F",
"G  c #B11810",
"H  c #B3151B",
"J  c #B30C20",
"K  c #AE1220",
"L  c #AD1A25",
"P  c #AC162E",
"I  c #BA1825",
"U  c #A11834",
"Y  c #DB793C",
"T  c #E37222",
"R  c #F0365F",
"E  c #FF3158",
"W  c #EE3E6C",
"Q  c #F43B65",
"!  c #FD346C",
"~  c #FF3869",
"^  c #F93670",
"/  c #FD3973",
"(  c #F8377C",
")  c #CC7041",
"_  c #EA416A",
"`  c #FA4160",
"'  c #1E8D00",
"]  c #1E9100",
"[  c #00861D",
"{  c #2E8707",
"}  c #2F8D00",
"|  c #298D0F",
" . c #318E03",
".. c #239403",
"X. c #26950A",
"o. c #2E920B",
"O. c #379503",
"+. c #289611",
"@. c #25BD06",
"#. c #35BB04",
"$. c #3CB903",
"%. c #3DBD0A",
"&. c #35BE10",
"*. c #3FBD11",
"=. c #008325",
"-. c #098523",
";. c #018D24",
":. c #01832C",
">. c #0B842E",
",. c #018C2D",
"<. c #12802A",
"1. c #05922A",
"2. c #018635",
"3. c #0B8334",
"4. c #018A34",
"5. c #098D32",
"6. c #02853A",
"7. c #0B843A",
"8. c #028B3B",
"9. c #0B8B3D",
"0. c #108431",
"q. c #118C32",
"w. c #11823B",
"e. c #009134",
"r. c #00903A",
"t. c #10953A",
"y. c #43B600",
"u. c #42BB00",
"i. c #40BF0E",
"p. c #2FC000",
"a. c #34C301",
"s. c #3BC403",
"d. c #36CA00",
"f. c #3DCB00",
"g. c #31C50B",
"h. c #39C40C",
"j. c #39CC15",
"k. c #44C303",
"l. c #4CC800",
"z. c #42C409",
"x. c #49C108",
"c. c #4DF200",
"v. c #4CFF00",
"b. c #51FF04",
"n. c #008444",
"m. c #0D8142",
"M. c #038A43",
"N. c #0B8A42",
"B. c #0B844A",
"V. c #028C4A",
"C. c #158B42",
"Z. c #039240",
"A. c #009A55",
"S. c #009861",
"D. c #039C6B",
"F. c #00C553",
"G. c #BA8207",
"H. c #FFA900",
"J. c #F8B400",
"K. c #F3BF00",
"L. c #F9BA02",
"P. c #FFB319",
"I. c #E8C10C",
"U. c #F3C200",
"Y. c #055DD9",
"T. c #0E61D7",
"R. c #046DDA",
"E. c #006DE6",
"W. c #0066EE",
"Q. c #0963EA",
"!. c #006EE9",
"~. c #0776E1",
"^. c #0767F1",
"/. c #0568FF",
"(. c #008C80",
"). c #329BDF",
"_. c #2B98F5",
"`. c #1EA8F0",
"'. c #2CA5FF",
"]. c #33A1F0",
"[. c #80FFA2",
"{. c #F49ECF",
"}. c #E79ADE",
/* pixels */
"2.2.2.2.2.2.2.2.2.2.2.2.4.2.2.2.2.2.2.2.2.2.2.2.2.2.2.2.2.2.2.2.2.2.2.2.2.2.2.2.2.2.2.2.2.2.2.2.2.2.2.2.:.2.2.2.2.2.2.2.2.2.2.",
"2.2.2.2.2.2.2.2.2.2.2.2.4.2.2.2.2.2.2.2.2.2.2.2.2.2.2.2.2.2.2.2.2.2.2.2.2.2.2.2.2.2.2.2.2.2.2.2.2.2.2.2.2.2.2.>.2.2.2.2.2.2.2.",
"2.2.2.2.2.6.2.2.2.2.2.2.2.2.2.2.2.4.2.,.2.:.2.4.4.2.:.2.2.2.2.4.:.4.2.2.4.:.4.:.4.4.2.4.2.2.4.4.4.,.2.2.2.:.4.:.4.2.2.2.2.2.2.",
"2.2.2.2.2.2.2.2.2.2.2.2.2.4.,.2.:.:.2.2.4.4.:.4.4.2.4.2.2.2.2.2.2.2.,.4.2.2.4.2.2.:.2.4.2.2.2.2.2.2.2.2.2.4.2.4.2.2.2.2.2.2.2.",
"2.2.2.2.2.2.2.2.2.6.2.6.8.2.2.2.2.2.2.2.4.6.8.2.2.2.2.2.2.6.2.2.4.6.2.2.2.2.2.2.2.2.2.2.2.2.4.4.4.2.2.2.2.2.2.6.8.2.2.2.2.2.2.",
"2.2.2.6.2.6.2.2.2.2.2.4.2.2.2.2.2.2.2.6.4.2.2.2.2.2.2.8.2.2.4.8.6.4.4.7.2.2.2.2.2.2.2.2.6.2.6.2.6.8.4.8.2.2.2.2.4.2.2.2.2.2.2.",
"2.2.2.2.2.2.2.2.2.2.2.2.2.2.2.2.2.2.2.2.6.2.2.2.2.2.2.2.2.2.2.2.2.2.2.2.2.2.6.4.2.2.2.2.2.2.2.2.2.2.2.2.2.2.2.2.2.2.2.2.2.2.2.",
"2.2.2.2.2.2.2.2.2.2.2.2.2.2.2.2.2.2.2.2.2.2.2.2.2.2.2.2.2.2.2.2.2.2.2.6.2.2.2.2.2.2.2.2.2.2.2.2.2.2.2.2.2.2.2.2.2.6.2.2.2.2.2.",
"2.2.2.6.2.2.2.2.2.2.4.2.2.6.2.2.2.2.2.2.2.2.2.2.2.2.2.2.2.2.2.2.2.2.2.2.6.2.2.2.2.2.2.2.2.2.2.2.2.2.2.2.2.2.2.2.2.2.2.2.2.2.6.",
"2.2.2.4.2.2.2.6.2.2.2.2.2.2.2.2.2.2.2.2.2.2.2.2.2.2.2.2.2.2.2.2.2.2.2.2.2.2.2.2.2.2.2.2.2.2.2.2.2.2.2.2.2.2.2.2.2.2.2.2.2.2.2.",
"2.2.2.2.2.2.2.2.2.2.2.2.2.2.2.2.2.2.2.2.2.6.2.2.2.6.2.2.2.2.2.6.2.2.6.2.2.2.2.2.2.2.2.2.2.2.2.2.4.6.2.2.2.2.2.2.2.2.2.2.2.2.2.",
"2.2.2.2.2.2.2.2.2.6.2.2.2.2.2.2.2.6.2.2.2.2.2.2.2.2.2.2.2.2.2.2.2.4.2.2.2.2.2.2.2.6.2.2.2.2.2.2.2.2.2.2.2.2.2.2.2.2.2.2.2.2.2.",
"2.2.2.2.2.2.2.2.2.2.2.2.2.2.2.2.2.2.2.2.2.2.2.2.2.2.2.2.2.2.2.2.2.2.2.4.2.6.2.2.2.2.2.2.2.4.2.2.2.2.2.2.2.2.2.2.2.2.2.2.2.2.2.",
"6.2.2.2.2.2.6.2.6.8.2.7.6.6.M.,.,.4.4.3 3 t t # # 8.8.N 2.7.7.8.=.=.C Z n.6.2.6.4.>.w.w.=.=.3.0.9.8.B m 7.2.4.,.2.2.2.2.2.2.2.",
"2.2.2.2.2.2.2.2.6.6.4.7.V n.n.,.,.2.4.3 3 t 8 . + M.8.7.2.7.5.2.=.=.Z 7.6.n.2.2.,.,.w.C.=.;.3.3.8.8.N B 2.2.4.4.4.2.4.2.2.2.2.",
"2.2.2.2.8.2.2.2.7.6.2.0.3.>.M q.q.*   }.}.` ` H H 6 6 M.M.m m 4.C.C.2.6.;.;.6.2.N 2.2.6.4.2.r.4.4.r.2.2.8.2.3.4.4.2.2.2.2.2.2.",
"2.2.2.2.2.2.2.2.6.6.2.3.>.3.3.5.q.* * }.}.` ` H H q q M.M.m m 4.C.C.2.2.1.;.6.6.2.2.2.2.2.2.4.4.4.e.2.2.8.2.2.4.4.2.4.2.2.2.2.",
"6.2.2.2.2.2.2.2.2.2.4.;.=.8.4.Z n.> 5 ( _ S D L L : 1 ; ; ; ; t ; ;     w w 0.0.6.8.2.2.C.C.m m 4.4.M 3.:.7.7.N 2.2.4.6.6.2.2.",
"2.2.2.2.2.2.2.2.2.2.4.=.;.8.4.6.6.5 > ( / S S L L < 1 > > ; ; t ; ;     a w 0.0.8.8.2.2.C.B.m :.e.4.3.B m w.C 2.:.2.4.2.2.2.2.",
"2.2.2.2.2.2.2.2.6.7.2.N 6.r.r.7.C 8.5.; = $ r 9 8 v v | | X.X...+.+.o.+.b b % % h h 4.8.n.M.4.8.4.,.:.2.4.2.2.8.8.2.2.2.6.2.2.",
"2.2.2.2.2.2.2.2.6.6.2.7.6.r.r.7.3.8.5.= = r r 9 9 v v | | X.X...+.+.o.o.b b % % h h 8.5.M.n.6.4.,.4.2.:.e.2.2.6.6.>.4.2.6.2.2.",
"2.2.2.2.2.2.2.2.7.6.4.m.B.4.4.[ [ ,.4.< 3 { { h.h.d.d.f.f.u.u.$.*.*.g.g.X.X. . .c c & < Z Z 2.7.M <.4.8.:.6.2.7.7.2.2.2.6.2.2.",
"2.2.2.2.2.2.2.2.6.2.2.B.B.4.8.[ [ 2.,.> ; { { h.h.d.d.f.f.u.u.s.%.*.g.g.X.X. . .c x & < Z Z 6.6.M >.8.8.2.2.2.7.2.2.2.2.6.2.2.",
"2.6.6.2.2.2.2.2.6.7.2.2.2.<.<.e.r.0 9 v v v.v.c.c.h.%.#.#.h.h.s.$.$.a.a.z.z.} } o.o.n n 7 7 N m 5.5.B B 4.7.C 4.4.2.2.2.6.2.2.",
"2.2.2.2.2.2.2.2.6.6.2.2.N M M e.8.0 g b v v.v.c.c.%.h.#.#.h.h.s.$.$.a.d.z.k.} } o.o.n n r r m :.5.5.B B 4.7.C 2.4.2.:.2.2.2.2.",
"2.2.2.2.2.2.2.6.2.2.2.B.B.5.4.:.=.t t ....v.v.b.v.a.a.a.a.g.g.d.x.x.$.u.( ( ^ / H I A A i y 8.8.:.;.M.8.2.6.6.4.4.2.4.2.2.2.2.",
"2.2.2.2.2.2.2.6.2.2.2.B.B.4.,.=.:.t t ....b.v.b.b.a.a.a.a.g.g.s.x.x.u.u.( ( ^ ^ I I A A y u 8.r.:.:.8.M.8.6.6.4.4.4.2.2.2.2.2.",
"2.6.2.2.2.2.4.2.2.2.4.-.-.n.8.7.3.e e ....&.&.s.s.%.s.%.s.s.s.%.#.#.Q W K.K.K.J.- * Y Y - 7 :.2.>.>.6.V 4.V 7.4.>.2.2.2.6.2.2.",
"2.2.2.2.2.2.2.2.2.2.4.-.-.n.2.2.2.e e ....&.&.s.s.%.s.%.i.s.s.u.&.#.Q W U.U.L.L.2 - Y Y 7 . 2.2.>.>.V V 4.C V >.,.2.2.2.6.2.2.",
"2.2.2.2.2.6.6.2.2.2.:.m m r.r.,.,.w 6 }  .z.h.u.$.s.a.k.u.a.h.a.$.%.W W P.P.L.K.2 - G.G.7 7 n.M.;.:.V V ,.2.:.6.6.>.2.2.2.2.2.",
"2.2.2.2.2.2.2.2.2.2.4.M M r.r.,.,.6 6  . .s.h.s.k.a.a.k.k.%.#.a.$.#._ W P.P.K.K.2 2 G.G.7 7 M.M.:.:.C C ,.2.2.8.8.2.4.6.6.4.2.",
"2.2.8.6.2.4.6.2.2.2.2.M.M.2.2.N 2.t i ] ] x.z.@.p.j.j.p.p.s.s.a.l.l.! ! J.J.H.H.4 4 T T - ; M.N.4.4.6.2.:.7.7.2.2.2.4.2.6.2.2.",
"2.2.6.8.2.2.2.2.2.2.2.6.8.>.0.8.M.u i z z u.$.s.s.u.y.h.s.j.j.s.#.#.( ( L.K.I.I.0 g ) ) @ @ :.:.4.e.M.M.5.N N 4.4.2.2.2.2.2.2.",
"2.2.6.2.2.2.6.2.2.2.2.8.6.3.0.M.8.i u z z u.k.s.s.u.y.s.s.j.j.k.#.#.^ ( L.L.I.I.9 0 ) ) @ @ m :.8.4.Z.N.>.N N 4.4.2.2.2.6.2.2.",
"2.2.6.4.2.2.2.4.2.2.4.V.M.m =.[ [ n.6.e e ' ' k.x.i.i.y.u.d.d.$.s.s.a.d.W W ! ! F H O O w.w.,.5.N m 8.8.>.7.7.4.,.2.2.2.2.2.2.",
"2.4.8.6.2.2.6.2.2.2.2.V.M.=.m ;.[ n.n.e e ] ' k.k.i.z.y.y.a.d.$.s.s.d.d.W W ^ ! H H O O w.w.,.4.m m 8.8.:.7.n.,.,.2.2.2.6.2.2.",
"2.2.6.4.2.2.2.6.2.2.2.m m t.t.Z Z 8.8.,.,.1 , 9 9 x x O.O.h.g.x.y.u. . .c c , , i 8 m.m.8.r.,.,.r.M.2.N 2.8.8.2.:.4.2.2.2.2.2.",
"2.2.2.8.2.2.2.2.2.2.2.m m t.t.Z Z 2.8.,.1.1 < # 9 x x  .O.g.h.u.u.u.o. .c c % , 8 t Z m.e.8.,.,.8.8.m m >.8.8.:.>.2.2.2.2.2.2.",
"2.2.6.6.2.2.6.6.2.2.2.1.1.N N m.m.2.2.Z n.2.4.3 - ; > . # 8 0 & u u # # * * s s 7.C m.V e.,.M M 2.N Z.Z.2.7.7.:.2.2.2.2.2.2.6.",
"2.2.6.2.2.2.2.2.2.2.2.1.1.N N m.m.6.2.n.n.4.4.r 3 ; > . . 0 0 & i u # # % % s s w.w.V 6.4.4.M m 2.2.Z.r.m 2.7.2.:.2.2.2.6.2.2.",
"2.2.6.2.2.2.2.6.2.2.2.;.;.2.2.V 6.9.M.6.V ,.1.8.8.t t 7 9 D.D.F.8 w ^.^././.X X :.:.9.r.7.N C.C.:.,.N m 8.4.4.3.3.2.4.2.6.2.2.",
"2.2.2.8.2.2.2.2.2.2.2.;.;.2.2.2.N 9.7.V V 1.,.6.6.3 3 7 7 D.D.F.w w ^.^././.X O =.M N.9.N N C.C.:.;.B N 6.2.4.7.7.2.2.6.4.2.2.",
"2.2.6.2.2.2.2.2.6.7.2.C C 8.8.>.-.:.=.2.,.m 3.$ $ {.{.~ ~ S G 7 R.R.).).W.W.!.E.t r ;.,.6.n.C N e.e.0.C 6.4.4.2.2.4.4.2.6.2.2.",
"2.2.8.6.2.2.6.6.6.6.2.C C M.8.>.>.m :.4.2.N N u $ {.{.! ! G G r R.R.).).W.W.!.!.t 8 :.;.6.6.N V ,.e.C 3.2.4.8.2.2.2.2.2.6.2.2.",
"2.2.6.8.2.2.2.6.6.7.2.2.2.:.3.4.4.:.m 3.7.6.6.@ @ ^ ^ Q R G G + l l l l k k j p < 5 M.8.2.2.4.4.3.>.4.4.6.8.M.2.2.2.2.2.2.2.2.",
"6.4.6.2.2.2.2.2.6.6.2.2.2.2.2.4.4.:.:.7.7.n.6., + ^ ! Q Q G G 4 l l l l k k p p : > 8.6.N :.4.4.3.3.4.4.2.8.M.2.2.2.2.2.6.2.2.",
"2.2.2.8.2.2.2.2.7.8.2.8.6.7.N 3.5.4.4.2.:.8.r.2 % w w j j 2 2 Q.].]._._.Q.Q.~.~.f f V 6.2.2.M M r.e.2.2.7.2.7.2.2.2.2.2.2.2.2.",
"2.2.6.2.2.2.2.2.6.7.2.8.8.B N 4.4.4.e.:.2.8.4.2 ; w w j j 2 2 Q.].]._._.Q.Q.~.~.f f 6.6.2.7.M M e.r.:.2.N 9.7.6.2.2.2.2.6.2.2.",
"2.2.6.4.2.2.6.2.2.2.2.6.6.6.8.2.,.M >.3.3.7.C V.V.r 3 `.`.Y.Y.^.'.'.T.T.!.!.o o s s o o N.N.7.8.:.2.9.9.m 2.2.:.:.2.2.2.2.2.2.",
"2.2.6.2.2.2.2.2.2.2.2.2.6.M.2.,.2.>.>.7.3.B 6.V.V.t 3 `.`.Y.Y.^.'.'.T.T.!.!.o o i s o o N.N.8.8.4.:.9.7.B 7.2.:.4.4.2.2.6.2.2.",
"2.2.8.8.6.4.6.2.2.2.,.8.8.B B r.8.8.6.2.6.< < & & o , > > 3 a o A.A.S.S.g g < < R R ! ~ % % N m 4.4.3.2.2.4.4.2.4.2.2.2.2.2.2.",
"2.2.6.2.2.2.2.2.2.2.2.8.8.B B 6.4.6.4.6.2.< < & & o , > : a 3 . A.A.S.S.g 0 , 1 R R ~ ! % , N N 7.8.2.:.7.4.4.4.4.2.2.2.6.2.2.",
"2.2.2.8.2.2.2.6.2.2.2.3.2.3.3.8.6.N V t a 3 4 P P I P D.D.2 3 g > w (.(.[.[.! ! / / U U , < N.N.2.4.:.2.9.4.,.2.4.2.>.2.2.2.2.",
"2.2.6.6.2.2.2.2.2.2.2.,.>.:.2.r.8.; ; 6 6 t 8 : : J J L K P P q @ @ o o I I E E F F < < 7.7.8.4.4.4.7.w.M 4.4.:.:.2.2.2.6.6.2.",
"2.2.6.2.2.2.2.6.2.2.4.3.4.:.>.8.r.3 ; 6 6 t t : > J J K K P P w + @ o + I I E E F F 2 < m.m.6.8.4.8.w.9.N 2.8.:.:.2.4.6.2.2.6.",
"2.2.8.6.2.2.4.2.2.2.,.:.:.8.8.2.8.d d ; 8 7 7 y y , , r 9 4 @ . > 8 g g L K D F 8 a < < N 2.2.2.m :.2.2.5.3.7.3.3.2.4.2.6.2.2.",
"2.2.6.8.2.2.6.2.2.6.4.:.m 8.8.8.8.d d ; ; 7 7 y y , @ 9 9 4 4 . w > g g L L D D t t < < 2.N 2.2.m :.2.2.6.7.7.3.3.2.2.2.2.2.2.",
"2.4.6.2.2.2.2.2.2.2.4.M.M.2.4.>.B C C 3 t r r 6 6 r # 2 + 6 ; < < 2 t t + + 8 t 8 - 6.6.N 2.4.8.2.3.8.4.2.4.4.7.7.,.2.2.2.2.2.",
"2.2.2.8.2.2.2.6.2.2.2.8.M.2.2.M 3.B B t 3 r r 6 6 r r 2 2 ; ; < % < t t + + a 3 - 8 6.6.2.N 4.4.2.3.7.4.2.2.4.7.7.2.2.2.2.2.2.",
"2.2.2.2.4.2.2.2.2.2.2.2.4.4.2.4.4.4.4.4.4.4.2.4.4.4.2.4.4.2.2.4.2.4.4.4.2.2.2.2.2.2.2.2.4.4.4.4.,.4.2.4.,.4.4.2.4.2.2.2.2.2.2.",
"2.2.2.2.2.2.2.2.2.2.4.4.2.2.4.2.2.4.2.4.4.:.2.4.4.4.4.2.4.2.4.2.4.4.2.4.4.2.4.4.4.4.2.4.4.2.4.2.2.2.4.4.2.4.2.4.2.2.2.2.2.2.2.",
"2.2.2.2.2.6.2.2.2.2.2.2.2.2.6.4.2.2.2.2.2.2.2.2.2.2.2.2.2.2.2.2.2.2.2.2.2.2.2.2.2.2.2.2.2.2.2.2.2.2.2.2.2.2.2.2.2.2.2.2.2.2.2.",
"2.2.2.2.2.2.2.2.2.2.2.2.2.2.2.2.2.2.2.2.2.2.2.2.2.2.2.2.2.2.2.2.2.2.2.2.2.2.2.2.2.2.2.2.2.2.2.2.2.2.2.2.2.2.2.2.2.2.2.2.2.2.2."
};
