/* XPM */
static char *result[] = {
/* columns rows colors chars-per-pixel */
"63 63 191 2 ",
"   c #1E0E00",
".  c #1D0F0C",
"X  c #171307",
"o  c #1B120D",
"O  c #1D1B0A",
"+  c #1D0F1E",
"@  c #181315",
"#  c #1B1A14",
"$  c #2C0C04",
"%  c #290709",
"&  c #220D0D",
"*  c #2B0C0B",
"=  c #320002",
"-  c #300902",
";  c #32020E",
":  c #320E0D",
">  c #241504",
",  c #2A1304",
"<  c #23130C",
"1  c #2B120B",
"2  c #24180C",
"3  c #33120B",
"4  c #240C13",
"5  c #2C0C16",
"6  c #27061B",
"7  c #270D1F",
"8  c #2A0B1A",
"9  c #320C17",
"0  c #380B10",
"q  c #330C1B",
"w  c #231414",
"e  c #2E1112",
"r  c #251A13",
"t  c #24131B",
"y  c #2B141A",
"u  c #291D18",
"i  c #301410",
"p  c #371A16",
"a  c #122708",
"s  c #192511",
"d  c #24230E",
"f  c #32341F",
"g  c #1E0620",
"h  c #1E1123",
"j  c #330C21",
"k  c #251723",
"l  c #321523",
"z  c #1D2D23",
"x  c #1D2E36",
"c  c #2A2D24",
"v  c #312225",
"b  c #322A39",
"n  c #430905",
"m  c #1C6902",
"M  c #1B7000",
"N  c #1C780B",
"B  c #226D00",
"V  c #2B6E0F",
"C  c #306E00",
"Z  c #21760E",
"A  c #216A11",
"S  c #017E2D",
"D  c #0F6F30",
"F  c #037530",
"G  c #047C33",
"H  c #097D34",
"J  c #06773F",
"K  c #047E3B",
"L  c #087A3F",
"P  c #117338",
"I  c #107F3A",
"U  c #097F45",
"Y  c #9F1B0F",
"T  c #B4150E",
"R  c #A81814",
"E  c #B41715",
"W  c #B41A1B",
"Q  c #A4230E",
"!  c #A62014",
"~  c #AB1826",
"^  c #BB142C",
"/  c #B41830",
"(  c #EC3D4C",
")  c #EC3A5C",
"_  c #F12F6E",
"`  c #ED3668",
"'  c #F73767",
"]  c #EE2F72",
"[  c #FE3574",
"{  c #FF3B78",
"}  c #1B9404",
"|  c #1D9900",
" . c #2A8400",
".. c #268E04",
"X. c #2D8C01",
"o. c #348402",
"O. c #328C02",
"+. c #239500",
"@. c #2D9300",
"#. c #249800",
"$. c #299900",
"%. c #2D9D0B",
"&. c #349404",
"*. c #399300",
"=. c #329308",
"-. c #268F18",
";. c #338B11",
":. c #2FBE0E",
">. c #39B700",
",. c #35BD00",
"<. c #3DBE00",
"1. c #30BF0F",
"2. c #3DBE0B",
"3. c #38BE12",
"4. c #018324",
"5. c #088026",
"6. c #028C26",
"7. c #02832C",
"8. c #018B2D",
"9. c #0D892B",
"0. c #13802D",
"q. c #03912D",
"w. c #018635",
"e. c #098335",
"r. c #008A33",
"t. c #008539",
"y. c #0C833A",
"u. c #028B3A",
"i. c #0B893A",
"p. c #11833E",
"a. c #009236",
"s. c #00913D",
"d. c #13913D",
"f. c #319620",
"g. c #43B404",
"h. c #44BB00",
"j. c #4ABC00",
"k. c #43BA0B",
"l. c #2BC402",
"z. c #2ECC00",
"x. c #33C300",
"c. c #3BC400",
"v. c #3CCA02",
"b. c #36C30A",
"n. c #3AC50A",
"m. c #3ACA08",
"M. c #32C417",
"N. c #44C502",
"B. c #48C207",
"V. c #43C30D",
"C. c #50C000",
"Z. c #43FF00",
"A. c #4BFE03",
"S. c #53FD04",
"D. c #018443",
"F. c #0C8443",
"G. c #018B42",
"H. c #0A8449",
"J. c #008948",
"K. c #188149",
"L. c #00BD5B",
"P. c #068567",
"I. c #118562",
"U. c #009261",
"Y. c #009075",
"T. c #01B665",
"R. c #00C559",
"E. c #005FDD",
"W. c #0662CF",
"Q. c #0769D4",
"!. c #0070D7",
"~. c #065FED",
"^. c #006DE3",
"/. c #086FE6",
"(. c #016CEC",
"). c #0A6EE8",
"_. c #1B6EF0",
"`. c #2B9CEB",
"'. c #269DFB",
"]. c #339DF1",
"[. c #3499F9",
"{. c #3B9EFE",
"}. c #2CA7E2",
"|. c #26A2FA",
" X c #32A1FD",
".X c #4FC8F6",
"XX c #5CC0F1",
"oX c #82F9A7",
"OX c #F6AFD7",
"+X c #F0A8D8",
"@X c #E9A5F2",
/* pixels */
"w.w.w.w.w.w.w.w.w.w.w.w.w.t.t.t.t.t.t.t.t.t.t.t.t.t.t.t.t.t.w.t.w.w.w.w.t.w.t.t.t.t.w.w.w.w.t.t.t.t.t.t.t.t.t.t.t.t.t.w.w.w.w.",
"w.w.w.w.t.w.w.w.w.w.t.w.w.t.t.t.t.t.t.t.t.t.t.t.t.t.t.t.t.t.t.t.w.w.w.w.w.w.t.t.t.t.w.w.w.w.t.t.t.t.t.t.t.t.t.t.t.t.t.w.w.w.w.",
"w.w.w.w.w.w.w.w.w.w.w.w.w.w.w.t.w.t.w.t.w.t.t.u.w.w.t.w.w.w.t.w.w.w.w.w.w.w.w.w.w.w.w.w.w.w.w.w.t.w.t.t.t.t.w.t.u.w.w.w.w.w.w.",
"w.w.w.w.w.w.w.w.w.w.w.w.w.w.w.t.t.t.t.w.t.u.w.t.t.t.t.w.w.w.w.w.w.w.w.t.w.w.w.w.t.w.w.w.w.w.w.w.t.t.t.r.r.w.t.t.t.w.w.w.w.w.w.",
"w.w.w.w.t.w.w.w.w.w.w.w.w.w.w.w.w.r.w.w.w.w.w.w.w.w.w.w.w.w.w.w.w.w.w.w.w.w.w.w.w.w.w.t.w.w.t.w.w.w.w.w.w.w.w.w.w.w.w.w.w.w.w.",
"w.w.w.w.w.w.w.w.w.w.w.t.w.w.w.w.w.w.w.t.w.w.w.r.w.w.w.w.w.w.w.w.w.w.w.w.w.w.w.w.w.w.w.w.w.w.w.w.t.w.w.w.w.w.w.t.w.w.t.r.w.w.w.",
"w.w.w.w.w.w.w.w.w.w.w.w.w.w.w.w.w.w.w.w.w.w.w.t.t.r.t.w.t.w.w.w.w.w.w.t.w.w.w.w.w.w.w.w.w.w.w.w.r.w.w.w.w.w.u.w.w.w.w.w.w.w.w.",
"t.w.w.w.t.w.w.w.w.w.w.w.w.t.w.w.w.w.w.w.w.w.w.w.w.t.r.t.w.t.t.w.w.w.w.w.w.w.w.w.w.w.w.w.w.w.w.w.w.w.w.w.w.t.w.w.w.w.w.w.w.t.w.",
"w.r.w.w.w.w.w.w.w.w.w.w.w.w.w.w.w.w.w.w.w.w.w.w.w.w.w.w.w.w.w.w.w.w.w.w.w.w.w.w.w.w.w.w.w.w.w.t.w.w.w.w.w.w.w.w.w.r.w.w.w.w.w.",
"w.w.w.w.w.w.w.w.t.w.w.w.w.w.w.w.w.w.t.w.w.w.w.w.w.r.w.w.w.w.w.w.w.w.w.w.w.w.w.w.w.w.w.w.w.w.w.w.w.w.w.t.w.w.w.w.w.t.w.w.w.w.w.",
"w.w.w.w.w.w.t.w.w.w.w.w.w.w.w.t.w.w.w.w.w.w.w.w.w.w.r.7.r.w.w.r.r.w.r.r.w.r.w.w.w.t.w.w.w.w.w.w.w.w.w.w.w.w.t.w.w.w.w.w.w.w.w.",
"w.w.r.w.w.w.w.w.r.r.t.w.w.w.w.e.e.u.t.4.7.w.t.i.i.w.t.e.e.D.D.H a.a.a.s.w.G G t.i.i.7.r.w.w.r.r.u.w.e.e.w.w.w.w.t.w.w.r.w.w.w.",
"r.r.r.7.w.w.w.w.r.r.w.w.w.w.w.e.e.t.D.7.7.t.u.i.i.w.t.e.w.D.D.H r.r.a.a.G t.t.G i.i.8.7.w.w.w.w.r.u.G H w.w.w.w.w.w.w.r.w.w.w.",
"e.r.w.r.w.w.w.w.r.r.w.w.w.6.8.t.D.t.t.G.F.r.r.w.w.- - r w     d.G F 5.5.8.8.K U 4.7.i.t.e.7.w.e.r.r.S S w.w.w.w.w.w.w.r.r.w.w.",
"r.r.w.7.w.w.w.w.r.r.w.w.w.6.6.t.t.t.t.G.G.r.w.w.7.$ - r w >   d.G S 5.5.q.9.K t.7.7.t.u.w.w.w.e.w.r.S S w.w.w.w.w.w.w.w.r.w.w.",
"r.e.w.r.w.w.w.w.r.r.w.w.w.y.y.u.t.y.y.6.6.7.7.y y @X@X` ` ~ ~ & P.P.7.7.7.7.p.F.y.u.7.7.u.u.0.y.u.i.r.r.t.w.w.w.w.w.w.r.r.w.w.",
"w.r.w.w.w.w.t.w.r.r.w.w.w.I p.t.u.e.t.8.6.7.7.y y @X@X` ` ~ ~ & P.P.7.8.7.7.p.p.D.G.7.7.t.r.e.e.r.i.r.r.u.w.w.w.w.w.w.r.r.w.w.",
"w.w.7.8.w.w.w.w.r.r.t.w.w.6.8.D.J.4.5.U K.t.w.$ * ( ( [ [ E T < $ , q l w . w.w.J.J.q.q.8.r.7.S w.w.w.r.w.w.w.w.w.w.w.w.w.w.w.",
"w.w.w.w.w.w.w.w.r.r.w.w.w.7.6.D.D.4.5.K.K.w.t.$ 3 ( ( { [ T E > , 1 q y w # w.w.J.G.q.q.r.r.S 7.e.8.w.7.r.w.w.w.w.w.w.t.w.w.w.",
"r.r.r.w.w.w.w.w.r.8.w.w.w.6.6.a.w.y.y.1 * + 4 5 8 W W ~ ~ ~ ~ 3 | | *.O.M M 3 1 j q S S u.s.w.u.w.w.w.w.r.w.w.w.w.w.w.w.w.w.w.",
"r.e.w.8.w.w.w.w.r.r.t.w.w.6.6.r.r.i.K < * 4 4 5 8 W W ~ ~ ~ R : | | O.O.M M 3 1 j j S S r.s.u.r.7.w.w.7.w.w.w.w.w.w.w.t.w.t.w.",
"e.r.w.r.w.w.w.w.r.r.w.w.w.L L u.u.@ @ *.*.k.k.#.#.4 t 4 4 y t Z X.X.&.O...X.&.&.m m 2 1 D D s.G.t.t.i.i.r.w.w.w.w.w.w.w.w.w.w.",
"w.w.7.r.w.w.w.w.r.8.t.w.w.L U s.G.@ @ &.*.2.k.#.#.w 4 * * y y Z  .X.O.=.....=.*.m m 1 1 D D s.u.w.w.r.e.u.w.w.w.w.w.w.w.w.w.w.",
"w.w.r.w.w.w.w.w.r.w.w.w.w.H.H.X X =.;.,.,.S.S.A.A.2.2.@.@.6 6 o.#.#.x.b.;.;.+...X.O.N N a a G t.t.w.e.e.r.w.w.w.w.w.w.w.w.w.w.",
"w.9.7.r.w.w.w.w.r.r.t.w.w.H.H.X   ;.O.,.,.A.S.A.S.2.n.@.@.6 6 o.#.#.x.x.;.;.+.+.X.O.N N a a G G G w.e.e.t.w.w.w.w.w.w.w.w.w.w.",
"r.w.r.w.w.w.w.w.w.w.w.w.w.7.7.2 < j.j.z.m.A.A.Z.Z.2.k.c.c.+.+.@.x.x.k.k.c.c.+.+.@.*.B B - $ H.U t.t.e.e.r.w.w.w.w.w.w.w.t.w.w.",
"r.e.r.r.w.w.w.w.w.w.t.w.w.r.8.2 2 j.h.v.m.A.A.Z.Z.2.2.c.c.#.+.$.x.x.k.k.N.c.+.+.&.@.B B - - F.F.t.t.w.e.r.t.w.w.w.w.w.w.w.w.w.",
"w.w.r.7.w.w.w.w.w.w.w.w.w.8.8.& % m.v.:.:.:.l.v.v.x.x.M.M.x.x.h.b.b.c.c.l.z.o.o.%.%.M m & & D.F.7.w.r.9.r.t.t.w.w.w.w.r.r.w.w.",
"w.r.w.8.w.w.t.w.w.w.t.w.w.8.6.% % v.v.:.:.l.,.v.v.x.x.M.M.x.x.<.b.b.c.c.l.l.o.o.%.%.m M & & F.F.7.7.w.9.r.t.y.t.w.w.w.r.r.w.w.",
"w.w.w.w.w.w.w.w.w.w.t.w.w.K K y y c.x.v.v.v.m.g.>.h.j.j.j.b.b.V.h.<.h.h.c.c.-.-.X.X.C C r < u.G.8.8.e.S e.p.i.w.w.w.w.r.w.w.w.",
"8.w.r.w.w.w.w.w.w.w.w.w.w.K K y t c.<.v.v.n.m.g.g.j.j.j.j.b.b.V.h.h.h.h.c.c.-.-.X.X.C C w < D.u.r.8.7.7.H F.F.w.w.w.w.r.r.w.w.",
"w.e.r.w.w.w.w.w.w.w.w.w.w.t.u.j j <.<.,.>.N.2.m.n.v.n.n.n.c.c.>.v.N.x.z.N.N.=.@.} } V V - - K t.a.r.r.r.e.i.w.w.w.e.e.w.r.w.w.",
"w.r.e.8.w.w.w.w.r.r.w.w.w.8.8.1 & @.X.n.V.B.B.l.l.l.z.c.<.m.m.N.:.1.z.z.h.j.....f.f.M M d d H H r.r.a.r.w.t.t.w.w.w.w.w.r.w.w.",
"w.r.8.w.w.w.w.w.r.r.t.w.w.r.8.& * X.@.V.V.B.B.l.l.l.l.<.<.b.c.V.:.:.z.z.h.h.....f.f.B M d d H K a.r.r.r.r.w.w.w.w.w.w.w.t.w.w.",
"w.r.w.w.w.w.w.w.r.r.w.w.w.D.G.0.0.+ h } } ,.,.V.V.k.V.3.2.3.1.l.N.N.l.l.=.=.$.$.m m 7 7 F F G.s.S G H 7.t.w.w.w.w.w.w.r.w.w.w.",
"w.w.r.7.t.w.w.w.r.r.w.w.w.G.G.0.0.+ + } } ,.,.n.V.V.V.2.2.3.3.l.N.N.l.l.&.&.$.$.m m 7 7 F G G.u.S w.7.e.e.w.w.w.w.w.w.t.w.w.w.",
"w.r.w.7.w.w.w.w.r.8.t.w.w.8.7.i.i.K U > , i i B B X. .c.c.C.C.<.c.c.X.O.A A 1 1 . # 9.9.s.s.w.u.G G w.e.r.w.w.w.w.w.w.w.w.w.w.",
"w.e.w.8.w.w.w.w.r.w.t.w.w.7.7.i.i.t.K > > i i B M  . .n.c.C.C.c.v.c.O.O.A A 3 1 # . 9.9.s.a.u.u.7.G e.w.w.w.w.w.w.w.r.w.w.w.w.",
"w.r.e.w.w.w.w.w.r.r.t.w.w.7.7.w.e.6.4.a.a.1 1 $ : 1 1 t t O O + % * < < 5 8 1 1 U U r.r.7.7.e.7.t.i.s.u.r.w.w.w.w.w.w.w.t.w.w.",
"r.r.8.w.w.w.w.w.r.r.w.w.w.e.9.e.7.4.6.r.r.2 < - $ 1 1 t t O O + $ * 1 * 5 4 , 1 U t.r.w.7.7.e.H y.w.r.u.r.w.w.w.w.w.t.w.w.w.w.",
"w.w.w.8.w.w.t.w.r.r.w.w.w.t.t.w.e.k + 9 9 T.T.^.Q.).).`.`.|.|.{.(.^.^.(.Q.Q.U.U.: 0 w.w.r.8.w.w.r.t.t.r.e.w.e.w.w.w.w.r.w.w.w.",
"w.w.w.w.w.w.w.w.r.r.t.w.w.t.t.e.7.k k 5 9 T.T.^.^.).).}.`.|.|.{.^.(.(.(.Q.Q.U.U.0 0 w.t.r.r.r.7.t.r.w.t.e.7.w.w.w.w.w.w.r.w.w.",
"8.w.r.r.w.w.w.w.r.r.w.w.w.S 7.r r ) ' ' ' _ _ 9 9 ].]..X.XXXXX{.[.[.(.(.Q.W.4 4 4 t U U w.w.w.w.w.w.w.w.r.w.w.w.w.w.w.r.r.w.w.",
"e.r.r.w.w.w.w.w.8.r.t.w.w.7.7.r 2 ' ' _ ' ] _ i i ].]..X.XXXXX{.[.[.(.(.W.W.w w w 4 U U w.w.w.w.w.w.w.t.w.w.w.w.w.w.w.r.r.w.w.",
"w.r.e.8.w.w.w.w.r.w.w.w.w.y.U % ; +X+X[ [ ! ! $ $ b b k k v v x f f z z c c 1 > ! E > > w.w.w.w.w.w.w.w.w.w.w.w.w.w.w.w.r.w.w.",
"w.r.r.w.w.w.w.w.r.w.w.w.w.U U % % +X+X[ [ ! ! $ $ b b k k l v x f f z z c c 2 O ! ! > > w.w.w.w.w.w.w.w.w.w.w.w.w.w.w.r.r.w.w.",
"w.w.7.r.w.w.w.w.r.r.t.w.w.8.w.< & / ^ E E T T y < E.^.{.{..X.X'.`.`.E.E.~.~.j q y 5 a.a.w.w.w.w.w.w.w.w.w.w.w.w.w.w.w.r.r.w.w.",
"w.r.w.w.w.w.w.r.r.r.w.w.w.r.r.& 4 / / E T T T w w E.~.{.{..X.X'.`.`.E.E.~.~.q q y 8 a.a.w.w.t.w.w.w.w.t.w.w.w.w.w.w.w.w.w.w.w.",
"w.9.r.w.w.w.w.w.r.r.t.w.w.w.u.4.4.t t y y > > h h /./.}.}. X X{.!.!._._.U.U.4 4 7.7.F.D.t.w.w.w.w.w.w.w.w.w.w.w.w.w.w.w.r.w.w.",
"w.w.r.8.w.w.w.w.r.r.w.w.w.w.w.S 4.7 t y y > < h h /./.}.}. X X{.!.!._._.U.U.* 5 8.w.F.F.w.w.w.w.w.w.w.w.w.w.w.w.w.w.w.r.r.w.w.",
"w.w.w.w.w.w.w.w.r.r.t.w.w.7.7.G.G.F.y.S S . . & & R.R.I.I.< < 8 oXoXL.L.Y.Y.w w H.F.7.w.w.w.w.w.w.w.w.w.w.w.w.w.w.w.w.r.w.w.w.",
"w.w.8.w.w.w.w.w.8.w.w.w.w.7.6.G.G.F.F.e.e.. . 4 4 R.R.I.I.< > 6 oXoXL.L.Y.Y.w # F.F.7.7.w.t.w.w.w.w.w.w.t.w.w.w.w.w.w.r.r.w.w.",
"w.w.w.r.w.w.w.w.r.r.w.w.w.r.r.r.r.4.7.$ $ l l W ~ W W T T w w , ] ] { { ` ` Q Q n n S 7.w.w.w.w.w.w.w.w.w.w.w.w.w.w.t.w.w.w.w.",
"w.w.r.7.w.w.w.w.r.r.t.w.w.e.e.4.4.p p $ $ + g & * 7 6 w r 5 9 & OXOX) ) Y Y ^ / 4 5 # # w.w.w.w.w.w.w.w.w.w.w.w.w.w.w.w.w.w.w.",
"8.w.r.w.w.w.w.w.r.r.t.w.w.e.e.7.4.p p $ $ 6 g 4 e 7 6 w w 9 9 & OXOX) ) Y Q ^ ^ 4 4 # r w.w.w.w.w.w.w.w.t.w.w.w.w.w.w.w.w.t.w.",
"e.r.w.r.w.w.w.w.8.w.w.e.t.t.w.G.G.4 & 1 1 3 3 o o w w * * 8 5 r R R ^ ^ E W e 1 o 2 8 5 w.w.w.w.w.t.w.w.w.w.w.w.w.w.w.w.w.w.w.",
"w.w.w.8.w.w.w.w.w.r.w.w.w.w.t.G.u.. 4 1 1 3 3 o o w # * * 6 8 u R R ^ ^ W W : i < o 5 9 w.w.w.w.w.w.w.w.w.w.w.w.w.w.w.w.w.w.w.",
"w.w.w.w.w.w.w.w.t.w.w.r.r.w.w.u.s.P P O O e 3 . o u u ; ; w < 5 . 4 @ @ r i = = s s J J w.w.w.7.w.r.w.r.w.r.w.w.w.w.w.w.w.w.w.",
"w.r.w.w.w.w.r.t.w.w.w.w.r.w.u.u.u.P P s O 3 * o o u u ; ; . < i < 4 @ # e e = = s s J J w.w.w.r.w.w.w.w.w.r.w.w.w.w.7.r.w.t.w.",
"w.w.w.w.w.w.w.w.w.w.w.w.w.w.w.8.8.r.r.S S G w.7.w.t.u.t.w.G t.y.G G S w.i.i.e.e.7.S s.a.t.w.w.t.w.w.w.w.w.t.w.w.r.t.w.w.w.w.w.",
"w.w.w.w.w.w.w.t.w.w.w.w.w.w.w.8.8.r.a.7.S t.G w.t.w.u.w.w.t.t.p.G H w.G t.i.e.e.S 7.s.a.w.t.t.w.w.t.t.w.t.w.w.t.w.t.t.w.w.w.w.",
"w.w.w.w.w.w.w.w.w.w.w.w.w.w.t.w.w.w.w.w.w.w.w.w.w.w.w.w.w.w.w.w.w.w.w.w.w.w.w.w.w.w.w.w.w.w.w.w.w.w.w.w.w.w.t.w.w.w.w.w.w.w.w.",
"w.w.w.w.w.w.w.w.w.w.w.w.w.w.w.w.w.w.w.w.w.w.w.w.w.w.w.w.w.w.w.w.w.w.w.w.w.w.w.w.w.w.w.w.w.w.w.w.w.w.w.w.w.w.w.w.w.w.w.w.w.w.w."
};
