/* XPM */
static char *result[] = {
/* columns rows colors chars-per-pixel */
"63 63 189 2 ",
"   c #1F0E03",
".  c #1B0D0B",
"X  c #1E1503",
"o  c #1C130B",
"O  c #1C1C0C",
"+  c #1E0C12",
"@  c #1C1311",
"#  c #1D131B",
"$  c #210600",
"%  c #240C04",
"&  c #2B0B04",
"*  c #2B090A",
"=  c #2B0E0D",
"-  c #35080B",
";  c #350A0C",
":  c #380B08",
">  c #231102",
",  c #2B1301",
"<  c #251C07",
"1  c #22120C",
"2  c #2B1309",
"3  c #331305",
"4  c #351904",
"5  c #240D13",
"6  c #2B0B13",
"7  c #240F18",
"8  c #2D0D1A",
"9  c #300F16",
"0  c #370E16",
"q  c #251410",
"w  c #2B1313",
"e  c #2C1D15",
"r  c #23121A",
"t  c #281819",
"y  c #311313",
"u  c #30101B",
"i  c #1A220B",
"p  c #22311A",
"a  c #141124",
"s  c #250E20",
"d  c #310E22",
"f  c #271022",
"g  c #1F2A36",
"h  c #282722",
"j  c #2A2C2B",
"k  c #342124",
"l  c #1B6B00",
"z  c #157507",
"x  c #1F7200",
"c  c #1E7117",
"v  c #256809",
"b  c #277105",
"n  c #007521",
"m  c #047F26",
"M  c #0A7A25",
"N  c #04752B",
"B  c #017D2E",
"V  c #117920",
"C  c #027C32",
"Z  c #0C7E31",
"A  c #017E3C",
"S  c #0B7E39",
"D  c #127C37",
"F  c #117E3D",
"G  c #077C47",
"H  c #127A4C",
"J  c #9E1D17",
"K  c #AB120A",
"L  c #AE161C",
"P  c #A21C1D",
"I  c #B11614",
"U  c #B6171B",
"Y  c #AA201E",
"T  c #A90C2B",
"R  c #A81725",
"E  c #BB1729",
"W  c #C11316",
"Q  c #E73A5E",
"!  c #EF3962",
"~  c #F73B67",
"^  c #FF3168",
"/  c #F83776",
"(  c #F83B71",
")  c #1B9703",
"_  c #008D1C",
"`  c #278307",
"'  c #218F00",
"]  c #2C8C00",
"[  c #318D03",
"{  c #388E00",
"}  c #37890B",
"|  c #2A9300",
" . c #249A05",
".. c #2C950C",
"X. c #299A0B",
"o. c #349506",
"O. c #389100",
"+. c #318D11",
"@. c #309216",
"#. c #2EBF02",
"$. c #3EB505",
"%. c #33BA03",
"&. c #3DBC00",
"*. c #3EBD0D",
"=. c #3DB813",
"-. c #3DB919",
";. c #008425",
":. c #018B25",
">. c #01832D",
",. c #0B832D",
"<. c #018B2B",
"1. c #098A2E",
"2. c #00902E",
"3. c #018635",
"4. c #0A8234",
"5. c #018A35",
"6. c #0A8A35",
"7. c #018539",
"8. c #0A833A",
"9. c #028B3B",
"0. c #0A8B3B",
"q. c #1C8334",
"w. c #009334",
"e. c #009832",
"r. c #02923D",
"t. c #08903C",
"y. c #418B00",
"u. c #44B901",
"i. c #48BE06",
"p. c #4DB70C",
"a. c #42BF09",
"s. c #44BB14",
"d. c #59BD1D",
"f. c #2AC600",
"g. c #2CCB00",
"h. c #2EC20C",
"j. c #28CC09",
"k. c #35C301",
"l. c #3AC301",
"z. c #33C901",
"x. c #39CA02",
"c. c #34C70A",
"v. c #42C200",
"b. c #42C806",
"n. c #47FF01",
"m. c #4CFF01",
"M. c #5CF618",
"N. c #028543",
"B. c #0B8643",
"V. c #038B42",
"C. c #098E44",
"Z. c #00864A",
"A. c #08834C",
"S. c #078F4F",
"D. c #039443",
"F. c #03944B",
"G. c #0C8B51",
"H. c #139058",
"J. c #009471",
"K. c #00C754",
"L. c #00CB52",
"P. c #01C861",
"I. c #0069D4",
"U. c #026BDD",
"Y. c #075FE5",
"T. c #035EEA",
"R. c #0B5FF3",
"E. c #0467E9",
"W. c #006FEC",
"Q. c #0070E1",
"!. c #7EFFA5",
"~. c #74FFBD",
"^. c #79FFBF",
"/. c #2D9DE9",
"(. c #3E9EF5",
"). c #339DFF",
"_. c #3CA0EE",
"`. c #2DA3F5",
"'. c #25A3FE",
"]. c #29A1FF",
"[. c #5CBFF8",
"{. c #5CC3EE",
"}. c #4DC2F8",
"|. c #54C0FF",
" X c #58C4FA",
".X c #FF9ED5",
"XX c #EF9FE4",
"oX c #F09FE1",
"OX c #83C1CE",
/* pixels */
"3.3.3.3.3.3.3.3.3.3.3.7.7.7.7.3.3.7.7.7.7.7.7.7.7.7.3.3.3.3.3.3.3.3.3.3.7.7.3.7.7.7.3.7.7.7.7.7.3.3.3.3.3.3.3.3.3.3.3.3.3.3.3.",
"3.3.3.3.3.3.3.3.3.3.3.7.7.7.7.3.3.7.7.7.3.7.7.7.7.3.3.3.3.3.3.3.3.3.3.3.7.7.3.7.7.7.7.7.7.3.7.7.3.3.3.3.3.3.3.3.3.3.3.3.3.3.3.",
"3.3.3.3.3.3.3.7.3.3.3.3.3.3.3.3.3.3.7.3.3.3.3.3.3.3.7.7.7.7.9.3.3.7.9.3.7.7.9.7.7.7.7.3.9.5.7.3.3.9.3.3.9.3.7.3.3.3.3.3.3.3.3.",
"3.3.3.3.3.3.3.5.3.3.3.3.3.3.3.3.3.3.3.3.3.3.3.3.3.3.3.9.7.3.9.7.9.7.3.3.7.7.5.7.7.3.9.7.7.7.7.9.7.3.7.9.3.7.9.3.3.3.3.3.3.3.3.",
"3.3.3.3.3.3.3.3.3.5.3.3.3.3.3.3.3.3.3.3.3.5.3.3.3.3.3.3.5.3.3.3.3.3.3.3.3.3.5.3.5.3.3.3.3.3.3.3.3.3.3.3.3.3.3.3.3.3.3.5.3.3.3.",
"3.3.3.3.3.3.3.3.3.3.3.3.3.3.3.3.3.3.3.5.3.3.3.5.3.3.3.3.3.3.3.3.5.3.3.3.3.3.3.3.3.3.3.3.3.3.3.3.3.3.3.3.3.3.3.3.3.3.3.3.3.5.7.",
"3.3.7.5.3.3.3.3.3.3.7.7.3.9.5.3.3.7.7.5.3.7.7.5.7.7.5.3.5.7.7.7.7.5.3.3.3.3.3.3.3.7.5.3.3.3.3.3.3.3.3.3.7.7.7.9.7.5.3.3.3.3.3.",
"3.3.3.3.3.3.3.3.3.3.5.7.3.3.3.3.3.3.7.7.3.7.5.7.7.5.7.5.7.5.7.5.7.3.3.3.3.3.3.3.3.3.3.3.3.3.3.3.3.3.3.5.5.7.3.3.7.3.3.3.3.3.3.",
"3.3.3.3.3.3.3.7.5.3.3.3.3.3.3.3.3.3.3.3.3.3.3.3.5.3.3.3.3.3.3.3.3.3.3.3.3.3.3.3.3.3.3.3.3.3.3.3.3.3.7.8.3.3.3.3.3.3.5.3.3.3.3.",
"3.3.3.3.3.3.3.7.3.3.3.3.3.3.3.3.3.3.3.3.3.3.3.3.3.3.3.5.5.3.3.3.3.3.3.3.3.3.3.3.3.3.3.5.3.3.3.3.3.3.7.3.3.3.3.3.3.3.3.3.3.3.3.",
"5.7.3.3.3.7.3.3.3.3.N.3.3.3.3.1.3.3.3.3.3.<.>.3.3.3.3.3.3.5.3.3.3.3.3.3.3.3.>.3.3.3.3.>.3.3.3.3.3.3.3.3.3.3.3.3.3.3.3.3.3.3.7.",
"3.7.3.3.3.3.3.3.3.3.3.<.:.A.A.:.:.3.3.7.7.3.7.3.3.9.7.8.8._ _ :.H G 3.3.>.3.3.3.w.5.3.>.e.e.B >.B.B.8.0.C B.9.;.;.3.3.3.3.5.7.",
"3.3.3.3.3.3.3.3.3.3.3.:.:.A.A.:.:.7.9.4.7.3.3.3.7.9.N.8.8._ _ 2.H G 7.3.3.3.3.3.5.w.>.>.e.e.;.>.8.B.0.6.C B.B.<.<.3.3.3.3.3.3.",
"7.3.3.3.3.3.3.3.3.3.3.4.4.3.3.,.,.N.N.<.:.1.6.A A :.1.8.8.9.7.3.> > q e 1 q q.q.7.9.V.C.M M 6.5.9.7.B B 5.8.7.5.5.3.3.3.3.3.3.",
"7.7.3.3.3.3.3.3.3.5.3.4.4.<.3.4.4.V.N.:.<.1.1.A A :.1.7.8.9.9.3.% > e e 1 q q.q.7.7.C.C.M M 0.9.9.9.3.C 3.0.8.3.5.3.3.3.3.3.3.",
"7.7.3.3.3.3.3.3.3.3.>.6.6.9.9.;.;.V.V.7.7.C C 9.B.>.>.5.7.7.3.w XXXX^ ^ R R . . 3.3.G A ,.,.>.<.V.V.0.0.;.9.7.7.3.3.3.3.3.3.3.",
"7.3.5.5.3.3.7.3.3.3.3.6.3.5.7.;.;.V.V.7.A C C V.V.>.>.3.3.7.7.w XXXX^ ^ R R % . 7.3.G 7.1.,.3.3.V.r.0.0.;.8.9.3.7.3.3.7.7.3.3.",
"7.3.7.7.3.5.7.3.3.3.3.9.9.7.7.9.9.8.8.2.<.D D O i * * 5 1 6 = > ( ( ! Q I L 0 : 9.6.N.N.r.e.6.6.7.A D S <.>.3.B.B.3.3.3.9.3.3.",
"7.7.7.7.3.3.7.3.3.3.3.7.9.A 7.6.7.8.7.<.<.D D i i * * q 1 6 6 > ( ( Q Q U U 0 0 9.7.N.N.r.e.0.6.A A S S <.3.>.B.B.3.3.3.3.3.3.",
"7.7.3.3.3.3.3.3.3.3.3.,.,.A A :.:.7.N.+ + t w l l .. .| | y.y.y R R R T E E * = @ @ 9.8.N N N B 9.9.8.0.2.>.>.A 7.3.3.7.3.3.3.",
"7.7.7.3.3.3.3.3.3.3.3.,.,.7.A :.:.9.7.+ + t t l l X.X.] | y.y.y R R R T E E ; = @ q 9.9.N N >.B C.9.8.8.2.>.>.G G 3.3.3.3.3.3.",
"7.7.3.3.3.3.3.3.3.3.<.5.5.7.7.Z.Z.4 4 { { h.h.c.c.&.&.g.g.&.&.@.7 r o o O < | ] x x , , D.D.D.D.>.B 4.4.D w.w.9.3.3.3.3.3.3.3.",
"7.7.3.3.3.3.3.3.3.5.3.5.5.5.5.N.Z.4 4 { { h.h.c.c.&.u.f.g.&.&.@.7 7 o o X < ] ] x l , , D.V.D.D.B >.3.3.4.w.w.7.5.3.3.3.7.5.3.",
"7.7.3.3.3.3.3.3.3.3.3.8.8.7.4.- * ` ` &.k.m.m.m.m.M.M.c.l.k.&.k.; ; | | +.@.' ' X.X.c v % & 7.A w.2.B B 9.6.9.3.3.3.3.3.7.3.3.",
"7.7.3.3.3.3.3.3.3.3.3.8.8.4.4.* - ` ` z.l.m.m.m.m.M.M.l.l.k.&.f.; ; | | @.+.' ' X...c c & & A A 2.w.B B 9.6.9.3.3.3.3.3.3.3.3.",
"7.7.3.3.3.3.3.3.3.3.3.V.V.;.m < , j.j.=.*.m.m.n.n.z.z.&.&.s.s.l.x.c.g.f.} } o...] ` b b , 2 N.Z.1.,.0.6.7.3.3.>.>.3.3.3.3.3.3.",
"7.7.3.3.3.3.3.3.3.3.5.V.V.;.;.< , j.j.*.*.n.m.n.n.z.z.&.&.s.s.&.x.x.f.f.} } ....` ] b x & 2 N.Z.1.1.6.0.A 7.3.>.>.3.3.3.3.3.3.",
"A 7.3.3.3.3.3.3.7.7.5.7.N.4.4.% % z.&.z.z.l.z.*.*.p.p.a.*.i.v.j.l.z.#.k.k.l.) ) | | x l t t 6.7.m m N.7.Z 7.7.1.1.3.3.3.3.3.3.",
"7.7.3.3.3.3.3.3.7.8.3.N.N.4.4.% % l.l.z.z.z.l.*.a.p.p.*.*.i.i.g.z.l.z.k.l.l.) ) | | x x t t 6.6.B m N.N.Z 3.7.3.3.3.3.3.3.3.3.",
"3.7.3.3.3.3.3.3.8.7.3.9.N.9.8.e e z.z.u.$.v.v.g.f.f.z.x.z.z.z.$.u.&.d.d.u.u.] [ { { b b 5 1 N N 2.w.7.7.5.7.9.;.;.3.3.5.3.3.3.",
"7.7.3.3.3.3.3.3.8.9.3.N.N.7.3.e e z.f.u.$.b.v.z.f.z.z.l.l.z.z.$.$.&.d.d.u.$.[ ] { { b b q 5 N N w.w.7.N.w.9.9.>.;.5.3.3.7.7.3.",
"7.7.3.3.3.3.3.3.7.7.<.;.;.,.Z + + v.l.c.z.=.=.b.b.#.#.f.k.u.u.x.z.z.$.%.x.x.@.+.| { v b @ O 4.6.>.>.3.7.3.0.V.3.3.3.3.3.3.5.3.",
"7.7.7.7.3.3.3.3.7.7.3.r.V.7.7.f f  . .u.v.=.=.u.u.x.x.x.z.l.v.k.u.u.z.f.l.k.[ [ [ } c c   $ 8.9.3.Z 7.V.5.C C 4.3.3.3.3.7.7.5.",
"7.7.3.3.3.3.3.3.7.8.3.9.D.3.7.f f  . .v.v.=.=.u.u.b.x.z.k.x.x.&.u.u.g.g.z.x.[ | } [ c c $ $ 0.0.,.>.9.9.9.Z Z 3.,.3.3.3.3.3.3.",
"7.7.3.3.3.3.3.3.9.8.3.m ;.4.8.9.9.X   O.O.l.&.z.x.l.u.%.%.v.v.-.v.l.%.h.[ [ O.O.z z % , F.F.5.3.>.B 9.7.B 3.7.5.6.3.3.3.7.3.3.",
"7.7.3.3.3.3.3.3.8.7.3.;.m 8.9.V.7.  X O.O.l.l.z.z.&.&.#.#.v.v.-.x.x.%.k.[ [ O.O.z z , & V.F.3.5.B >.7.3.B 5.5.9.5.3.3.3.7.3.3.",
"7.7.3.3.3.3.3.3.7.8.3.Z.V.5.5.V V Z.Z.%   8 6 v v ....b.*.k.k.*.a.a...o.l l y 2     3.7.7.7.B C 5.w.3.3.6.5.5.4.3.3.3.3.3.3.3.",
"7.7.3.3.3.3.3.3.7.3.3.V.Z.5.7.V V Z.Z.% . 8 8 v v ....c.b.l.l.c.a.a...o.l l w y     7.7.8.A B B w.5.3.3.0.5.5.3.>.3.3.3.3.3.3.",
"7.A 3.3.3.3.3.3.8.7.3._ _ 5.3.S.G.B >.<.3.O O q * 5 = = 6 > 1 3 5 5   o = = 5 5 9.0.G 7.9.9.9.r.C 3.3.5.Z 5.9.3.4.3.3.3.7.3.3.",
"7.7.3.3.3.3.3.3.7.0.3._ _ 3.3.G.G.>.B 6.6.O O 5 5 = 6 = 6 . % , 5 + . . = * 5 = 0.9.7.7.9.7.r.r.C 3.3.3.4.9.5.4.4.3.1.3.3.3.3.",
"7.7.5.7.3.3.7.3.7.8.3.4.4.G G 2.2.C 4.> 2 ~.~.E.U._._.{.{.].'.(.Q.Q.U.U.E.E.L.L.5 5 2 2 B >.3.7.3.B 5.5.9.>.>.7.9.3.3.3.3.3.3.",
"7.3.3.3.3.5.7.3.8.7.3.4.q.N.N.:.2.C C 2 > ~.~.Q.Q._._.{.{.].].(.Q.Q.U.U.E.E.L.L.7 6 = = >.B 9.7.3.>.5.5.9.B >.9.6.3.3.3.7.3.3.",
"7.7.3.3.3.3.3.3.5.3.3.3.1.5.3.>.C <.6.1 5 6 6 T.E.OXOX}.}. X X'.(.(.Y.Y.r r ( ~ ! ! L L u u 7.9.>.3.C 8.>.9.7.>.3.3.3.3.7.5.3.",
"7.7.3.3.3.3.3.3.3.3.3.1.3.5.5.C 3.5.<.1 1 6 6 T.T.OXOX}.|. X X'.(.(.Y.E.# r ~ ~ ! ! U L u 8 9.9.3.3.8.8.<.9.9.3.>.3.3.3.3.3.3.",
"7.7.7.3.3.3.3.3.3.3.5.;.;.V.V.Z.Z.8 6 ! ~ 3 y g g h h k k j j k j f p p * - .X.X/ / P P - - H B.3.>.0.8.3.7.8.4.D 1.3.3.7.7.5.",
"7.7.3.7.3.3.7.3.3.3.5.>.;.Z.Z.Z.Z.6 8 ! ! 3 3 g g j h k e j j k g g p p - 9 .X.X/ / P P - 6 B.B.>.3.0.0.4.8.0.D D 3.3.3.7.3.3.",
"7.7.3.3.3.3.3.3.3.3.3.C.C.n n <.:.6.6.> > q q I.U.}.[.[.[. X}./.`.`.E.E.< < K K U U E U o o 3.7.6.0.>.>.<.0.C.>.>.3.3.3.3.3.3.",
"7.7.3.3.3.3.3.3.3.3.5.C.C.n n :.:.1.6.> > q q I.I.[.[.[. X{. X/.`.`.Q.E.< < K K U U E E X X C 7.0.0.>.>.;.C.0.B 3.3.3.3.3.3.3.",
"7.7.3.3.3.3.3.3.3.3.3.>.>.V.V.e.w.H H :.:.7 + K.K.R.R.].].`.`.).W.W.E.E.a a * % 8 8 , 4 8.F w.w.B B 9.t.5.B B 9.w.3.3.3.3.3.3.",
"7.7.3.3.3.3.3.3.3.3.3.;.>.9.V.w.w.H H :.:.7 5 K.K.R.R.].'.`.`.).W.W.E.E.a a = = 8 8 , , F F 5.w.B ;.w.0.5.B C 9.t.3.3.3.3.3.3.",
"A 7.3.3.3.3.3.3.3.3.3.Z Z F.F.N N B.B.9.7.* 6 ^.^.!.!.P.P.& & 2 J.J.H.H.: 3 S.S.C 7.C C t.t.B C 0.0.4.4.7.9.9.5.3.3.3.3.3.5.3.",
"3.7.3.3.3.3.3.3.3.5.>.3.3.F.F.N N B.B.N.9.9 6 ^.^.!.!.P.P.& & 2 J.J.H.H.& & S.S.A 7.C C t.t.3.B t.t.4.,.3.w.9.5.3.3.3.3.7.7.3.",
"7.7.3.3.3.3.3.3.3.3.3.5.5.;.;.<.>.N.N.: - ^ ^ oXoXQ Q Y R 6 5 > I I T T L Y % % , 4 G.G.:.<.B B 3.3.4.6.C >.3.4.4.3.3.5.3.3.3.",
"3.3.3.3.3.>.3.3.3.3.3.0.V.<.;.3.>.u u X 1 P P ~ ~ ~ ( W W d d r : ; O q 8 8 u u %   6 6 ;.:.C.D.C B 6.5.r.3.3.9.9.3.3.3.3.3.3.",
"3.3.3.3.3.3.3.3.3.3.1.N.N.<.<.>.>.9 9 X X P J ~ ~ ( ~ W W d d r : : q q 6 8 f f % X 6 6 <.;.0.C.N C 3.5.r.<.3.9.7.3.5.3.3.3.3.",
"3.3.3.3.3.3.3.3.7.7.3.3.3.8.3.6.3.% % 1 < 7 7 W W L L Y R . . 2 = 1 1 q @ @ u u 6 6 7 7 :.:.7.C B.8.3.3.5.3.3.4.S 3.3.3.3.3.3.",
"3.3.3.3.3.3.3.3.8.8.5.3.>.7.7.3.4.% % 1 < s s W W L L R Y . . 2 1 1 q 1 @ @ u u 9 6 7 7 <.:.7.3.A 8.3.4.5.3.3.4.4.3.1.3.3.3.3.",
"3.3.3.3.3.3.7.5.3.3.3.>.3.6.4.9.9.S S O i ; ; 1 q w w 2 = = w = = = 6 = 6 2 1 = = 6 3.3.3.3.3.3.3.3.3.3.3.3.3.3.3.H H 3.5.3.3.",
"3.3.3.3.3.3.3.5.3.3.>.>.>.6.6.5.9.S S O O ; ; 1 1 w w 2 2 w 6 2 2 6 = 2 = 6 6 2 = = 3.3.3.3.3.3.3.3.>.3.5.3.3.3.3.H H 3.3.3.3.",
"3.3.3.3.3.3.3.7.<.<.r.5.5.3.>.3.3.r.w.C C 7.7.N.9.A 7.7.5.7.5.5.7.5.5.7.5.5.5.7.5.3.3.3.3.3.3.7.3.3.3.3.7.3.3.3.5.>.<.:.:.3.3.",
"3.3.3.3.3.3.3.7.<.;.r.5.w.3.>.3.3.r.r.3.B 7.7.9.9.7.A 5.7.5.7.5.5.5.7.5.5.5.5.5.7.5.3.3.3.7.3.3.3.3.3.3.7.3.3.3.3.3.>.:.:.3.3.",
"3.3.3.3.3.3.3.3.3.3.3.3.3.7.3.3.3.3.3.3.3.3.3.3.3.3.3.3.3.3.3.3.3.3.3.3.3.3.3.5.3.5.3.3.3.3.5.7.3.3.3.3.3.3.5.7.3.3.3.3.3.3.3.",
"3.3.3.3.3.3.3.3.3.3.3.3.3.3.3.3.3.3.3.3.3.3.3.3.3.3.3.3.3.3.3.3.3.3.3.3.3.3.3.7.3.3.3.3.3.3.3.3.7.5.3.3.3.3.3.7.3.3.3.3.3.5.5."
};
